<?xml version="1.0" encoding="UTF-8"?>
<!DOCTYPE svg PUBLIC "-//W3C//DTD SVG 1.1//EN"
        "http://www.w3.org/Graphics/SVG/1.1/DTD/svg11.dtd">
<svg
  xmlns="http://www.w3.org/2000/svg"
  xmlns:xlink="http://www.w3.org/1999/xlink"
  version="1.1"
  width="720pt"
  height="540pt"
  viewBox="0 0 720 540"
  >
  <rect
    x="0"
    y="0"
    width="720"
    height="540"
    stroke="none"
    fill="#FFFFFF"
    fill-opacity="1.000000"
    />
  <g
    transform="matrix(1 0 0 -1 0 540)"
    >
    <polyline
      stroke-width="1.000000e+00"
      stroke="#000000"
      stroke-opacity="1.000000"
      fill="none"
      points="100.79,63.00 657.00,63.00"
      />
    <polyline
      stroke-width="1.000000e+00"
      stroke="#000000"
      stroke-opacity="1.000000"
      fill="none"
      points="100.79,63.00 100.79,72.45"
      />
    <polyline
      stroke-width="1.000000e+00"
      stroke="#000000"
      stroke-opacity="1.000000"
      fill="none"
      points="128.61,63.00 128.61,67.72"
      />
    <polyline
      stroke-width="1.000000e+00"
      stroke="#000000"
      stroke-opacity="1.000000"
      fill="none"
      points="156.41,63.00 156.41,67.72"
      />
    <polyline
      stroke-width="1.000000e+00"
      stroke="#000000"
      stroke-opacity="1.000000"
      fill="none"
      points="184.22,63.00 184.22,67.72"
      />
    <polyline
      stroke-width="1.000000e+00"
      stroke="#000000"
      stroke-opacity="1.000000"
      fill="none"
      points="212.02,63.00 212.02,72.45"
      />
    <polyline
      stroke-width="1.000000e+00"
      stroke="#000000"
      stroke-opacity="1.000000"
      fill="none"
      points="239.84,63.00 239.84,67.72"
      />
    <polyline
      stroke-width="1.000000e+00"
      stroke="#000000"
      stroke-opacity="1.000000"
      fill="none"
      points="267.66,63.00 267.66,67.72"
      />
    <polyline
      stroke-width="1.000000e+00"
      stroke="#000000"
      stroke-opacity="1.000000"
      fill="none"
      points="295.45,63.00 295.45,67.72"
      />
    <polyline
      stroke-width="1.000000e+00"
      stroke="#000000"
      stroke-opacity="1.000000"
      fill="none"
      points="323.27,63.00 323.27,72.45"
      />
    <polyline
      stroke-width="1.000000e+00"
      stroke="#000000"
      stroke-opacity="1.000000"
      fill="none"
      points="351.09,63.00 351.09,67.72"
      />
    <polyline
      stroke-width="1.000000e+00"
      stroke="#000000"
      stroke-opacity="1.000000"
      fill="none"
      points="378.89,63.00 378.89,67.72"
      />
    <polyline
      stroke-width="1.000000e+00"
      stroke="#000000"
      stroke-opacity="1.000000"
      fill="none"
      points="406.70,63.00 406.70,67.72"
      />
    <polyline
      stroke-width="1.000000e+00"
      stroke="#000000"
      stroke-opacity="1.000000"
      fill="none"
      points="434.50,63.00 434.50,72.45"
      />
    <polyline
      stroke-width="1.000000e+00"
      stroke="#000000"
      stroke-opacity="1.000000"
      fill="none"
      points="462.32,63.00 462.32,67.72"
      />
    <polyline
      stroke-width="1.000000e+00"
      stroke="#000000"
      stroke-opacity="1.000000"
      fill="none"
      points="490.14,63.00 490.14,67.72"
      />
    <polyline
      stroke-width="1.000000e+00"
      stroke="#000000"
      stroke-opacity="1.000000"
      fill="none"
      points="517.93,63.00 517.93,67.72"
      />
    <polyline
      stroke-width="1.000000e+00"
      stroke="#000000"
      stroke-opacity="1.000000"
      fill="none"
      points="545.75,63.00 545.75,72.45"
      />
    <polyline
      stroke-width="1.000000e+00"
      stroke="#000000"
      stroke-opacity="1.000000"
      fill="none"
      points="573.57,63.00 573.57,67.72"
      />
    <polyline
      stroke-width="1.000000e+00"
      stroke="#000000"
      stroke-opacity="1.000000"
      fill="none"
      points="601.37,63.00 601.37,67.72"
      />
    <polyline
      stroke-width="1.000000e+00"
      stroke="#000000"
      stroke-opacity="1.000000"
      fill="none"
      points="629.18,63.00 629.18,67.72"
      />
    <polyline
      stroke-width="1.000000e+00"
      stroke="#000000"
      stroke-opacity="1.000000"
      fill="none"
      points="656.98,63.00 656.98,72.45"
      />
    <polyline
      stroke-width="1.000000e+00"
      stroke="#000000"
      stroke-opacity="1.000000"
      fill="none"
      points="657.00,63.00 657.00,477.00"
      />
    <polyline
      stroke-width="1.000000e+00"
      stroke="#000000"
      stroke-opacity="1.000000"
      fill="none"
      points="647.55,63.00 657.00,63.00"
      />
    <polyline
      stroke-width="1.000000e+00"
      stroke="#000000"
      stroke-opacity="1.000000"
      fill="none"
      points="652.28,90.18 657.00,90.18"
      />
    <polyline
      stroke-width="1.000000e+00"
      stroke="#000000"
      stroke-opacity="1.000000"
      fill="none"
      points="652.28,117.34 657.00,117.34"
      />
    <polyline
      stroke-width="1.000000e+00"
      stroke="#000000"
      stroke-opacity="1.000000"
      fill="none"
      points="652.28,144.52 657.00,144.52"
      />
    <polyline
      stroke-width="1.000000e+00"
      stroke="#000000"
      stroke-opacity="1.000000"
      fill="none"
      points="652.28,171.68 657.00,171.68"
      />
    <polyline
      stroke-width="1.000000e+00"
      stroke="#000000"
      stroke-opacity="1.000000"
      fill="none"
      points="647.55,198.86 657.00,198.86"
      />
    <polyline
      stroke-width="1.000000e+00"
      stroke="#000000"
      stroke-opacity="1.000000"
      fill="none"
      points="652.28,226.04 657.00,226.04"
      />
    <polyline
      stroke-width="1.000000e+00"
      stroke="#000000"
      stroke-opacity="1.000000"
      fill="none"
      points="652.28,253.20 657.00,253.20"
      />
    <polyline
      stroke-width="1.000000e+00"
      stroke="#000000"
      stroke-opacity="1.000000"
      fill="none"
      points="652.28,280.38 657.00,280.38"
      />
    <polyline
      stroke-width="1.000000e+00"
      stroke="#000000"
      stroke-opacity="1.000000"
      fill="none"
      points="652.28,307.56 657.00,307.56"
      />
    <polyline
      stroke-width="1.000000e+00"
      stroke="#000000"
      stroke-opacity="1.000000"
      fill="none"
      points="647.55,334.72 657.00,334.72"
      />
    <polyline
      stroke-width="1.000000e+00"
      stroke="#000000"
      stroke-opacity="1.000000"
      fill="none"
      points="652.28,361.90 657.00,361.90"
      />
    <polyline
      stroke-width="1.000000e+00"
      stroke="#000000"
      stroke-opacity="1.000000"
      fill="none"
      points="652.28,389.06 657.00,389.06"
      />
    <polyline
      stroke-width="1.000000e+00"
      stroke="#000000"
      stroke-opacity="1.000000"
      fill="none"
      points="652.28,416.24 657.00,416.24"
      />
    <polyline
      stroke-width="1.000000e+00"
      stroke="#000000"
      stroke-opacity="1.000000"
      fill="none"
      points="652.28,443.42 657.00,443.42"
      />
    <polyline
      stroke-width="1.000000e+00"
      stroke="#000000"
      stroke-opacity="1.000000"
      fill="none"
      points="647.55,470.58 657.00,470.58"
      />
    <polyline
      stroke-width="1.000000e+00"
      stroke="#000000"
      stroke-opacity="1.000000"
      fill="none"
      points="657.00,477.00 100.79,477.00"
      />
    <polyline
      stroke-width="1.000000e+00"
      stroke="#000000"
      stroke-opacity="1.000000"
      fill="none"
      points="656.98,467.55 656.98,477.00"
      />
    <polyline
      stroke-width="1.000000e+00"
      stroke="#000000"
      stroke-opacity="1.000000"
      fill="none"
      points="629.18,472.27 629.18,477.00"
      />
    <polyline
      stroke-width="1.000000e+00"
      stroke="#000000"
      stroke-opacity="1.000000"
      fill="none"
      points="601.37,472.27 601.37,477.00"
      />
    <polyline
      stroke-width="1.000000e+00"
      stroke="#000000"
      stroke-opacity="1.000000"
      fill="none"
      points="573.57,472.27 573.57,477.00"
      />
    <polyline
      stroke-width="1.000000e+00"
      stroke="#000000"
      stroke-opacity="1.000000"
      fill="none"
      points="545.75,467.55 545.75,477.00"
      />
    <polyline
      stroke-width="1.000000e+00"
      stroke="#000000"
      stroke-opacity="1.000000"
      fill="none"
      points="517.93,472.27 517.93,477.00"
      />
    <polyline
      stroke-width="1.000000e+00"
      stroke="#000000"
      stroke-opacity="1.000000"
      fill="none"
      points="490.14,472.27 490.14,477.00"
      />
    <polyline
      stroke-width="1.000000e+00"
      stroke="#000000"
      stroke-opacity="1.000000"
      fill="none"
      points="462.32,472.27 462.32,477.00"
      />
    <polyline
      stroke-width="1.000000e+00"
      stroke="#000000"
      stroke-opacity="1.000000"
      fill="none"
      points="434.50,467.55 434.50,477.00"
      />
    <polyline
      stroke-width="1.000000e+00"
      stroke="#000000"
      stroke-opacity="1.000000"
      fill="none"
      points="406.70,472.27 406.70,477.00"
      />
    <polyline
      stroke-width="1.000000e+00"
      stroke="#000000"
      stroke-opacity="1.000000"
      fill="none"
      points="378.89,472.27 378.89,477.00"
      />
    <polyline
      stroke-width="1.000000e+00"
      stroke="#000000"
      stroke-opacity="1.000000"
      fill="none"
      points="351.09,472.27 351.09,477.00"
      />
    <polyline
      stroke-width="1.000000e+00"
      stroke="#000000"
      stroke-opacity="1.000000"
      fill="none"
      points="323.27,467.55 323.27,477.00"
      />
    <polyline
      stroke-width="1.000000e+00"
      stroke="#000000"
      stroke-opacity="1.000000"
      fill="none"
      points="295.45,472.27 295.45,477.00"
      />
    <polyline
      stroke-width="1.000000e+00"
      stroke="#000000"
      stroke-opacity="1.000000"
      fill="none"
      points="267.66,472.27 267.66,477.00"
      />
    <polyline
      stroke-width="1.000000e+00"
      stroke="#000000"
      stroke-opacity="1.000000"
      fill="none"
      points="239.84,472.27 239.84,477.00"
      />
    <polyline
      stroke-width="1.000000e+00"
      stroke="#000000"
      stroke-opacity="1.000000"
      fill="none"
      points="212.02,467.55 212.02,477.00"
      />
    <polyline
      stroke-width="1.000000e+00"
      stroke="#000000"
      stroke-opacity="1.000000"
      fill="none"
      points="184.22,472.27 184.22,477.00"
      />
    <polyline
      stroke-width="1.000000e+00"
      stroke="#000000"
      stroke-opacity="1.000000"
      fill="none"
      points="156.41,472.27 156.41,477.00"
      />
    <polyline
      stroke-width="1.000000e+00"
      stroke="#000000"
      stroke-opacity="1.000000"
      fill="none"
      points="128.61,472.27 128.61,477.00"
      />
    <polyline
      stroke-width="1.000000e+00"
      stroke="#000000"
      stroke-opacity="1.000000"
      fill="none"
      points="100.79,467.55 100.79,477.00"
      />
    <polyline
      stroke-width="1.000000e+00"
      stroke="#000000"
      stroke-opacity="1.000000"
      fill="none"
      points="100.79,477.00 100.79,63.00"
      />
    <polyline
      stroke-width="1.000000e+00"
      stroke="#000000"
      stroke-opacity="1.000000"
      fill="none"
      points="100.79,470.58 110.24,470.58"
      />
    <polyline
      stroke-width="1.000000e+00"
      stroke="#000000"
      stroke-opacity="1.000000"
      fill="none"
      points="100.79,443.42 105.52,443.42"
      />
    <polyline
      stroke-width="1.000000e+00"
      stroke="#000000"
      stroke-opacity="1.000000"
      fill="none"
      points="100.79,416.24 105.52,416.24"
      />
    <polyline
      stroke-width="1.000000e+00"
      stroke="#000000"
      stroke-opacity="1.000000"
      fill="none"
      points="100.79,389.06 105.52,389.06"
      />
    <polyline
      stroke-width="1.000000e+00"
      stroke="#000000"
      stroke-opacity="1.000000"
      fill="none"
      points="100.79,361.90 105.52,361.90"
      />
    <polyline
      stroke-width="1.000000e+00"
      stroke="#000000"
      stroke-opacity="1.000000"
      fill="none"
      points="100.79,334.72 110.24,334.72"
      />
    <polyline
      stroke-width="1.000000e+00"
      stroke="#000000"
      stroke-opacity="1.000000"
      fill="none"
      points="100.79,307.56 105.52,307.56"
      />
    <polyline
      stroke-width="1.000000e+00"
      stroke="#000000"
      stroke-opacity="1.000000"
      fill="none"
      points="100.79,280.38 105.52,280.38"
      />
    <polyline
      stroke-width="1.000000e+00"
      stroke="#000000"
      stroke-opacity="1.000000"
      fill="none"
      points="100.79,253.20 105.52,253.20"
      />
    <polyline
      stroke-width="1.000000e+00"
      stroke="#000000"
      stroke-opacity="1.000000"
      fill="none"
      points="100.79,226.04 105.52,226.04"
      />
    <polyline
      stroke-width="1.000000e+00"
      stroke="#000000"
      stroke-opacity="1.000000"
      fill="none"
      points="100.79,198.86 110.24,198.86"
      />
    <polyline
      stroke-width="1.000000e+00"
      stroke="#000000"
      stroke-opacity="1.000000"
      fill="none"
      points="100.79,171.68 105.52,171.68"
      />
    <polyline
      stroke-width="1.000000e+00"
      stroke="#000000"
      stroke-opacity="1.000000"
      fill="none"
      points="100.79,144.52 105.52,144.52"
      />
    <polyline
      stroke-width="1.000000e+00"
      stroke="#000000"
      stroke-opacity="1.000000"
      fill="none"
      points="100.79,117.34 105.52,117.34"
      />
    <polyline
      stroke-width="1.000000e+00"
      stroke="#000000"
      stroke-opacity="1.000000"
      fill="none"
      points="100.79,90.18 105.52,90.18"
      />
    <polyline
      stroke-width="1.000000e+00"
      stroke="#000000"
      stroke-opacity="1.000000"
      fill="none"
      points="100.79,63.00 110.24,63.00"
      />
    <clipPath
      id="text-clipping0"
      >
      <polygon
        points="0.000000,0.000000 0.000000,539.994507 720.000000,539.994507 720.000000,0.000000"
        />
    </clipPath>
    <g
      clip-path="url(#text-clipping0)"
      >
      <text
        dominant-baseline="no-change"
        fill="#000000"
        fill-opacity="1.000000"
        xml:space="preserve"
        font-size="16"
        transform="matrix(1.000000 0.000000 0.000000 -1.000000 100.813623 44.100467)"
        text-anchor="middle"
        x="0.000000"
        y="6.451584"
><tspan font-family="sans-serif" font-style="normal" font-weight="normal">&#x30;&#x2e;&#x30;</tspan></text>
    </g>
    <g
      clip-path="url(#text-clipping0)"
      >
      <text
        dominant-baseline="no-change"
        fill="#000000"
        fill-opacity="1.000000"
        xml:space="preserve"
        font-size="16"
        transform="matrix(1.000000 0.000000 0.000000 -1.000000 212.042604 44.100467)"
        text-anchor="middle"
        x="0.000000"
        y="6.451584"
><tspan font-family="sans-serif" font-style="normal" font-weight="normal">&#x30;&#x2e;&#x32;</tspan></text>
    </g>
    <g
      clip-path="url(#text-clipping0)"
      >
      <text
        dominant-baseline="no-change"
        fill="#000000"
        fill-opacity="1.000000"
        xml:space="preserve"
        font-size="16"
        transform="matrix(1.000000 0.000000 0.000000 -1.000000 323.271584 44.100467)"
        text-anchor="middle"
        x="0.000000"
        y="6.451584"
><tspan font-family="sans-serif" font-style="normal" font-weight="normal">&#x30;&#x2e;&#x34;</tspan></text>
    </g>
    <g
      clip-path="url(#text-clipping0)"
      >
      <text
        dominant-baseline="no-change"
        fill="#000000"
        fill-opacity="1.000000"
        xml:space="preserve"
        font-size="16"
        transform="matrix(1.000000 0.000000 0.000000 -1.000000 434.522538 44.100467)"
        text-anchor="middle"
        x="0.000000"
        y="6.451584"
><tspan font-family="sans-serif" font-style="normal" font-weight="normal">&#x30;&#x2e;&#x36;</tspan></text>
    </g>
    <g
      clip-path="url(#text-clipping0)"
      >
      <text
        dominant-baseline="no-change"
        fill="#000000"
        fill-opacity="1.000000"
        xml:space="preserve"
        font-size="16"
        transform="matrix(1.000000 0.000000 0.000000 -1.000000 545.751518 44.100467)"
        text-anchor="middle"
        x="0.000000"
        y="6.451584"
><tspan font-family="sans-serif" font-style="normal" font-weight="normal">&#x30;&#x2e;&#x38;</tspan></text>
    </g>
    <g
      clip-path="url(#text-clipping0)"
      >
      <text
        dominant-baseline="no-change"
        fill="#000000"
        fill-opacity="1.000000"
        xml:space="preserve"
        font-size="16"
        transform="matrix(1.000000 0.000000 0.000000 -1.000000 657.002472 44.100467)"
        text-anchor="middle"
        x="0.000000"
        y="6.451584"
><tspan font-family="sans-serif" font-style="normal" font-weight="normal">&#x31;&#x2e;&#x30;</tspan></text>
    </g>
    <g
      clip-path="url(#text-clipping0)"
      >
      <text
        dominant-baseline="no-change"
        fill="#000000"
        fill-opacity="1.000000"
        xml:space="preserve"
        font-size="16"
        transform="matrix(1.000000 0.000000 0.000000 -1.000000 94.507279 62.997528)"
        text-anchor="end"
        x="0.000000"
        y="6.451584"
><tspan font-family="sans-serif" font-style="normal" font-weight="normal">&#x30;</tspan></text>
    </g>
    <g
      clip-path="url(#text-clipping0)"
      >
      <text
        dominant-baseline="no-change"
        fill="#000000"
        fill-opacity="1.000000"
        xml:space="preserve"
        font-size="16"
        transform="matrix(1.000000 0.000000 0.000000 -1.000000 94.507279 198.858608)"
        text-anchor="end"
        x="0.000000"
        y="6.451584"
><tspan font-family="sans-serif" font-style="normal" font-weight="normal">&#x31;</tspan></text>
    </g>
    <g
      clip-path="url(#text-clipping0)"
      >
      <text
        dominant-baseline="no-change"
        fill="#000000"
        fill-opacity="1.000000"
        xml:space="preserve"
        font-size="16"
        transform="matrix(1.000000 0.000000 0.000000 -1.000000 94.507279 334.719687)"
        text-anchor="end"
        x="0.000000"
        y="6.451584"
><tspan font-family="sans-serif" font-style="normal" font-weight="normal">&#x32;</tspan></text>
    </g>
    <g
      clip-path="url(#text-clipping0)"
      >
      <text
        dominant-baseline="no-change"
        fill="#000000"
        fill-opacity="1.000000"
        xml:space="preserve"
        font-size="16"
        transform="matrix(1.000000 0.000000 0.000000 -1.000000 94.507279 470.580767)"
        text-anchor="end"
        x="0.000000"
        y="6.451584"
><tspan font-family="sans-serif" font-style="normal" font-weight="normal">&#x33;</tspan></text>
    </g>
    <g
      clip-path="url(#text-clipping0)"
      >
      <text
        dominant-baseline="no-change"
        fill="#000000"
        fill-opacity="1.000000"
        xml:space="preserve"
        font-size="16"
        transform="matrix(1.000000 0.000000 0.000000 -1.000000 378.908048 502.200385)"
        text-anchor="middle"
        x="0.000000"
        y="6.451584"
><tspan font-family="sans-serif" font-style="normal" font-weight="normal">&#x413;&#x440;&#x430;&#x444;&#x438;&#x43a;&#x20;&#x43f;&#x43e;&#x43b;&#x443;&#x447;&#x435;&#x43d;&#x43d;&#x43e;&#x433;&#x43e;&#x20;&#x43f;&#x43e;&#x43b;&#x438;&#x43d;&#x43e;&#x43c;&#x430;</tspan></text>
    </g>
    <g
      clip-path="url(#text-clipping0)"
      >
      <text
        dominant-baseline="no-change"
        fill="#000000"
        fill-opacity="1.000000"
        xml:space="preserve"
        font-size="16"
        transform="matrix(1.000000 0.000000 0.000000 -1.000000 378.908048 22.676473)"
        text-anchor="middle"
        x="0.000000"
        y="6.451584"
><tspan font-family="sans-serif" font-style="normal" font-weight="normal">&#x58;</tspan></text>
    </g>
    <g
      clip-path="url(#text-clipping0)"
      >
      <text
        dominant-baseline="no-change"
        fill="#000000"
        fill-opacity="1.000000"
        xml:space="preserve"
        font-size="16"
        transform="matrix(0.000000 1.000000 1.000000 -0.000000 37.794122 270.008240)"
        text-anchor="middle"
        x="0.000000"
        y="6.451584"
><tspan font-family="sans-serif" font-style="normal" font-weight="normal">&#x59;</tspan></text>
    </g>
    <polyline
      stroke-width="1.000000e+00"
      stroke="#000000"
      stroke-opacity="1.000000"
      fill="none"
      points="100.79,63.00 101.34,63.68 101.91,64.36 102.46,65.04 103.01,65.72 103.58,66.43 104.13,67.11 104.68,67.79 105.25,68.49 105.80,69.17 
      106.35,69.88 106.92,70.58 107.47,71.28 108.02,71.96 108.59,72.67 109.14,73.37 109.69,74.07 110.26,74.80 110.81,75.50 111.36,76.20 
      111.93,76.91 112.48,77.63 113.03,78.33 113.60,79.06 114.15,79.76 114.70,80.49 115.27,81.21 115.82,81.94 116.37,82.64 116.94,83.37 
      117.49,84.09 118.04,84.82 118.61,85.54 119.16,86.29 119.71,87.01 120.28,87.74 120.83,88.49 121.38,89.21 121.95,89.94 122.50,90.68 
      123.05,91.43 123.62,92.16 124.17,92.90 124.72,93.65 125.29,94.40 125.84,95.12 126.39,95.87 126.96,96.62 127.51,97.36 128.06,98.11 
      128.63,98.88 129.18,99.63 129.73,100.37 130.30,101.12 130.85,101.89 131.40,102.64 131.97,103.41 132.52,104.15 133.09,104.92 133.64,105.69 
      134.19,106.44 134.76,107.21 135.31,107.98 135.86,108.75 136.43,109.49 136.98,110.26 137.53,111.03 138.10,111.80 138.65,112.59 139.20,113.36 
      139.77,114.13 140.32,114.90 140.87,115.67 141.44,116.46 141.99,117.23 142.54,118.00 143.11,118.79 143.66,119.56 144.21,120.35 144.78,121.12 
      145.33,121.91 145.88,122.70 146.45,123.47 147.00,124.26 147.55,125.05 148.12,125.84 148.67,126.63 149.22,127.40 149.79,128.19 150.34,128.98 
      150.89,129.77 151.46,130.57 152.01,131.38 152.56,132.17 153.13,132.96 153.68,133.75 154.23,134.54 154.80,135.36 155.35,136.15 155.90,136.94 
      156.47,137.75 157.02,138.54 157.57,139.33 158.14,140.15 158.69,140.94 159.24,141.75 159.81,142.54 160.36,143.35 160.91,144.17 161.48,144.96 
      162.03,145.77 162.58,146.58 163.15,147.40 163.70,148.19 164.25,149.00 164.82,149.81 165.37,150.63 165.92,151.44 166.49,152.25 167.04,153.07 
      167.59,153.88 168.16,154.69 168.71,155.51 169.26,156.32 169.83,157.13 170.38,157.94 170.93,158.76 171.50,159.57 172.05,160.38 172.60,161.20 
      173.17,162.01 173.72,162.84 174.29,163.66 174.84,164.47 175.39,165.28 175.96,166.12 176.51,166.93 177.06,167.74 177.63,168.58 178.18,169.39 
      178.73,170.23 179.30,171.04 179.85,171.85 180.40,172.69 180.97,173.50 181.52,174.34 182.07,175.15 182.64,175.98 183.19,176.80 183.74,177.63 
      184.31,178.45 184.86,179.28 185.41,180.09 185.98,180.93 186.53,181.74 187.08,182.58 187.65,183.41 188.20,184.22 188.75,185.06 189.32,185.89 
      189.87,186.71 190.42,187.54 190.99,188.36 191.54,189.19 192.09,190.03 192.66,190.86 193.21,191.67 193.76,192.51 194.33,193.34 194.88,194.16 
      195.43,194.99 196.00,195.83 196.55,196.64 197.10,197.47 197.67,198.31 198.22,199.14 198.77,199.96 199.34,200.79 199.89,201.63 200.44,202.44 
      201.01,203.28 201.56,204.11 202.11,204.95 202.68,205.76 203.23,206.59 203.78,207.43 204.35,208.26 204.90,209.08 205.45,209.91 206.02,210.75 
      206.57,211.56 207.12,212.39 207.69,213.23 208.24,214.06 208.79,214.88 209.36,215.71 209.91,216.55 210.46,217.36 211.03,218.20 211.58,219.03 
      212.13,219.84 212.70,220.68 213.25,221.51 213.80,222.33 214.37,223.16 214.92,223.97 215.49,224.81 216.04,225.64 216.59,226.46 217.16,227.29 
      217.71,228.11 218.26,228.94 218.83,229.78 219.38,230.59 219.93,231.42 220.50,232.24 221.05,233.07 221.60,233.88 222.17,234.70 222.72,235.53 
      223.27,236.35 223.84,237.18 224.39,237.99 224.94,238.81 225.51,239.64 226.06,240.45 226.61,241.29 227.18,242.10 227.73,242.92 228.28,243.73 
      228.85,244.56 229.40,245.38 229.95,246.19 230.52,247.00 231.07,247.82 231.62,248.65 232.19,249.46 232.74,250.28 233.29,251.09 233.86,251.90 
      234.41,252.72 234.96,253.53 235.53,254.34 236.08,255.15 236.63,255.97 237.20,256.78 237.75,257.59 238.30,258.41 238.87,259.20 239.42,260.01 
      239.97,260.82 240.54,261.64 241.09,262.45 241.64,263.24 242.21,264.05 242.76,264.87 "/>
    <polyline
      stroke-width="1.000000e+00"
      stroke="#000000"
      stroke-opacity="1.000000"
      fill="none"
      points="242.76,264.87 243.31,265.66 243.88,266.47 244.43,267.26 244.98,268.07 245.55,268.87 246.10,269.68 246.65,270.47 247.22,271.28 247.77,272.07 
      248.32,272.86 248.89,273.68 249.44,274.47 249.99,275.26 250.56,276.05 251.11,276.86 251.66,277.65 252.23,278.45 252.78,279.24 253.33,280.03 
      253.90,280.82 254.45,281.61 255.00,282.40 255.57,283.19 256.12,283.96 256.69,284.75 257.24,285.54 257.79,286.33 258.36,287.13 258.91,287.89 
      259.46,288.69 260.03,289.45 260.58,290.25 261.13,291.01 261.70,291.81 262.25,292.57 262.80,293.37 263.37,294.13 263.92,294.90 264.47,295.67 
      265.04,296.46 265.59,297.23 266.14,298.00 266.71,298.77 267.26,299.54 267.81,300.31 268.38,301.08 268.93,301.85 269.48,302.62 270.05,303.39 
      270.60,304.13 271.15,304.90 271.72,305.67 272.27,306.42 272.82,307.19 273.39,307.93 273.94,308.70 274.49,309.45 275.06,310.22 275.61,310.97 
      276.16,311.71 276.73,312.46 277.28,313.23 277.83,313.98 278.40,314.72 278.95,315.47 279.50,316.22 280.07,316.97 280.62,317.71 281.17,318.44 
      281.74,319.18 282.29,319.93 282.84,320.66 283.41,321.40 283.96,322.15 284.51,322.88 285.08,323.62 285.63,324.35 286.18,325.07 286.75,325.82 
      287.30,326.55 287.85,327.27 288.42,328.00 288.97,328.72 289.52,329.45 290.09,330.17 290.64,330.90 291.19,331.62 291.76,332.32 292.31,333.05 
      292.86,333.77 293.43,334.48 293.98,335.20 294.53,335.91 295.10,336.63 295.65,337.33 296.20,338.04 296.77,338.74 297.32,339.47 297.89,340.17 
      298.44,340.87 298.99,341.58 299.56,342.28 300.11,342.96 300.66,343.66 301.23,344.37 301.78,345.07 302.33,345.75 302.90,346.45 303.45,347.13 
      304.00,347.84 304.57,348.52 305.12,349.20 305.67,349.88 306.24,350.56 306.79,351.27 307.34,351.95 307.91,352.61 308.46,353.29 309.01,353.97 
      309.58,354.65 310.13,355.33 310.68,355.99 311.25,356.67 311.80,357.33 312.35,358.01 312.92,358.67 313.47,359.33 314.02,359.99 314.59,360.65 
      315.14,361.31 315.69,361.97 316.26,362.63 316.81,363.29 317.36,363.94 317.93,364.60 318.48,365.24 319.03,365.90 319.60,366.54 320.15,367.20 
      320.70,367.83 321.27,368.47 321.82,369.11 322.37,369.77 322.94,370.40 323.49,371.02 324.04,371.66 324.61,372.29 325.16,372.93 325.71,373.57 
      326.28,374.18 326.83,374.82 327.38,375.44 327.95,376.05 328.50,376.69 329.05,377.30 329.62,377.92 330.17,378.53 330.72,379.15 331.29,379.77 
      331.84,380.38 332.39,381.00 332.96,381.59 333.51,382.20 334.06,382.80 334.63,383.41 335.18,384.01 335.73,384.60 336.30,385.21 336.85,385.81 
      337.40,386.40 337.97,386.99 338.52,387.59 339.09,388.18 339.64,388.75 340.19,389.35 340.76,389.92 341.31,390.51 341.86,391.08 342.43,391.67 
      342.98,392.25 343.53,392.82 344.10,393.39 344.65,393.96 345.20,394.53 345.77,395.10 346.32,395.67 346.87,396.22 347.44,396.79 347.99,397.34 
      348.54,397.91 349.11,398.46 349.66,399.01 350.21,399.56 350.78,400.13 351.33,400.68 351.88,401.21 352.45,401.76 353.00,402.31 353.55,402.86 
      354.12,403.39 354.67,403.94 355.22,404.46 355.79,404.99 356.34,405.54 356.89,406.07 357.46,406.59 358.01,407.12 358.56,407.65 359.13,408.18 
      359.68,408.68 360.23,409.21 360.80,409.71 361.35,410.24 361.90,410.75 362.47,411.27 363.02,411.78 363.57,412.29 364.14,412.79 364.69,413.30 
      365.24,413.80 365.81,414.29 366.36,414.79 366.91,415.30 367.48,415.78 368.03,416.26 368.58,416.77 369.15,417.25 369.70,417.73 370.25,418.22 
      370.82,418.70 371.37,419.19 371.92,419.67 372.49,420.13 373.04,420.61 373.59,421.10 374.16,421.56 374.71,422.02 375.26,422.48 375.83,422.96 
      376.38,423.43 376.93,423.89 377.50,424.35 378.05,424.79 378.60,425.25 379.17,425.71 379.72,426.15 380.27,426.61 380.84,427.05 381.39,427.49 
      381.96,427.93 382.51,428.37 383.06,428.81 383.63,429.25 384.18,429.69 384.73,430.13 "/>
    <polyline
      stroke-width="1.000000e+00"
      stroke="#000000"
      stroke-opacity="1.000000"
      fill="none"
      points="384.73,430.13 385.30,430.55 385.85,430.98 386.40,431.40 386.97,431.82 387.52,432.26 388.07,432.68 388.64,433.09 389.19,433.51 389.74,433.93 
      390.31,434.32 390.86,434.74 391.41,435.16 391.98,435.56 392.53,435.95 393.08,436.37 393.65,436.76 394.20,437.16 394.75,437.55 395.32,437.95 
      395.87,438.35 396.42,438.74 396.99,439.11 397.54,439.51 398.09,439.88 398.66,440.28 399.21,440.65 399.76,441.03 400.33,441.40 400.88,441.77 
      401.43,442.15 402.00,442.52 402.55,442.89 403.10,443.25 403.67,443.62 404.22,443.97 404.77,444.32 405.34,444.70 405.89,445.05 406.44,445.40 
      407.01,445.75 407.56,446.10 408.11,446.43 408.68,446.78 409.23,447.14 409.78,447.46 410.35,447.82 410.90,448.15 411.45,448.48 412.02,448.81 
      412.57,449.13 413.12,449.46 413.69,449.79 414.24,450.12 414.79,450.43 415.36,450.76 415.91,451.07 416.46,451.40 417.03,451.71 417.58,452.01 
      418.13,452.32 418.70,452.63 419.25,452.94 419.80,453.24 420.37,453.55 420.92,453.84 421.47,454.14 422.04,454.43 422.59,454.74 423.16,455.02 
      423.71,455.31 424.26,455.59 424.83,455.88 425.38,456.17 425.93,456.45 426.50,456.72 427.05,457.00 427.60,457.26 428.17,457.55 428.72,457.81 
      429.27,458.08 429.84,458.36 430.39,458.63 430.94,458.89 431.51,459.13 432.06,459.40 432.61,459.66 433.18,459.90 433.73,460.17 434.28,460.41 
      434.85,460.67 435.40,460.91 435.95,461.15 436.52,461.40 437.07,461.64 437.62,461.88 438.19,462.10 438.74,462.34 439.29,462.58 439.86,462.80 
      440.41,463.02 440.96,463.26 441.53,463.48 442.08,463.70 442.63,463.92 443.20,464.14 443.75,464.36 444.30,464.56 444.87,464.78 445.42,465.00 
      445.97,465.20 446.54,465.42 447.09,465.61 447.64,465.81 448.21,466.01 448.76,466.21 449.31,466.41 449.88,466.60 450.43,466.80 450.98,466.98 
      451.55,467.17 452.10,467.35 452.65,467.55 453.22,467.72 453.77,467.90 454.32,468.08 454.89,468.25 455.44,468.43 455.99,468.60 456.56,468.78 
      457.11,468.95 457.66,469.11 458.23,469.28 458.78,469.44 459.33,469.61 459.90,469.77 460.45,469.92 461.00,470.08 461.57,470.23 462.12,470.38 
      462.67,470.54 463.24,470.69 463.79,470.82 464.36,470.98 464.91,471.11 465.46,471.26 466.03,471.39 466.58,471.53 467.13,471.66 467.70,471.81 
      468.25,471.94 468.80,472.05 469.37,472.18 469.92,472.32 470.47,472.45 471.04,472.56 471.59,472.69 472.14,472.80 472.71,472.91 473.26,473.04 
      473.81,473.15 474.38,473.26 474.93,473.37 475.48,473.48 476.05,473.59 476.60,473.68 477.15,473.79 477.72,473.90 478.27,473.99 478.82,474.10 
      479.39,474.18 479.94,474.27 480.49,474.36 481.06,474.47 481.61,474.56 482.16,474.65 482.73,474.71 483.28,474.80 483.83,474.89 484.40,474.98 
      484.95,475.04 485.50,475.13 486.07,475.20 486.62,475.28 487.17,475.35 487.74,475.41 488.29,475.48 488.84,475.55 489.41,475.61 489.96,475.68 
      490.51,475.74 491.08,475.81 491.63,475.85 492.18,475.92 492.75,475.96 493.30,476.03 493.85,476.07 494.42,476.14 494.97,476.18 495.52,476.23 
      496.09,476.27 496.64,476.32 497.19,476.36 497.76,476.40 498.31,476.45 498.86,476.49 499.43,476.51 499.98,476.56 500.53,476.60 501.10,476.62 
      501.65,476.67 502.20,476.69 502.77,476.71 503.32,476.73 503.87,476.78 504.44,476.80 504.99,476.82 505.56,476.84 506.11,476.87 506.66,476.87 
      507.23,476.89 507.78,476.91 508.33,476.91 508.90,476.93 509.45,476.95 510.00,476.95 510.57,476.95 511.12,476.98 511.67,476.98 512.24,476.98 
      512.79,476.98 513.34,477.00 513.91,477.00 514.46,477.00 515.01,476.98 515.58,476.98 516.13,476.98 516.68,476.98 517.25,476.98 517.80,476.95 
      518.35,476.95 518.92,476.93 519.47,476.93 520.02,476.91 520.59,476.91 521.14,476.89 521.69,476.87 522.26,476.84 522.81,476.82 523.36,476.82 
      523.93,476.80 524.48,476.78 525.03,476.76 525.60,476.71 526.15,476.69 526.70,476.67 "/>
    <polyline
      stroke-width="1.000000e+00"
      stroke="#000000"
      stroke-opacity="1.000000"
      fill="none"
      points="526.70,476.67 527.27,476.65 527.82,476.62 528.37,476.58 528.94,476.56 529.49,476.51 530.04,476.49 530.61,476.45 531.16,476.43 531.71,476.38 
      532.28,476.36 532.83,476.32 533.38,476.27 533.95,476.23 534.50,476.18 535.05,476.16 535.62,476.12 536.17,476.07 536.72,476.03 537.29,475.99 
      537.84,475.94 538.39,475.88 538.96,475.83 539.51,475.79 540.06,475.74 540.63,475.70 541.18,475.63 541.73,475.59 542.30,475.55 542.85,475.48 
      543.40,475.44 543.97,475.37 544.52,475.33 545.07,475.26 545.64,475.22 546.19,475.15 546.76,475.09 547.31,475.04 547.86,474.98 548.43,474.91 
      548.98,474.84 549.53,474.80 550.10,474.73 550.65,474.67 551.20,474.60 551.77,474.54 552.32,474.47 552.87,474.40 553.44,474.34 553.99,474.27 
      554.54,474.21 555.11,474.14 555.66,474.07 556.21,474.01 556.78,473.94 557.33,473.88 557.88,473.81 558.45,473.74 559.00,473.68 559.55,473.59 
      560.12,473.53 560.67,473.46 561.22,473.39 561.79,473.33 562.34,473.24 562.89,473.17 563.46,473.11 564.01,473.02 564.56,472.95 565.13,472.89 
      565.68,472.80 566.23,472.73 566.80,472.67 567.35,472.58 567.90,472.51 568.47,472.45 569.02,472.36 569.57,472.29 570.14,472.21 570.69,472.14 
      571.24,472.07 571.81,471.99 572.36,471.92 572.91,471.83 573.48,471.77 574.03,471.70 574.58,471.61 575.15,471.55 575.70,471.46 576.25,471.39 
      576.82,471.33 577.37,471.24 577.92,471.17 578.49,471.09 579.04,471.02 579.59,470.95 580.16,470.87 580.71,470.80 581.26,470.73 581.83,470.65 
      582.38,470.58 582.93,470.51 583.50,470.43 584.05,470.36 584.60,470.30 585.17,470.23 585.72,470.14 586.27,470.08 586.84,470.01 587.39,469.94 
      587.96,469.88 588.51,469.79 589.06,469.72 589.63,469.66 590.18,469.59 590.73,469.53 591.30,469.46 591.85,469.39 592.40,469.33 592.97,469.26 
      593.52,469.20 594.07,469.13 594.64,469.06 595.19,469.00 595.74,468.95 596.31,468.89 596.86,468.82 597.41,468.76 597.98,468.69 598.53,468.65 
      599.08,468.58 599.65,468.54 600.20,468.47 600.75,468.41 601.32,468.36 601.87,468.32 602.42,468.25 602.99,468.21 603.54,468.14 604.09,468.10 
      604.66,468.05 605.21,468.01 605.76,467.97 606.33,467.90 606.88,467.86 607.43,467.81 608.00,467.77 608.55,467.72 609.10,467.70 609.67,467.66 
      610.22,467.61 610.77,467.57 611.34,467.55 611.89,467.50 612.44,467.46 613.01,467.44 613.56,467.39 614.11,467.37 614.68,467.35 615.23,467.33 
      615.78,467.28 616.35,467.26 616.90,467.24 617.45,467.22 618.02,467.20 618.57,467.17 619.12,467.15 619.69,467.15 620.24,467.13 620.79,467.11 
      621.36,467.11 621.91,467.09 622.46,467.09 623.03,467.09 623.58,467.07 624.13,467.07 624.70,467.07 625.25,467.07 625.80,467.07 626.37,467.07 
      626.92,467.09 627.47,467.09 628.04,467.09 628.59,467.11 629.16,467.11 629.71,467.13 630.26,467.15 630.83,467.15 631.38,467.17 631.93,467.20 
      632.50,467.22 633.05,467.26 633.60,467.28 634.17,467.31 634.72,467.35 635.27,467.37 635.84,467.42 636.39,467.44 636.94,467.48 637.51,467.53 
      638.06,467.57 638.61,467.61 639.18,467.68 639.73,467.72 640.28,467.77 640.85,467.83 641.40,467.90 641.95,467.94 642.52,468.01 643.07,468.08 
      643.62,468.14 644.19,468.23 644.74,468.30 645.29,468.36 645.86,468.45 646.41,468.54 646.96,468.60 647.53,468.69 648.08,468.78 648.63,468.89 
      649.20,468.98 649.75,469.06 650.30,469.17 650.87,469.26 651.42,469.37 651.97,469.48 652.54,469.59 653.09,469.70 653.64,469.83 654.21,469.94 
      654.76,470.08 655.31,470.19 655.88,470.32 656.43,470.45 656.98,470.58 "/>
  </g>
</svg>
