<?xml version="1.0" encoding="utf-8"?>
<svg xmlns="http://www.w3.org/2000/svg" xmlns:xlink="http://www.w3.org/1999/xlink" width="600" height="400" viewBox="0 0 2400 1600">
<defs>
  <clipPath id="clip000">
    <rect x="0" y="0" width="2400" height="1600"/>
  </clipPath>
</defs>
<path clip-path="url(#clip000)" d="M0 1600 L2400 1600 L2400 0 L0 0  Z" fill="#ffffff" fill-rule="evenodd" fill-opacity="1"/>
<defs>
  <clipPath id="clip001">
    <rect x="480" y="0" width="1681" height="1600"/>
  </clipPath>
</defs>
<path clip-path="url(#clip000)" d="M147.478 1486.45 L2352.76 1486.45 L2352.76 47.2441 L147.478 47.2441  Z" fill="#ffffff" fill-rule="evenodd" fill-opacity="1"/>
<defs>
  <clipPath id="clip002">
    <rect x="147" y="47" width="2206" height="1440"/>
  </clipPath>
</defs>
<polyline clip-path="url(#clip002)" style="stroke:#000000; stroke-linecap:round; stroke-linejoin:round; stroke-width:2; stroke-opacity:0.1; fill:none" points="196.022,1486.45 196.022,47.2441 "/>
<polyline clip-path="url(#clip002)" style="stroke:#000000; stroke-linecap:round; stroke-linejoin:round; stroke-width:2; stroke-opacity:0.1; fill:none" points="750.809,1486.45 750.809,47.2441 "/>
<polyline clip-path="url(#clip002)" style="stroke:#000000; stroke-linecap:round; stroke-linejoin:round; stroke-width:2; stroke-opacity:0.1; fill:none" points="1305.6,1486.45 1305.6,47.2441 "/>
<polyline clip-path="url(#clip002)" style="stroke:#000000; stroke-linecap:round; stroke-linejoin:round; stroke-width:2; stroke-opacity:0.1; fill:none" points="1860.38,1486.45 1860.38,47.2441 "/>
<polyline clip-path="url(#clip002)" style="stroke:#000000; stroke-linecap:round; stroke-linejoin:round; stroke-width:2; stroke-opacity:0.1; fill:none" points="147.478,1445.72 2352.76,1445.72 "/>
<polyline clip-path="url(#clip002)" style="stroke:#000000; stroke-linecap:round; stroke-linejoin:round; stroke-width:2; stroke-opacity:0.1; fill:none" points="147.478,1106.28 2352.76,1106.28 "/>
<polyline clip-path="url(#clip002)" style="stroke:#000000; stroke-linecap:round; stroke-linejoin:round; stroke-width:2; stroke-opacity:0.1; fill:none" points="147.478,766.846 2352.76,766.846 "/>
<polyline clip-path="url(#clip002)" style="stroke:#000000; stroke-linecap:round; stroke-linejoin:round; stroke-width:2; stroke-opacity:0.1; fill:none" points="147.478,427.411 2352.76,427.411 "/>
<polyline clip-path="url(#clip002)" style="stroke:#000000; stroke-linecap:round; stroke-linejoin:round; stroke-width:2; stroke-opacity:0.1; fill:none" points="147.478,87.9763 2352.76,87.9763 "/>
<polyline clip-path="url(#clip000)" style="stroke:#000000; stroke-linecap:round; stroke-linejoin:round; stroke-width:4; stroke-opacity:1; fill:none" points="147.478,1486.45 2352.76,1486.45 "/>
<polyline clip-path="url(#clip000)" style="stroke:#000000; stroke-linecap:round; stroke-linejoin:round; stroke-width:4; stroke-opacity:1; fill:none" points="196.022,1486.45 196.022,1467.55 "/>
<polyline clip-path="url(#clip000)" style="stroke:#000000; stroke-linecap:round; stroke-linejoin:round; stroke-width:4; stroke-opacity:1; fill:none" points="750.809,1486.45 750.809,1467.55 "/>
<polyline clip-path="url(#clip000)" style="stroke:#000000; stroke-linecap:round; stroke-linejoin:round; stroke-width:4; stroke-opacity:1; fill:none" points="1305.6,1486.45 1305.6,1467.55 "/>
<polyline clip-path="url(#clip000)" style="stroke:#000000; stroke-linecap:round; stroke-linejoin:round; stroke-width:4; stroke-opacity:1; fill:none" points="1860.38,1486.45 1860.38,1467.55 "/>
<path clip-path="url(#clip000)" d="M196.022 1517.37 Q192.411 1517.37 190.582 1520.93 Q188.776 1524.47 188.776 1531.6 Q188.776 1538.71 190.582 1542.27 Q192.411 1545.82 196.022 1545.82 Q199.656 1545.82 201.461 1542.27 Q203.29 1538.71 203.29 1531.6 Q203.29 1524.47 201.461 1520.93 Q199.656 1517.37 196.022 1517.37 M196.022 1513.66 Q201.832 1513.66 204.887 1518.27 Q207.966 1522.85 207.966 1531.6 Q207.966 1540.33 204.887 1544.94 Q201.832 1549.52 196.022 1549.52 Q190.212 1549.52 187.133 1544.94 Q184.077 1540.33 184.077 1531.6 Q184.077 1522.85 187.133 1518.27 Q190.212 1513.66 196.022 1513.66 Z" fill="#000000" fill-rule="nonzero" fill-opacity="1" /><path clip-path="url(#clip000)" d="M729.582 1544.91 L745.901 1544.91 L745.901 1548.85 L723.957 1548.85 L723.957 1544.91 Q726.619 1542.16 731.202 1537.53 Q735.809 1532.88 736.989 1531.53 Q739.235 1529.01 740.114 1527.27 Q741.017 1525.51 741.017 1523.82 Q741.017 1521.07 739.073 1519.33 Q737.151 1517.6 734.049 1517.6 Q731.85 1517.6 729.397 1518.36 Q726.966 1519.13 724.188 1520.68 L724.188 1515.95 Q727.012 1514.82 729.466 1514.24 Q731.92 1513.66 733.957 1513.66 Q739.327 1513.66 742.522 1516.35 Q745.716 1519.03 745.716 1523.52 Q745.716 1525.65 744.906 1527.57 Q744.119 1529.47 742.012 1532.07 Q741.434 1532.74 738.332 1535.95 Q735.23 1539.15 729.582 1544.91 Z" fill="#000000" fill-rule="nonzero" fill-opacity="1" /><path clip-path="url(#clip000)" d="M765.716 1517.37 Q762.105 1517.37 760.276 1520.93 Q758.471 1524.47 758.471 1531.6 Q758.471 1538.71 760.276 1542.27 Q762.105 1545.82 765.716 1545.82 Q769.35 1545.82 771.156 1542.27 Q772.984 1538.71 772.984 1531.6 Q772.984 1524.47 771.156 1520.93 Q769.35 1517.37 765.716 1517.37 M765.716 1513.66 Q771.526 1513.66 774.582 1518.27 Q777.66 1522.85 777.66 1531.6 Q777.66 1540.33 774.582 1544.94 Q771.526 1549.52 765.716 1549.52 Q759.906 1549.52 756.827 1544.94 Q753.772 1540.33 753.772 1531.6 Q753.772 1522.85 756.827 1518.27 Q759.906 1513.66 765.716 1513.66 Z" fill="#000000" fill-rule="nonzero" fill-opacity="1" /><path clip-path="url(#clip000)" d="M1293.77 1518.36 L1281.96 1536.81 L1293.77 1536.81 L1293.77 1518.36 M1292.54 1514.29 L1298.42 1514.29 L1298.42 1536.81 L1303.35 1536.81 L1303.35 1540.7 L1298.42 1540.7 L1298.42 1548.85 L1293.77 1548.85 L1293.77 1540.7 L1278.17 1540.7 L1278.17 1536.19 L1292.54 1514.29 Z" fill="#000000" fill-rule="nonzero" fill-opacity="1" /><path clip-path="url(#clip000)" d="M1321.08 1517.37 Q1317.47 1517.37 1315.64 1520.93 Q1313.84 1524.47 1313.84 1531.6 Q1313.84 1538.71 1315.64 1542.27 Q1317.47 1545.82 1321.08 1545.82 Q1324.72 1545.82 1326.52 1542.27 Q1328.35 1538.71 1328.35 1531.6 Q1328.35 1524.47 1326.52 1520.93 Q1324.72 1517.37 1321.08 1517.37 M1321.08 1513.66 Q1326.89 1513.66 1329.95 1518.27 Q1333.03 1522.85 1333.03 1531.6 Q1333.03 1540.33 1329.95 1544.94 Q1326.89 1549.52 1321.08 1549.52 Q1315.27 1549.52 1312.19 1544.94 Q1309.14 1540.33 1309.14 1531.6 Q1309.14 1522.85 1312.19 1518.27 Q1315.27 1513.66 1321.08 1513.66 Z" fill="#000000" fill-rule="nonzero" fill-opacity="1" /><path clip-path="url(#clip000)" d="M1845.79 1529.7 Q1842.64 1529.7 1840.79 1531.86 Q1838.96 1534.01 1838.96 1537.76 Q1838.96 1541.49 1840.79 1543.66 Q1842.64 1545.82 1845.79 1545.82 Q1848.94 1545.82 1850.76 1543.66 Q1852.62 1541.49 1852.62 1537.76 Q1852.62 1534.01 1850.76 1531.86 Q1848.94 1529.7 1845.79 1529.7 M1855.07 1515.05 L1855.07 1519.31 Q1853.31 1518.48 1851.51 1518.04 Q1849.72 1517.6 1847.96 1517.6 Q1843.33 1517.6 1840.88 1520.72 Q1838.45 1523.85 1838.1 1530.17 Q1839.47 1528.15 1841.53 1527.09 Q1843.59 1526 1846.07 1526 Q1851.27 1526 1854.28 1529.17 Q1857.32 1532.32 1857.32 1537.76 Q1857.32 1543.08 1854.17 1546.3 Q1851.02 1549.52 1845.79 1549.52 Q1839.79 1549.52 1836.62 1544.94 Q1833.45 1540.33 1833.45 1531.6 Q1833.45 1523.41 1837.34 1518.55 Q1841.23 1513.66 1847.78 1513.66 Q1849.54 1513.66 1851.32 1514.01 Q1853.13 1514.36 1855.07 1515.05 Z" fill="#000000" fill-rule="nonzero" fill-opacity="1" /><path clip-path="url(#clip000)" d="M1875.37 1517.37 Q1871.76 1517.37 1869.93 1520.93 Q1868.13 1524.47 1868.13 1531.6 Q1868.13 1538.71 1869.93 1542.27 Q1871.76 1545.82 1875.37 1545.82 Q1879.01 1545.82 1880.81 1542.27 Q1882.64 1538.71 1882.64 1531.6 Q1882.64 1524.47 1880.81 1520.93 Q1879.01 1517.37 1875.37 1517.37 M1875.37 1513.66 Q1881.18 1513.66 1884.24 1518.27 Q1887.32 1522.85 1887.32 1531.6 Q1887.32 1540.33 1884.24 1544.94 Q1881.18 1549.52 1875.37 1549.52 Q1869.56 1549.52 1866.48 1544.94 Q1863.43 1540.33 1863.43 1531.6 Q1863.43 1522.85 1866.48 1518.27 Q1869.56 1513.66 1875.37 1513.66 Z" fill="#000000" fill-rule="nonzero" fill-opacity="1" /><polyline clip-path="url(#clip000)" style="stroke:#000000; stroke-linecap:round; stroke-linejoin:round; stroke-width:4; stroke-opacity:1; fill:none" points="147.478,1486.45 147.478,47.2441 "/>
<polyline clip-path="url(#clip000)" style="stroke:#000000; stroke-linecap:round; stroke-linejoin:round; stroke-width:4; stroke-opacity:1; fill:none" points="147.478,1445.72 166.376,1445.72 "/>
<polyline clip-path="url(#clip000)" style="stroke:#000000; stroke-linecap:round; stroke-linejoin:round; stroke-width:4; stroke-opacity:1; fill:none" points="147.478,1106.28 166.376,1106.28 "/>
<polyline clip-path="url(#clip000)" style="stroke:#000000; stroke-linecap:round; stroke-linejoin:round; stroke-width:4; stroke-opacity:1; fill:none" points="147.478,766.846 166.376,766.846 "/>
<polyline clip-path="url(#clip000)" style="stroke:#000000; stroke-linecap:round; stroke-linejoin:round; stroke-width:4; stroke-opacity:1; fill:none" points="147.478,427.411 166.376,427.411 "/>
<polyline clip-path="url(#clip000)" style="stroke:#000000; stroke-linecap:round; stroke-linejoin:round; stroke-width:4; stroke-opacity:1; fill:none" points="147.478,87.9763 166.376,87.9763 "/>
<path clip-path="url(#clip000)" d="M51.3625 1446.17 L81.0383 1446.17 L81.0383 1450.1 L51.3625 1450.1 L51.3625 1446.17 Z" fill="#000000" fill-rule="nonzero" fill-opacity="1" /><path clip-path="url(#clip000)" d="M95.1586 1459.06 L111.478 1459.06 L111.478 1463 L89.5336 1463 L89.5336 1459.06 Q92.1956 1456.31 96.7789 1451.68 Q101.385 1447.02 102.566 1445.68 Q104.811 1443.16 105.691 1441.42 Q106.594 1439.66 106.594 1437.97 Q106.594 1435.22 104.649 1433.48 Q102.728 1431.75 99.6261 1431.75 Q97.4271 1431.75 94.9734 1432.51 Q92.5428 1433.27 89.7651 1434.82 L89.7651 1430.1 Q92.5891 1428.97 95.0428 1428.39 Q97.4965 1427.81 99.5335 1427.81 Q104.904 1427.81 108.098 1430.5 Q111.293 1433.18 111.293 1437.67 Q111.293 1439.8 110.483 1441.72 Q109.696 1443.62 107.589 1446.21 Q107.01 1446.88 103.909 1450.1 Q100.807 1453.3 95.1586 1459.06 Z" fill="#000000" fill-rule="nonzero" fill-opacity="1" /><path clip-path="url(#clip000)" d="M50.9921 1106.73 L80.6679 1106.73 L80.6679 1110.67 L50.9921 1110.67 L50.9921 1106.73 Z" fill="#000000" fill-rule="nonzero" fill-opacity="1" /><path clip-path="url(#clip000)" d="M91.5706 1119.63 L99.2095 1119.63 L99.2095 1093.26 L90.8993 1094.93 L90.8993 1090.67 L99.1632 1089 L103.839 1089 L103.839 1119.63 L111.478 1119.63 L111.478 1123.56 L91.5706 1123.56 L91.5706 1119.63 Z" fill="#000000" fill-rule="nonzero" fill-opacity="1" /><path clip-path="url(#clip000)" d="M99.5335 752.645 Q95.9224 752.645 94.0937 756.209 Q92.2882 759.751 92.2882 766.881 Q92.2882 773.987 94.0937 777.552 Q95.9224 781.094 99.5335 781.094 Q103.168 781.094 104.973 777.552 Q106.802 773.987 106.802 766.881 Q106.802 759.751 104.973 756.209 Q103.168 752.645 99.5335 752.645 M99.5335 748.941 Q105.344 748.941 108.399 753.547 Q111.478 758.131 111.478 766.881 Q111.478 775.608 108.399 780.214 Q105.344 784.797 99.5335 784.797 Q93.7234 784.797 90.6447 780.214 Q87.5892 775.608 87.5892 766.881 Q87.5892 758.131 90.6447 753.547 Q93.7234 748.941 99.5335 748.941 Z" fill="#000000" fill-rule="nonzero" fill-opacity="1" /><path clip-path="url(#clip000)" d="M91.5706 440.756 L99.2095 440.756 L99.2095 414.39 L90.8993 416.057 L90.8993 411.798 L99.1632 410.131 L103.839 410.131 L103.839 440.756 L111.478 440.756 L111.478 444.691 L91.5706 444.691 L91.5706 440.756 Z" fill="#000000" fill-rule="nonzero" fill-opacity="1" /><path clip-path="url(#clip000)" d="M95.1586 101.321 L111.478 101.321 L111.478 105.256 L89.5336 105.256 L89.5336 101.321 Q92.1956 98.5665 96.7789 93.9369 Q101.385 89.2841 102.566 87.9416 Q104.811 85.4184 105.691 83.6823 Q106.594 81.9231 106.594 80.2333 Q106.594 77.4786 104.649 75.7425 Q102.728 74.0064 99.6261 74.0064 Q97.4271 74.0064 94.9734 74.7703 Q92.5428 75.5342 89.7651 77.0851 L89.7651 72.3629 Q92.5891 71.2287 95.0428 70.65 Q97.4965 70.0713 99.5335 70.0713 Q104.904 70.0713 108.098 72.7565 Q111.293 75.4416 111.293 79.9323 Q111.293 82.062 110.483 83.9832 Q109.696 85.8814 107.589 88.474 Q107.01 89.1453 103.909 92.3628 Q100.807 95.5573 95.1586 101.321 Z" fill="#000000" fill-rule="nonzero" fill-opacity="1" /><polyline clip-path="url(#clip002)" style="stroke:#009af9; stroke-linecap:round; stroke-linejoin:round; stroke-width:8; stroke-opacity:1; fill:none" points="1641.19,1445.72 1419.5,1432 1234.46,1418.29 1079.62,1404.57 949.722,1390.86 840.474,1377.14 748.372,1363.43 670.542,1349.71 604.62,1336 548.659,1322.28 501.052,1308.57 460.467,1294.86 425.797,1281.14 396.125,1267.43 370.681,1253.71 348.826,1240 330.022,1226.28 313.817,1212.57 299.832,1198.85 287.745,1185.14 277.286,1171.42 268.225,1157.71 260.366,1144 253.544,1130.28 247.617,1116.57 242.464,1102.85 237.981,1089.14 234.079,1075.42 230.682,1061.71 227.723,1047.99 225.147,1034.28 222.903,1020.56 220.95,1006.85 219.251,993.136 217.773,979.421 216.49,965.707 215.377,951.992 214.413,938.278 213.581,924.563 212.865,910.849 212.251,897.134 211.728,883.42 211.286,869.705 210.915,855.99 210.611,842.276 210.365,828.561 210.174,814.847 210.034,801.132 209.942,787.418 209.897,773.703 209.897,759.989 209.942,746.274 210.034,732.56 210.174,718.845 210.365,705.131 210.611,691.416 210.915,677.701 211.286,663.987 211.728,650.272 212.251,636.558 212.865,622.843 213.581,609.129 214.413,595.414 215.377,581.7 216.49,567.985 217.773,554.271 219.251,540.556 220.95,526.842 222.903,513.127 225.147,499.412 227.723,485.698 230.682,471.983 234.079,458.269 237.981,444.554 242.464,430.84 247.617,417.125 253.544,403.411 260.366,389.696 268.225,375.982 277.286,362.267 287.745,348.553 299.832,334.838 313.817,321.123 330.022,307.409 348.826,293.694 370.681,279.98 396.125,266.265 425.797,252.551 460.467,238.836 501.052,225.122 548.659,211.407 604.62,197.693 670.542,183.978 748.372,170.264 840.474,156.549 949.722,142.834 1079.62,129.12 1234.46,115.405 1419.5,101.691 1641.19,87.9763 "/>
<polyline clip-path="url(#clip002)" style="stroke:#e26f46; stroke-linecap:round; stroke-linejoin:round; stroke-width:8; stroke-opacity:1; fill:none" points="348.588,1445.72 346.598,1442.99 344.63,1440.27 342.684,1437.55 340.76,1434.83 338.857,1432.11 336.976,1429.39 335.116,1426.67 333.277,1423.95 331.459,1421.23 329.661,1418.51 327.885,1415.79 326.129,1413.06 324.393,1410.34 322.677,1407.62 320.981,1404.9 319.305,1402.18 317.649,1399.46 316.012,1396.74 314.394,1394.02 312.795,1391.3 311.216,1388.58 309.655,1385.86 308.113,1383.13 306.59,1380.41 305.085,1377.69 303.598,1374.97 302.129,1372.25 300.678,1369.53 299.244,1366.81 297.829,1364.09 296.431,1361.37 295.05,1358.65 293.686,1355.93 292.339,1353.2 291.009,1350.48 289.696,1347.76 288.4,1345.04 287.119,1342.32 285.855,1339.6 284.607,1336.88 283.376,1334.16 282.16,1331.44 280.959,1328.72 279.774,1326 278.605,1323.27 277.451,1320.55 276.312,1317.83 275.188,1315.11 274.078,1312.39 272.984,1309.67 271.904,1306.95 270.838,1304.23 269.787,1301.51 268.75,1298.79 267.727,1296.07 266.718,1293.34 265.722,1290.62 264.741,1287.9 263.772,1285.18 262.817,1282.46 261.876,1279.74 260.947,1277.02 260.032,1274.3 259.129,1271.58 258.239,1268.86 257.361,1266.13 256.496,1263.41 255.644,1260.69 254.803,1257.97 253.975,1255.25 253.158,1252.53 252.354,1249.81 251.561,1247.09 250.78,1244.37 250.01,1241.65 249.251,1238.93 248.504,1236.2 247.768,1233.48 247.043,1230.76 246.329,1228.04 245.625,1225.32 244.932,1222.6 244.25,1219.88 243.578,1217.16 242.917,1214.44 242.265,1211.72 241.624,1209 240.993,1206.27 240.371,1203.55 239.76,1200.83 239.157,1198.11 238.565,1195.39 237.982,1192.67 237.408,1189.95 236.843,1187.23 236.288,1184.51 235.741,1181.79 235.203,1179.07 234.674,1176.34 234.154,1173.62 233.643,1170.9 233.139,1168.18 232.645,1165.46 232.158,1162.74 231.68,1160.02 231.209,1157.3 230.747,1154.58 230.292,1151.86 229.846,1149.14 229.407,1146.41 228.975,1143.69 228.551,1140.97 228.134,1138.25 227.725,1135.53 227.323,1132.81 226.928,1130.09 226.54,1127.37 226.159,1124.65 225.785,1121.93 225.417,1119.21 225.056,1116.48 224.702,1113.76 224.354,1111.04 224.013,1108.32 223.678,1105.6 223.349,1102.88 223.026,1100.16 222.709,1097.44 222.399,1094.72 222.094,1092 221.795,1089.28 221.501,1086.55 221.214,1083.83 220.932,1081.11 220.655,1078.39 220.384,1075.67 220.118,1072.95 219.857,1070.23 219.601,1067.51 219.351,1064.79 219.105,1062.07 218.865,1059.34 218.629,1056.62 218.398,1053.9 218.172,1051.18 217.951,1048.46 217.734,1045.74 217.521,1043.02 217.313,1040.3 217.109,1037.58 216.91,1034.86 216.715,1032.14 216.524,1029.41 216.337,1026.69 216.154,1023.97 215.975,1021.25 215.8,1018.53 215.629,1015.81 215.462,1013.09 215.298,1010.37 215.138,1007.65 214.981,1004.93 214.829,1002.21 214.679,999.485 214.533,996.764 214.39,994.043 214.251,991.322 214.114,988.601 213.981,985.88 213.851,983.159 213.725,980.438 213.601,977.717 213.48,974.996 213.362,972.275 213.247,969.555 213.134,966.834 213.025,964.113 212.918,961.392 212.813,958.671 212.712,955.95 212.613,953.229 212.516,950.508 212.422,947.787 212.33,945.066 212.241,942.345 212.154,939.624 212.069,936.904 211.986,934.183 211.906,931.462 211.828,928.741 211.752,926.02 211.678,923.299 211.606,920.578 211.536,917.857 211.468,915.136 211.401,912.415 211.337,909.694 211.275,906.973 211.214,904.252 211.155,901.532 211.098,898.811 211.043,896.09 210.989,893.369 210.937,890.648 210.886,887.927 210.837,885.206 210.79,882.485 210.744,879.764 210.699,877.043 210.656,874.322 210.615,871.601 210.575,868.881 210.536,866.16 210.498,863.439 210.462,860.718 210.427,857.997 210.394,855.276 210.362,852.555 210.331,849.834 210.301,847.113 210.272,844.392 210.245,841.671 210.218,838.95 210.193,836.229 210.169,833.509 210.146,830.788 210.124,828.067 210.103,825.346 210.084,822.625 210.065,819.904 210.047,817.183 210.03,814.462 210.015,811.741 210,809.02 209.986,806.299 209.973,803.578 209.962,800.857 209.951,798.137 209.941,795.416 209.932,792.695 209.924,789.974 209.916,787.253 209.91,784.532 209.905,781.811 209.9,779.09 209.897,776.369 209.894,773.648 209.892,770.927 209.891,768.206 209.891,765.486 209.892,762.765 209.894,760.044 209.897,757.323 209.9,754.602 209.905,751.881 209.91,749.16 209.916,746.439 209.924,743.718 209.932,740.997 209.941,738.276 209.951,735.555 209.962,732.834 209.973,730.114 209.986,727.393 210,724.672 210.015,721.951 210.03,719.23 210.047,716.509 210.065,713.788 210.084,711.067 210.103,708.346 210.124,705.625 210.146,702.904 210.169,700.183 210.193,697.463 210.218,694.742 210.245,692.021 210.272,689.3 210.301,686.579 210.331,683.858 210.362,681.137 210.394,678.416 210.427,675.695 210.462,672.974 210.498,670.253 210.536,667.532 210.575,664.811 210.615,662.091 210.656,659.37 210.699,656.649 210.744,653.928 210.79,651.207 210.837,648.486 210.886,645.765 210.937,643.044 210.989,640.323 211.043,637.602 211.098,634.881 211.155,632.16 211.214,629.439 211.275,626.719 211.337,623.998 211.401,621.277 211.468,618.556 211.536,615.835 211.606,613.114 211.678,610.393 211.752,607.672 211.828,604.951 211.906,602.23 211.986,599.509 212.069,596.788 212.154,594.068 212.241,591.347 212.33,588.626 212.422,585.905 212.516,583.184 212.613,580.463 212.712,577.742 212.813,575.021 212.918,572.3 213.025,569.579 213.134,566.858 213.247,564.137 213.362,561.416 213.48,558.696 213.601,555.975 213.725,553.254 213.851,550.533 213.981,547.812 214.114,545.091 214.251,542.37 214.39,539.649 214.533,536.928 214.679,534.207 214.829,531.486 214.981,528.765 215.138,526.045 215.298,523.324 215.462,520.603 215.629,517.882 215.8,515.161 215.975,512.44 216.154,509.719 216.337,506.998 216.524,504.277 216.715,501.556 216.91,498.835 217.109,496.114 217.313,493.393 217.521,490.673 217.734,487.952 217.951,485.231 218.172,482.51 218.398,479.789 218.629,477.068 218.865,474.347 219.105,471.626 219.351,468.905 219.601,466.184 219.857,463.463 220.118,460.742 220.384,458.021 220.655,455.301 220.932,452.58 221.214,449.859 221.501,447.138 221.795,444.417 222.094,441.696 222.399,438.975 222.709,436.254 223.026,433.533 223.349,430.812 223.678,428.091 224.013,425.37 224.354,422.65 224.702,419.929 225.056,417.208 225.417,414.487 225.785,411.766 226.159,409.045 226.54,406.324 226.928,403.603 227.323,400.882 227.725,398.161 228.134,395.44 228.551,392.719 228.975,389.998 229.407,387.278 229.846,384.557 230.292,381.836 230.747,379.115 231.209,376.394 231.68,373.673 232.158,370.952 232.645,368.231 233.139,365.51 233.643,362.789 234.154,360.068 234.674,357.347 235.203,354.627 235.741,351.906 236.288,349.185 236.843,346.464 237.408,343.743 237.982,341.022 238.565,338.301 239.157,335.58 239.76,332.859 240.371,330.138 240.993,327.417 241.624,324.696 242.265,321.975 242.917,319.255 243.578,316.534 244.25,313.813 244.932,311.092 245.625,308.371 246.329,305.65 247.043,302.929 247.768,300.208 248.504,297.487 249.251,294.766 250.01,292.045 250.78,289.324 251.561,286.603 252.354,283.883 253.158,281.162 253.975,278.441 254.803,275.72 255.644,272.999 256.496,270.278 257.361,267.557 258.239,264.836 259.129,262.115 260.032,259.394 260.947,256.673 261.876,253.952 262.817,251.232 263.772,248.511 264.741,245.79 265.722,243.069 266.718,240.348 267.727,237.627 268.75,234.906 269.787,232.185 270.838,229.464 271.904,226.743 272.984,224.022 274.078,221.301 275.188,218.58 276.312,215.86 277.451,213.139 278.605,210.418 279.774,207.697 280.959,204.976 282.16,202.255 283.376,199.534 284.607,196.813 285.855,194.092 287.119,191.371 288.4,188.65 289.696,185.929 291.009,183.209 292.339,180.488 293.686,177.767 295.05,175.046 296.431,172.325 297.829,169.604 299.244,166.883 300.678,164.162 302.129,161.441 303.598,158.72 305.085,155.999 306.59,153.278 308.113,150.557 309.655,147.837 311.216,145.116 312.795,142.395 314.394,139.674 316.012,136.953 317.649,134.232 319.305,131.511 320.981,128.79 322.677,126.069 324.393,123.348 326.129,120.627 327.885,117.906 329.661,115.185 331.459,112.465 333.277,109.744 335.116,107.023 336.976,104.302 338.857,101.581 340.76,98.86 342.684,96.139 344.63,93.4181 346.598,90.6972 348.588,87.9763 "/>
<polyline clip-path="url(#clip002)" style="stroke:#3da44d; stroke-linecap:round; stroke-linejoin:round; stroke-width:8; stroke-opacity:1; fill:none" points="625.982,1445.72 617.824,1442.99 609.804,1440.27 601.92,1437.55 594.171,1434.83 586.554,1432.11 579.066,1429.39 571.708,1426.67 564.476,1423.95 557.369,1421.23 550.385,1418.51 543.522,1415.79 536.779,1413.06 530.153,1410.34 523.644,1407.62 517.249,1404.9 510.966,1402.18 504.795,1399.46 498.733,1396.74 492.779,1394.02 486.931,1391.3 481.187,1388.58 475.547,1385.86 470.008,1383.13 464.569,1380.41 459.229,1377.69 453.985,1374.97 448.837,1372.25 443.783,1369.53 438.822,1366.81 433.952,1364.09 429.172,1361.37 424.48,1358.65 419.875,1355.93 415.356,1353.2 410.921,1350.48 406.569,1347.76 402.299,1345.04 398.109,1342.32 393.999,1339.6 389.966,1336.88 386.011,1334.16 382.13,1331.44 378.324,1328.72 374.591,1326 370.93,1323.27 367.339,1320.55 363.818,1317.83 360.366,1315.11 356.98,1312.39 353.661,1309.67 350.408,1306.95 347.218,1304.23 344.091,1301.51 341.026,1298.79 338.022,1296.07 335.078,1293.34 332.193,1290.62 329.365,1287.9 326.595,1285.18 323.88,1282.46 321.221,1279.74 318.615,1277.02 316.063,1274.3 313.563,1271.58 311.114,1268.86 308.716,1266.13 306.367,1263.41 304.067,1260.69 301.814,1257.97 299.609,1255.25 297.45,1252.53 295.336,1249.81 293.267,1247.09 291.241,1244.37 289.258,1241.65 287.318,1238.93 285.419,1236.2 283.56,1233.48 281.742,1230.76 279.962,1228.04 278.222,1225.32 276.519,1222.6 274.853,1219.88 273.223,1217.16 271.629,1214.44 270.07,1211.72 268.546,1209 267.055,1206.27 265.598,1203.55 264.172,1200.83 262.779,1198.11 261.417,1195.39 260.086,1192.67 258.785,1189.95 257.513,1187.23 256.27,1184.51 255.056,1181.79 253.869,1179.07 252.71,1176.34 251.577,1173.62 250.47,1170.9 249.39,1168.18 248.334,1165.46 247.303,1162.74 246.296,1160.02 245.313,1157.3 244.353,1154.58 243.416,1151.86 242.501,1149.14 241.608,1146.41 240.736,1143.69 239.886,1140.97 239.055,1138.25 238.245,1135.53 237.455,1132.81 236.683,1130.09 235.931,1127.37 235.197,1124.65 234.481,1121.93 233.783,1119.21 233.102,1116.48 232.438,1113.76 231.79,1111.04 231.159,1108.32 230.543,1105.6 229.944,1102.88 229.359,1100.16 228.789,1097.44 228.234,1094.72 227.692,1092 227.165,1089.28 226.651,1086.55 226.151,1083.83 225.663,1081.11 225.189,1078.39 224.726,1075.67 224.276,1072.95 223.837,1070.23 223.41,1067.51 222.995,1064.79 222.59,1062.07 222.197,1059.34 221.813,1056.62 221.44,1053.9 221.077,1051.18 220.724,1048.46 220.381,1045.74 220.047,1043.02 219.722,1040.3 219.405,1037.58 219.098,1034.86 218.799,1032.14 218.508,1029.41 218.226,1026.69 217.951,1023.97 217.684,1021.25 217.425,1018.53 217.173,1015.81 216.928,1013.09 216.689,1010.37 216.458,1007.65 216.234,1004.93 216.015,1002.21 215.803,999.485 215.598,996.764 215.398,994.043 215.204,991.322 215.016,988.601 214.833,985.88 214.656,983.159 214.484,980.438 214.317,977.717 214.155,974.996 213.997,972.275 213.845,969.555 213.697,966.834 213.554,964.113 213.415,961.392 213.28,958.671 213.149,955.95 213.023,953.229 212.9,950.508 212.781,947.787 212.666,945.066 212.555,942.345 212.447,939.624 212.342,936.904 212.241,934.183 212.143,931.462 212.048,928.741 211.956,926.02 211.867,923.299 211.781,920.578 211.698,917.857 211.618,915.136 211.54,912.415 211.465,909.694 211.392,906.973 211.322,904.252 211.255,901.532 211.189,898.811 211.126,896.09 211.065,893.369 211.006,890.648 210.949,887.927 210.895,885.206 210.842,882.485 210.791,879.764 210.742,877.043 210.695,874.322 210.649,871.601 210.605,868.881 210.563,866.16 210.523,863.439 210.484,860.718 210.447,857.997 210.411,855.276 210.377,852.555 210.344,849.834 210.312,847.113 210.282,844.392 210.253,841.671 210.226,838.95 210.2,836.229 210.174,833.509 210.151,830.788 210.128,828.067 210.107,825.346 210.086,822.625 210.067,819.904 210.049,817.183 210.032,814.462 210.016,811.741 210.001,809.02 209.987,806.299 209.974,803.578 209.962,800.857 209.951,798.137 209.941,795.416 209.932,792.695 209.924,789.974 209.917,787.253 209.91,784.532 209.905,781.811 209.9,779.09 209.897,776.369 209.894,773.648 209.892,770.927 209.891,768.206 209.891,765.486 209.892,762.765 209.894,760.044 209.897,757.323 209.9,754.602 209.905,751.881 209.91,749.16 209.917,746.439 209.924,743.718 209.932,740.997 209.941,738.276 209.951,735.555 209.962,732.834 209.974,730.114 209.987,727.393 210.001,724.672 210.016,721.951 210.032,719.23 210.049,716.509 210.067,713.788 210.086,711.067 210.107,708.346 210.128,705.625 210.151,702.904 210.174,700.183 210.2,697.463 210.226,694.742 210.253,692.021 210.282,689.3 210.312,686.579 210.344,683.858 210.377,681.137 210.411,678.416 210.447,675.695 210.484,672.974 210.523,670.253 210.563,667.532 210.605,664.811 210.649,662.091 210.695,659.37 210.742,656.649 210.791,653.928 210.842,651.207 210.895,648.486 210.949,645.765 211.006,643.044 211.065,640.323 211.126,637.602 211.189,634.881 211.255,632.16 211.322,629.439 211.392,626.719 211.465,623.998 211.54,621.277 211.618,618.556 211.698,615.835 211.781,613.114 211.867,610.393 211.956,607.672 212.048,604.951 212.143,602.23 212.241,599.509 212.342,596.788 212.447,594.068 212.555,591.347 212.666,588.626 212.781,585.905 212.9,583.184 213.023,580.463 213.149,577.742 213.28,575.021 213.415,572.3 213.554,569.579 213.697,566.858 213.845,564.137 213.997,561.416 214.155,558.696 214.317,555.975 214.484,553.254 214.656,550.533 214.833,547.812 215.016,545.091 215.204,542.37 215.398,539.649 215.598,536.928 215.803,534.207 216.015,531.486 216.234,528.765 216.458,526.045 216.689,523.324 216.928,520.603 217.173,517.882 217.425,515.161 217.684,512.44 217.951,509.719 218.226,506.998 218.508,504.277 218.799,501.556 219.098,498.835 219.405,496.114 219.722,493.393 220.047,490.673 220.381,487.952 220.724,485.231 221.077,482.51 221.44,479.789 221.813,477.068 222.197,474.347 222.59,471.626 222.995,468.905 223.41,466.184 223.837,463.463 224.276,460.742 224.726,458.021 225.189,455.301 225.663,452.58 226.151,449.859 226.651,447.138 227.165,444.417 227.692,441.696 228.234,438.975 228.789,436.254 229.359,433.533 229.944,430.812 230.543,428.091 231.159,425.37 231.79,422.65 232.438,419.929 233.102,417.208 233.783,414.487 234.481,411.766 235.197,409.045 235.931,406.324 236.683,403.603 237.455,400.882 238.245,398.161 239.055,395.44 239.886,392.719 240.736,389.998 241.608,387.278 242.501,384.557 243.416,381.836 244.353,379.115 245.313,376.394 246.296,373.673 247.303,370.952 248.334,368.231 249.39,365.51 250.47,362.789 251.577,360.068 252.71,357.347 253.869,354.627 255.056,351.906 256.27,349.185 257.513,346.464 258.785,343.743 260.086,341.022 261.417,338.301 262.779,335.58 264.172,332.859 265.598,330.138 267.055,327.417 268.546,324.696 270.07,321.975 271.629,319.255 273.223,316.534 274.853,313.813 276.519,311.092 278.222,308.371 279.962,305.65 281.742,302.929 283.56,300.208 285.419,297.487 287.318,294.766 289.258,292.045 291.241,289.324 293.267,286.603 295.336,283.883 297.45,281.162 299.609,278.441 301.814,275.72 304.067,272.999 306.367,270.278 308.716,267.557 311.114,264.836 313.563,262.115 316.063,259.394 318.615,256.673 321.221,253.952 323.88,251.232 326.595,248.511 329.365,245.79 332.193,243.069 335.078,240.348 338.022,237.627 341.026,234.906 344.091,232.185 347.218,229.464 350.408,226.743 353.661,224.022 356.98,221.301 360.366,218.58 363.818,215.86 367.339,213.139 370.93,210.418 374.591,207.697 378.324,204.976 382.13,202.255 386.011,199.534 389.966,196.813 393.999,194.092 398.109,191.371 402.299,188.65 406.569,185.929 410.921,183.209 415.356,180.488 419.875,177.767 424.48,175.046 429.172,172.325 433.952,169.604 438.822,166.883 443.783,164.162 448.837,161.441 453.985,158.72 459.229,155.999 464.569,153.278 470.008,150.557 475.547,147.837 481.187,145.116 486.931,142.395 492.779,139.674 498.733,136.953 504.795,134.232 510.966,131.511 517.249,128.79 523.644,126.069 530.153,123.348 536.779,120.627 543.522,117.906 550.385,115.185 557.369,112.465 564.476,109.744 571.708,107.023 579.066,104.302 586.554,101.581 594.171,98.86 601.92,96.139 609.804,93.4181 617.824,90.6972 625.982,87.9763 "/>
<polyline clip-path="url(#clip002)" style="stroke:#c271d2; stroke-linecap:round; stroke-linejoin:round; stroke-width:8; stroke-opacity:1; fill:none" points="1180.77,1445.72 1155.94,1442.99 1131.68,1440.27 1108,1437.55 1084.87,1434.83 1062.29,1432.11 1040.24,1429.39 1018.71,1426.67 997.697,1423.95 977.181,1421.23 957.154,1418.51 937.607,1415.79 918.528,1413.06 899.908,1410.34 881.736,1407.62 864.004,1404.9 846.702,1402.18 829.82,1399.46 813.349,1396.74 797.28,1394.02 781.604,1391.3 766.314,1388.58 751.399,1385.86 736.853,1383.13 722.666,1380.41 708.831,1377.69 695.34,1374.97 682.186,1372.25 669.36,1369.53 656.855,1366.81 644.665,1364.09 632.781,1361.37 621.197,1358.65 609.907,1355.93 598.903,1353.2 588.178,1350.48 577.728,1347.76 567.544,1345.04 557.622,1342.32 547.954,1339.6 538.535,1336.88 529.36,1334.16 520.422,1331.44 511.716,1328.72 503.237,1326 494.979,1323.27 486.936,1320.55 479.105,1317.83 471.479,1315.11 464.054,1312.39 456.825,1309.67 449.788,1306.95 442.937,1304.23 436.268,1301.51 429.778,1298.79 423.46,1296.07 417.312,1293.34 411.329,1290.62 405.507,1287.9 399.843,1285.18 394.331,1282.46 388.969,1279.74 383.753,1277.02 378.678,1274.3 373.743,1271.58 368.942,1268.86 364.273,1266.13 359.733,1263.41 355.317,1260.69 351.024,1257.97 346.849,1255.25 342.79,1252.53 338.845,1249.81 335.009,1247.09 331.28,1244.37 327.656,1241.65 324.133,1238.93 320.71,1236.2 317.383,1233.48 314.15,1230.76 311.008,1228.04 307.956,1225.32 304.99,1222.6 302.109,1219.88 299.31,1217.16 296.592,1214.44 293.951,1211.72 291.386,1209 288.895,1206.27 286.476,1203.55 284.126,1200.83 281.845,1198.11 279.63,1195.39 277.48,1192.67 275.392,1189.95 273.365,1187.23 271.397,1184.51 269.487,1181.79 267.633,1179.07 265.834,1176.34 264.088,1173.62 262.393,1170.9 260.748,1168.18 259.152,1165.46 257.604,1162.74 256.102,1160.02 254.644,1157.3 253.23,1154.58 251.858,1151.86 250.527,1149.14 249.237,1146.41 247.985,1143.69 246.77,1140.97 245.593,1138.25 244.451,1135.53 243.343,1132.81 242.269,1130.09 241.228,1127.37 240.218,1124.65 239.239,1121.93 238.29,1119.21 237.37,1116.48 236.478,1113.76 235.613,1111.04 234.775,1108.32 233.963,1105.6 233.175,1102.88 232.412,1100.16 231.672,1097.44 230.956,1094.72 230.261,1092 229.588,1089.28 228.936,1086.55 228.304,1083.83 227.691,1081.11 227.098,1078.39 226.524,1075.67 225.967,1072.95 225.427,1070.23 224.905,1067.51 224.399,1064.79 223.908,1062.07 223.434,1059.34 222.974,1056.62 222.528,1053.9 222.097,1051.18 221.679,1048.46 221.274,1045.74 220.883,1043.02 220.503,1040.3 220.136,1037.58 219.78,1034.86 219.436,1032.14 219.102,1029.41 218.779,1026.69 218.467,1023.97 218.164,1021.25 217.871,1018.53 217.588,1015.81 217.313,1013.09 217.048,1010.37 216.79,1007.65 216.542,1004.93 216.301,1002.21 216.068,999.485 215.842,996.764 215.624,994.043 215.412,991.322 215.208,988.601 215.01,985.88 214.819,983.159 214.634,980.438 214.455,977.717 214.281,974.996 214.114,972.275 213.952,969.555 213.795,966.834 213.643,964.113 213.496,961.392 213.355,958.671 213.217,955.95 213.085,953.229 212.957,950.508 212.833,947.787 212.713,945.066 212.597,942.345 212.485,939.624 212.376,936.904 212.272,934.183 212.171,931.462 212.073,928.741 211.979,926.02 211.888,923.299 211.799,920.578 211.714,917.857 211.632,915.136 211.553,912.415 211.476,909.694 211.403,906.973 211.331,904.252 211.262,901.532 211.196,898.811 211.132,896.09 211.07,893.369 211.011,890.648 210.953,887.927 210.898,885.206 210.845,882.485 210.793,879.764 210.744,877.043 210.697,874.322 210.651,871.601 210.607,868.881 210.565,866.16 210.524,863.439 210.485,860.718 210.448,857.997 210.412,855.276 210.377,852.555 210.344,849.834 210.313,847.113 210.282,844.392 210.253,841.671 210.226,838.95 210.2,836.229 210.175,833.509 210.151,830.788 210.128,828.067 210.107,825.346 210.086,822.625 210.067,819.904 210.049,817.183 210.032,814.462 210.016,811.741 210.001,809.02 209.987,806.299 209.974,803.578 209.962,800.857 209.951,798.137 209.941,795.416 209.932,792.695 209.924,789.974 209.917,787.253 209.91,784.532 209.905,781.811 209.9,779.09 209.897,776.369 209.894,773.648 209.892,770.927 209.891,768.206 209.891,765.486 209.892,762.765 209.894,760.044 209.897,757.323 209.9,754.602 209.905,751.881 209.91,749.16 209.917,746.439 209.924,743.718 209.932,740.997 209.941,738.276 209.951,735.555 209.962,732.834 209.974,730.114 209.987,727.393 210.001,724.672 210.016,721.951 210.032,719.23 210.049,716.509 210.067,713.788 210.086,711.067 210.107,708.346 210.128,705.625 210.151,702.904 210.175,700.183 210.2,697.463 210.226,694.742 210.253,692.021 210.282,689.3 210.313,686.579 210.344,683.858 210.377,681.137 210.412,678.416 210.448,675.695 210.485,672.974 210.524,670.253 210.565,667.532 210.607,664.811 210.651,662.091 210.697,659.37 210.744,656.649 210.793,653.928 210.845,651.207 210.898,648.486 210.953,645.765 211.011,643.044 211.07,640.323 211.132,637.602 211.196,634.881 211.262,632.16 211.331,629.439 211.403,626.719 211.476,623.998 211.553,621.277 211.632,618.556 211.714,615.835 211.799,613.114 211.888,610.393 211.979,607.672 212.073,604.951 212.171,602.23 212.272,599.509 212.376,596.788 212.485,594.068 212.597,591.347 212.713,588.626 212.833,585.905 212.957,583.184 213.085,580.463 213.217,577.742 213.355,575.021 213.496,572.3 213.643,569.579 213.795,566.858 213.952,564.137 214.114,561.416 214.281,558.696 214.455,555.975 214.634,553.254 214.819,550.533 215.01,547.812 215.208,545.091 215.412,542.37 215.624,539.649 215.842,536.928 216.068,534.207 216.301,531.486 216.542,528.765 216.79,526.045 217.048,523.324 217.313,520.603 217.588,517.882 217.871,515.161 218.164,512.44 218.467,509.719 218.779,506.998 219.102,504.277 219.436,501.556 219.78,498.835 220.136,496.114 220.503,493.393 220.883,490.673 221.274,487.952 221.679,485.231 222.097,482.51 222.528,479.789 222.974,477.068 223.434,474.347 223.908,471.626 224.399,468.905 224.905,466.184 225.427,463.463 225.967,460.742 226.524,458.021 227.098,455.301 227.691,452.58 228.304,449.859 228.936,447.138 229.588,444.417 230.261,441.696 230.956,438.975 231.672,436.254 232.412,433.533 233.175,430.812 233.963,428.091 234.775,425.37 235.613,422.65 236.478,419.929 237.37,417.208 238.29,414.487 239.239,411.766 240.218,409.045 241.228,406.324 242.269,403.603 243.343,400.882 244.451,398.161 245.593,395.44 246.77,392.719 247.985,389.998 249.237,387.278 250.527,384.557 251.858,381.836 253.23,379.115 254.644,376.394 256.102,373.673 257.604,370.952 259.152,368.231 260.748,365.51 262.393,362.789 264.088,360.068 265.834,357.347 267.633,354.627 269.487,351.906 271.397,349.185 273.365,346.464 275.392,343.743 277.48,341.022 279.63,338.301 281.845,335.58 284.126,332.859 286.476,330.138 288.895,327.417 291.386,324.696 293.951,321.975 296.592,319.255 299.31,316.534 302.109,313.813 304.99,311.092 307.956,308.371 311.008,305.65 314.15,302.929 317.383,300.208 320.71,297.487 324.133,294.766 327.656,292.045 331.28,289.324 335.009,286.603 338.845,283.883 342.79,281.162 346.849,278.441 351.024,275.72 355.317,272.999 359.733,270.278 364.273,267.557 368.942,264.836 373.743,262.115 378.678,259.394 383.753,256.673 388.969,253.952 394.331,251.232 399.843,248.511 405.507,245.79 411.329,243.069 417.312,240.348 423.46,237.627 429.778,234.906 436.268,232.185 442.937,229.464 449.788,226.743 456.825,224.022 464.054,221.301 471.479,218.58 479.105,215.86 486.936,213.139 494.979,210.418 503.237,207.697 511.716,204.976 520.422,202.255 529.36,199.534 538.535,196.813 547.954,194.092 557.622,191.371 567.544,188.65 577.728,185.929 588.178,183.209 598.903,180.488 609.907,177.767 621.197,175.046 632.781,172.325 644.665,169.604 656.855,166.883 669.36,164.162 682.186,161.441 695.34,158.72 708.831,155.999 722.666,153.278 736.853,150.557 751.399,147.837 766.314,145.116 781.604,142.395 797.28,139.674 813.349,136.953 829.82,134.232 846.702,131.511 864.004,128.79 881.736,126.069 899.908,123.348 918.528,120.627 937.607,117.906 957.154,115.185 977.181,112.465 997.697,109.744 1018.71,107.023 1040.24,104.302 1062.29,101.581 1084.87,98.86 1108,96.139 1131.68,93.4181 1155.94,90.6972 1180.77,87.9763 "/>
<polyline clip-path="url(#clip002)" style="stroke:#ac8d18; stroke-linecap:round; stroke-linejoin:round; stroke-width:8; stroke-opacity:1; fill:none" points="2290.34,1445.72 2223.55,1442.99 2158.78,1440.27 2095.97,1437.55 2035.06,1434.83 1976.01,1432.11 1918.76,1429.39 1863.26,1426.67 1809.47,1423.95 1757.32,1421.23 1706.79,1418.51 1657.81,1415.79 1610.35,1413.06 1564.36,1410.34 1519.8,1407.62 1476.63,1404.9 1434.81,1402.18 1394.3,1399.46 1355.06,1396.74 1317.06,1394.02 1280.25,1391.3 1244.61,1388.58 1210.1,1385.86 1176.68,1383.13 1144.33,1380.41 1113.01,1377.69 1082.69,1374.97 1053.34,1372.25 1024.93,1369.53 997.442,1366.81 970.838,1364.09 945.093,1361.37 920.183,1358.65 896.081,1355.93 872.764,1353.2 850.207,1350.48 828.387,1347.76 807.281,1345.04 786.869,1342.32 767.127,1339.6 748.036,1336.88 729.575,1334.16 711.726,1331.44 694.467,1328.72 677.783,1326 661.653,1323.27 646.062,1320.55 630.991,1317.83 616.425,1315.11 602.347,1312.39 588.743,1309.67 575.596,1306.95 562.893,1304.23 550.619,1301.51 538.76,1298.79 527.304,1296.07 516.237,1293.34 505.546,1290.62 495.219,1287.9 485.246,1285.18 475.613,1282.46 466.31,1279.74 457.326,1277.02 448.651,1274.3 440.274,1271.58 432.186,1268.86 424.377,1266.13 416.838,1263.41 409.559,1260.69 402.533,1257.97 395.751,1255.25 389.205,1252.53 382.886,1249.81 376.787,1247.09 370.901,1244.37 365.221,1241.65 359.739,1238.93 354.449,1236.2 349.344,1233.48 344.418,1230.76 339.665,1228.04 335.079,1225.32 330.655,1222.6 326.386,1219.88 322.267,1217.16 318.294,1214.44 314.461,1211.72 310.763,1209 307.196,1206.27 303.755,1203.55 300.436,1200.83 297.234,1198.11 294.146,1195.39 291.167,1192.67 288.293,1189.95 285.522,1187.23 282.849,1184.51 280.27,1181.79 277.783,1179.07 275.385,1176.34 273.071,1173.62 270.84,1170.9 268.688,1168.18 266.612,1165.46 264.611,1162.74 262.68,1160.02 260.817,1157.3 259.021,1154.58 257.289,1151.86 255.618,1149.14 254.006,1146.41 252.452,1143.69 250.952,1140.97 249.506,1138.25 248.111,1135.53 246.766,1132.81 245.468,1130.09 244.215,1127.37 243.008,1124.65 241.842,1121.93 240.718,1119.21 239.634,1116.48 238.588,1113.76 237.579,1111.04 236.605,1108.32 235.665,1105.6 234.759,1102.88 233.884,1100.16 233.04,1097.44 232.225,1094.72 231.439,1092 230.681,1089.28 229.949,1086.55 229.243,1083.83 228.561,1081.11 227.903,1078.39 227.267,1075.67 226.654,1072.95 226.062,1070.23 225.491,1067.51 224.939,1064.79 224.407,1062.07 223.893,1059.34 223.396,1056.62 222.917,1053.9 222.454,1051.18 222.007,1048.46 221.576,1045.74 221.159,1043.02 220.757,1040.3 220.368,1037.58 219.993,1034.86 219.63,1032.14 219.28,1029.41 218.941,1026.69 218.615,1023.97 218.299,1021.25 217.994,1018.53 217.699,1015.81 217.415,1013.09 217.14,1010.37 216.874,1007.65 216.617,1004.93 216.369,1002.21 216.13,999.485 215.898,996.764 215.674,994.043 215.458,991.322 215.249,988.601 215.047,985.88 214.852,983.159 214.664,980.438 214.481,977.717 214.305,974.996 214.135,972.275 213.971,969.555 213.812,966.834 213.658,964.113 213.51,961.392 213.367,958.671 213.228,955.95 213.094,953.229 212.965,950.508 212.84,947.787 212.719,945.066 212.602,942.345 212.49,939.624 212.381,936.904 212.276,934.183 212.174,931.462 212.076,928.741 211.981,926.02 211.89,923.299 211.801,920.578 211.716,917.857 211.634,915.136 211.554,912.415 211.477,909.694 211.403,906.973 211.332,904.252 211.263,901.532 211.197,898.811 211.132,896.09 211.071,893.369 211.011,890.648 210.954,887.927 210.898,885.206 210.845,882.485 210.794,879.764 210.744,877.043 210.697,874.322 210.651,871.601 210.607,868.881 210.565,866.16 210.524,863.439 210.485,860.718 210.448,857.997 210.412,855.276 210.377,852.555 210.344,849.834 210.313,847.113 210.282,844.392 210.253,841.671 210.226,838.95 210.2,836.229 210.175,833.509 210.151,830.788 210.128,828.067 210.107,825.346 210.086,822.625 210.067,819.904 210.049,817.183 210.032,814.462 210.016,811.741 210.001,809.02 209.987,806.299 209.974,803.578 209.962,800.857 209.951,798.137 209.941,795.416 209.932,792.695 209.924,789.974 209.917,787.253 209.91,784.532 209.905,781.811 209.9,779.09 209.897,776.369 209.894,773.648 209.892,770.927 209.891,768.206 209.891,765.486 209.892,762.765 209.894,760.044 209.897,757.323 209.9,754.602 209.905,751.881 209.91,749.16 209.917,746.439 209.924,743.718 209.932,740.997 209.941,738.276 209.951,735.555 209.962,732.834 209.974,730.114 209.987,727.393 210.001,724.672 210.016,721.951 210.032,719.23 210.049,716.509 210.067,713.788 210.086,711.067 210.107,708.346 210.128,705.625 210.151,702.904 210.175,700.183 210.2,697.463 210.226,694.742 210.253,692.021 210.282,689.3 210.313,686.579 210.344,683.858 210.377,681.137 210.412,678.416 210.448,675.695 210.485,672.974 210.524,670.253 210.565,667.532 210.607,664.811 210.651,662.091 210.697,659.37 210.744,656.649 210.794,653.928 210.845,651.207 210.898,648.486 210.954,645.765 211.011,643.044 211.071,640.323 211.132,637.602 211.197,634.881 211.263,632.16 211.332,629.439 211.403,626.719 211.477,623.998 211.554,621.277 211.634,618.556 211.716,615.835 211.801,613.114 211.89,610.393 211.981,607.672 212.076,604.951 212.174,602.23 212.276,599.509 212.381,596.788 212.49,594.068 212.602,591.347 212.719,588.626 212.84,585.905 212.965,583.184 213.094,580.463 213.228,577.742 213.367,575.021 213.51,572.3 213.658,569.579 213.812,566.858 213.971,564.137 214.135,561.416 214.305,558.696 214.481,555.975 214.664,553.254 214.852,550.533 215.047,547.812 215.249,545.091 215.458,542.37 215.674,539.649 215.898,536.928 216.13,534.207 216.369,531.486 216.617,528.765 216.874,526.045 217.14,523.324 217.415,520.603 217.699,517.882 217.994,515.161 218.299,512.44 218.615,509.719 218.941,506.998 219.28,504.277 219.63,501.556 219.993,498.835 220.368,496.114 220.757,493.393 221.159,490.673 221.576,487.952 222.007,485.231 222.454,482.51 222.917,479.789 223.396,477.068 223.893,474.347 224.407,471.626 224.939,468.905 225.491,466.184 226.062,463.463 226.654,460.742 227.267,458.021 227.903,455.301 228.561,452.58 229.243,449.859 229.949,447.138 230.681,444.417 231.439,441.696 232.225,438.975 233.04,436.254 233.884,433.533 234.759,430.812 235.665,428.091 236.605,425.37 237.579,422.65 238.588,419.929 239.634,417.208 240.718,414.487 241.842,411.766 243.008,409.045 244.215,406.324 245.468,403.603 246.766,400.882 248.111,398.161 249.506,395.44 250.952,392.719 252.452,389.998 254.006,387.278 255.618,384.557 257.289,381.836 259.021,379.115 260.817,376.394 262.68,373.673 264.611,370.952 266.612,368.231 268.688,365.51 270.84,362.789 273.071,360.068 275.385,357.347 277.783,354.627 280.27,351.906 282.849,349.185 285.522,346.464 288.293,343.743 291.167,341.022 294.146,338.301 297.234,335.58 300.436,332.859 303.755,330.138 307.196,327.417 310.763,324.696 314.461,321.975 318.294,319.255 322.267,316.534 326.386,313.813 330.655,311.092 335.079,308.371 339.665,305.65 344.418,302.929 349.344,300.208 354.449,297.487 359.739,294.766 365.221,292.045 370.901,289.324 376.787,286.603 382.886,283.883 389.205,281.162 395.751,278.441 402.533,275.72 409.559,272.999 416.838,270.278 424.377,267.557 432.186,264.836 440.274,262.115 448.651,259.394 457.326,256.673 466.31,253.952 475.613,251.232 485.246,248.511 495.219,245.79 505.546,243.069 516.237,240.348 527.304,237.627 538.76,234.906 550.619,232.185 562.893,229.464 575.596,226.743 588.743,224.022 602.347,221.301 616.425,218.58 630.991,215.86 646.062,213.139 661.653,210.418 677.783,207.697 694.467,204.976 711.726,202.255 729.575,199.534 748.036,196.813 767.127,194.092 786.869,191.371 807.281,188.65 828.387,185.929 850.207,183.209 872.764,180.488 896.081,177.767 920.183,175.046 945.093,172.325 970.838,169.604 997.442,166.883 1024.93,164.162 1053.34,161.441 1082.69,158.72 1113.01,155.999 1144.33,153.278 1176.68,150.557 1210.1,147.837 1244.61,145.116 1280.25,142.395 1317.06,139.674 1355.06,136.953 1394.3,134.232 1434.81,131.511 1476.63,128.79 1519.8,126.069 1564.36,123.348 1610.35,120.627 1657.81,117.906 1706.79,115.185 1757.32,112.465 1809.47,109.744 1863.26,107.023 1918.76,104.302 1976.01,101.581 2035.06,98.86 2095.97,96.139 2158.78,93.4181 2223.55,90.6972 2290.34,87.9763 "/>
<path clip-path="url(#clip000)" d="M1669.74 406.258 L2279.25 406.258 L2279.25 95.2176 L1669.74 95.2176  Z" fill="#ffffff" fill-rule="evenodd" fill-opacity="1"/>
<polyline clip-path="url(#clip000)" style="stroke:#000000; stroke-linecap:round; stroke-linejoin:round; stroke-width:4; stroke-opacity:1; fill:none" points="1669.74,406.258 2279.25,406.258 2279.25,95.2176 1669.74,95.2176 1669.74,406.258 "/>
<polyline clip-path="url(#clip000)" style="stroke:#009af9; stroke-linecap:round; stroke-linejoin:round; stroke-width:8; stroke-opacity:1; fill:none" points="1694.24,147.058 1841.26,147.058 "/>
<path clip-path="url(#clip000)" d="M1881.6 134.384 L1875.25 151.583 L1887.96 151.583 L1881.6 134.384 M1878.96 129.778 L1884.26 129.778 L1897.43 164.338 L1892.57 164.338 L1889.42 155.472 L1873.84 155.472 L1870.69 164.338 L1865.76 164.338 L1878.96 129.778 Z" fill="#000000" fill-rule="nonzero" fill-opacity="1" /><path clip-path="url(#clip000)" d="M1923.84 148.689 L1923.84 164.338 L1919.58 164.338 L1919.58 148.828 Q1919.58 145.148 1918.15 143.319 Q1916.71 141.49 1913.84 141.49 Q1910.39 141.49 1908.4 143.69 Q1906.41 145.889 1906.41 149.685 L1906.41 164.338 L1902.13 164.338 L1902.13 138.412 L1906.41 138.412 L1906.41 142.44 Q1907.94 140.102 1910 138.944 Q1912.08 137.787 1914.79 137.787 Q1919.26 137.787 1921.55 140.565 Q1923.84 143.319 1923.84 148.689 Z" fill="#000000" fill-rule="nonzero" fill-opacity="1" /><path clip-path="url(#clip000)" d="M1944.12 151.305 Q1938.96 151.305 1936.97 152.486 Q1934.98 153.666 1934.98 156.514 Q1934.98 158.782 1936.46 160.125 Q1937.96 161.444 1940.53 161.444 Q1944.07 161.444 1946.2 158.944 Q1948.36 156.421 1948.36 152.254 L1948.36 151.305 L1944.12 151.305 M1952.62 149.546 L1952.62 164.338 L1948.36 164.338 L1948.36 160.402 Q1946.9 162.763 1944.72 163.898 Q1942.55 165.009 1939.4 165.009 Q1935.42 165.009 1933.06 162.787 Q1930.72 160.541 1930.72 156.791 Q1930.72 152.416 1933.63 150.194 Q1936.57 147.972 1942.38 147.972 L1948.36 147.972 L1948.36 147.555 Q1948.36 144.615 1946.41 143.018 Q1944.49 141.398 1941 141.398 Q1938.77 141.398 1936.67 141.93 Q1934.56 142.463 1932.62 143.527 L1932.62 139.592 Q1934.95 138.69 1937.15 138.25 Q1939.35 137.787 1941.44 137.787 Q1947.06 137.787 1949.84 140.703 Q1952.62 143.62 1952.62 149.546 Z" fill="#000000" fill-rule="nonzero" fill-opacity="1" /><path clip-path="url(#clip000)" d="M1961.39 128.319 L1965.65 128.319 L1965.65 164.338 L1961.39 164.338 L1961.39 128.319 Z" fill="#000000" fill-rule="nonzero" fill-opacity="1" /><path clip-path="url(#clip000)" d="M1974.56 138.412 L1978.82 138.412 L1978.82 164.338 L1974.56 164.338 L1974.56 138.412 M1974.56 128.319 L1978.82 128.319 L1978.82 133.713 L1974.56 133.713 L1974.56 128.319 Z" fill="#000000" fill-rule="nonzero" fill-opacity="1" /><path clip-path="url(#clip000)" d="M1991.94 131.051 L1991.94 138.412 L2000.72 138.412 L2000.72 141.722 L1991.94 141.722 L1991.94 155.796 Q1991.94 158.967 1992.8 159.87 Q1993.68 160.773 1996.34 160.773 L2000.72 160.773 L2000.72 164.338 L1996.34 164.338 Q1991.41 164.338 1989.54 162.509 Q1987.66 160.657 1987.66 155.796 L1987.66 141.722 L1984.54 141.722 L1984.54 138.412 L1987.66 138.412 L1987.66 131.051 L1991.94 131.051 Z" fill="#000000" fill-rule="nonzero" fill-opacity="1" /><path clip-path="url(#clip000)" d="M2017.11 166.745 Q2015.3 171.375 2013.59 172.787 Q2011.87 174.199 2009 174.199 L2005.6 174.199 L2005.6 170.634 L2008.1 170.634 Q2009.86 170.634 2010.83 169.8 Q2011.81 168.967 2012.99 165.865 L2013.75 163.921 L2003.26 138.412 L2007.78 138.412 L2015.88 158.689 L2023.98 138.412 L2028.49 138.412 L2017.11 166.745 Z" fill="#000000" fill-rule="nonzero" fill-opacity="1" /><path clip-path="url(#clip000)" d="M2053.03 139.407 L2053.03 143.389 Q2051.23 142.393 2049.4 141.907 Q2047.59 141.398 2045.74 141.398 Q2041.6 141.398 2039.3 144.037 Q2037.01 146.652 2037.01 151.398 Q2037.01 156.143 2039.3 158.782 Q2041.6 161.398 2045.74 161.398 Q2047.59 161.398 2049.4 160.912 Q2051.23 160.402 2053.03 159.407 L2053.03 163.342 Q2051.25 164.176 2049.33 164.592 Q2047.43 165.009 2045.28 165.009 Q2039.42 165.009 2035.97 161.328 Q2032.52 157.648 2032.52 151.398 Q2032.52 145.055 2035.99 141.421 Q2039.49 137.787 2045.55 137.787 Q2047.52 137.787 2049.4 138.203 Q2051.27 138.597 2053.03 139.407 Z" fill="#000000" fill-rule="nonzero" fill-opacity="1" /><path clip-path="url(#clip000)" d="M2092.04 139.176 L2092.04 143.203 Q2090.23 142.277 2088.29 141.815 Q2086.34 141.352 2084.26 141.352 Q2081.09 141.352 2079.49 142.324 Q2077.92 143.296 2077.92 145.24 Q2077.92 146.722 2079.05 147.578 Q2080.18 148.412 2083.61 149.176 L2085.07 149.5 Q2089.61 150.472 2091.5 152.254 Q2093.42 154.014 2093.42 157.185 Q2093.42 160.796 2090.55 162.902 Q2087.71 165.009 2082.71 165.009 Q2080.62 165.009 2078.36 164.592 Q2076.11 164.199 2073.61 163.388 L2073.61 158.99 Q2075.97 160.217 2078.26 160.842 Q2080.55 161.444 2082.8 161.444 Q2085.81 161.444 2087.43 160.426 Q2089.05 159.384 2089.05 157.509 Q2089.05 155.773 2087.87 154.847 Q2086.71 153.921 2082.75 153.064 L2081.27 152.717 Q2077.31 151.884 2075.55 150.171 Q2073.8 148.435 2073.8 145.426 Q2073.8 141.768 2076.39 139.778 Q2078.98 137.787 2083.75 137.787 Q2086.11 137.787 2088.19 138.134 Q2090.28 138.481 2092.04 139.176 Z" fill="#000000" fill-rule="nonzero" fill-opacity="1" /><path clip-path="url(#clip000)" d="M2110.25 141.398 Q2106.83 141.398 2104.84 144.083 Q2102.85 146.745 2102.85 151.398 Q2102.85 156.051 2104.81 158.736 Q2106.8 161.398 2110.25 161.398 Q2113.66 161.398 2115.65 158.713 Q2117.64 156.027 2117.64 151.398 Q2117.64 146.791 2115.65 144.106 Q2113.66 141.398 2110.25 141.398 M2110.25 137.787 Q2115.81 137.787 2118.98 141.398 Q2122.15 145.009 2122.15 151.398 Q2122.15 157.764 2118.98 161.398 Q2115.81 165.009 2110.25 165.009 Q2104.67 165.009 2101.5 161.398 Q2098.36 157.764 2098.36 151.398 Q2098.36 145.009 2101.5 141.398 Q2104.67 137.787 2110.25 137.787 Z" fill="#000000" fill-rule="nonzero" fill-opacity="1" /><path clip-path="url(#clip000)" d="M2129.21 128.319 L2133.47 128.319 L2133.47 164.338 L2129.21 164.338 L2129.21 128.319 Z" fill="#000000" fill-rule="nonzero" fill-opacity="1" /><path clip-path="url(#clip000)" d="M2141.94 154.106 L2141.94 138.412 L2146.2 138.412 L2146.2 153.944 Q2146.2 157.625 2147.64 159.476 Q2149.07 161.305 2151.94 161.305 Q2155.39 161.305 2157.38 159.106 Q2159.4 156.907 2159.4 153.111 L2159.4 138.412 L2163.66 138.412 L2163.66 164.338 L2159.4 164.338 L2159.4 160.356 Q2157.85 162.717 2155.79 163.875 Q2153.75 165.009 2151.04 165.009 Q2146.57 165.009 2144.26 162.231 Q2141.94 159.453 2141.94 154.106 M2152.66 137.787 L2152.66 137.787 Z" fill="#000000" fill-rule="nonzero" fill-opacity="1" /><path clip-path="url(#clip000)" d="M2176.64 131.051 L2176.64 138.412 L2185.42 138.412 L2185.42 141.722 L2176.64 141.722 L2176.64 155.796 Q2176.64 158.967 2177.5 159.87 Q2178.38 160.773 2181.04 160.773 L2185.42 160.773 L2185.42 164.338 L2181.04 164.338 Q2176.11 164.338 2174.23 162.509 Q2172.36 160.657 2172.36 155.796 L2172.36 141.722 L2169.23 141.722 L2169.23 138.412 L2172.36 138.412 L2172.36 131.051 L2176.64 131.051 Z" fill="#000000" fill-rule="nonzero" fill-opacity="1" /><path clip-path="url(#clip000)" d="M2191.02 138.412 L2195.28 138.412 L2195.28 164.338 L2191.02 164.338 L2191.02 138.412 M2191.02 128.319 L2195.28 128.319 L2195.28 133.713 L2191.02 133.713 L2191.02 128.319 Z" fill="#000000" fill-rule="nonzero" fill-opacity="1" /><path clip-path="url(#clip000)" d="M2214.23 141.398 Q2210.81 141.398 2208.82 144.083 Q2206.83 146.745 2206.83 151.398 Q2206.83 156.051 2208.79 158.736 Q2210.79 161.398 2214.23 161.398 Q2217.64 161.398 2219.63 158.713 Q2221.62 156.027 2221.62 151.398 Q2221.62 146.791 2219.63 144.106 Q2217.64 141.398 2214.23 141.398 M2214.23 137.787 Q2219.79 137.787 2222.96 141.398 Q2226.13 145.009 2226.13 151.398 Q2226.13 157.764 2222.96 161.398 Q2219.79 165.009 2214.23 165.009 Q2208.66 165.009 2205.48 161.398 Q2202.34 157.764 2202.34 151.398 Q2202.34 145.009 2205.48 141.398 Q2208.66 137.787 2214.23 137.787 Z" fill="#000000" fill-rule="nonzero" fill-opacity="1" /><path clip-path="url(#clip000)" d="M2254.74 148.689 L2254.74 164.338 L2250.48 164.338 L2250.48 148.828 Q2250.48 145.148 2249.05 143.319 Q2247.61 141.49 2244.74 141.49 Q2241.29 141.49 2239.3 143.69 Q2237.31 145.889 2237.31 149.685 L2237.31 164.338 L2233.03 164.338 L2233.03 138.412 L2237.31 138.412 L2237.31 142.44 Q2238.84 140.102 2240.9 138.944 Q2242.98 137.787 2245.69 137.787 Q2250.16 137.787 2252.45 140.565 Q2254.74 143.319 2254.74 148.689 Z" fill="#000000" fill-rule="nonzero" fill-opacity="1" /><polyline clip-path="url(#clip000)" style="stroke:#e26f46; stroke-linecap:round; stroke-linejoin:round; stroke-width:8; stroke-opacity:1; fill:none" points="1694.24,198.898 1841.26,198.898 "/>
<path clip-path="url(#clip000)" d="M1870.44 185.46 L1870.44 198.446 L1876.32 198.446 Q1879.58 198.446 1881.37 196.756 Q1883.15 195.067 1883.15 191.942 Q1883.15 188.84 1881.37 187.15 Q1879.58 185.46 1876.32 185.46 L1870.44 185.46 M1865.76 181.618 L1876.32 181.618 Q1882.13 181.618 1885.09 184.256 Q1888.08 186.872 1888.08 191.942 Q1888.08 197.057 1885.09 199.673 Q1882.13 202.289 1876.32 202.289 L1870.44 202.289 L1870.44 216.178 L1865.76 216.178 L1865.76 181.618 Z" fill="#000000" fill-rule="nonzero" fill-opacity="1" /><path clip-path="url(#clip000)" d="M1893.13 190.252 L1897.38 190.252 L1897.38 216.178 L1893.13 216.178 L1893.13 190.252 M1893.13 180.159 L1897.38 180.159 L1897.38 185.553 L1893.13 185.553 L1893.13 180.159 Z" fill="#000000" fill-rule="nonzero" fill-opacity="1" /><path clip-path="url(#clip000)" d="M1924.95 191.247 L1924.95 195.229 Q1923.15 194.233 1921.32 193.747 Q1919.51 193.238 1917.66 193.238 Q1913.52 193.238 1911.23 195.877 Q1908.94 198.492 1908.94 203.238 Q1908.94 207.983 1911.23 210.622 Q1913.52 213.238 1917.66 213.238 Q1919.51 213.238 1921.32 212.752 Q1923.15 212.242 1924.95 211.247 L1924.95 215.182 Q1923.17 216.016 1921.25 216.432 Q1919.35 216.849 1917.2 216.849 Q1911.34 216.849 1907.89 213.168 Q1904.44 209.488 1904.44 203.238 Q1904.44 196.895 1907.92 193.261 Q1911.41 189.627 1917.48 189.627 Q1919.44 189.627 1921.32 190.043 Q1923.19 190.437 1924.95 191.247 Z" fill="#000000" fill-rule="nonzero" fill-opacity="1" /><path clip-path="url(#clip000)" d="M1944.14 203.145 Q1938.98 203.145 1936.99 204.326 Q1935 205.506 1935 208.354 Q1935 210.622 1936.48 211.965 Q1937.99 213.284 1940.56 213.284 Q1944.1 213.284 1946.23 210.784 Q1948.38 208.261 1948.38 204.094 L1948.38 203.145 L1944.14 203.145 M1952.64 201.386 L1952.64 216.178 L1948.38 216.178 L1948.38 212.242 Q1946.92 214.603 1944.75 215.738 Q1942.57 216.849 1939.42 216.849 Q1935.44 216.849 1933.08 214.627 Q1930.74 212.381 1930.74 208.631 Q1930.74 204.256 1933.66 202.034 Q1936.6 199.812 1942.41 199.812 L1948.38 199.812 L1948.38 199.395 Q1948.38 196.455 1946.44 194.858 Q1944.51 193.238 1941.02 193.238 Q1938.8 193.238 1936.69 193.77 Q1934.58 194.303 1932.64 195.367 L1932.64 191.432 Q1934.98 190.53 1937.18 190.09 Q1939.37 189.627 1941.46 189.627 Q1947.08 189.627 1949.86 192.543 Q1952.64 195.46 1952.64 201.386 Z" fill="#000000" fill-rule="nonzero" fill-opacity="1" /><path clip-path="url(#clip000)" d="M1976.43 194.233 Q1975.72 193.817 1974.86 193.631 Q1974.03 193.423 1973.01 193.423 Q1969.4 193.423 1967.45 195.784 Q1965.53 198.122 1965.53 202.52 L1965.53 216.178 L1961.25 216.178 L1961.25 190.252 L1965.53 190.252 L1965.53 194.28 Q1966.87 191.918 1969.03 190.784 Q1971.18 189.627 1974.26 189.627 Q1974.7 189.627 1975.23 189.696 Q1975.76 189.743 1976.41 189.858 L1976.43 194.233 Z" fill="#000000" fill-rule="nonzero" fill-opacity="1" /><path clip-path="url(#clip000)" d="M2000.6 224.048 L2000.6 227.358 L1975.97 227.358 L1975.97 224.048 L2000.6 224.048 Z" fill="#000000" fill-rule="nonzero" fill-opacity="1" /><path clip-path="url(#clip000)" d="M2006.02 212.242 L2013.66 212.242 L2013.66 185.877 L2005.35 187.543 L2005.35 183.284 L2013.61 181.618 L2018.29 181.618 L2018.29 212.242 L2025.93 212.242 L2025.93 216.178 L2006.02 216.178 L2006.02 212.242 Z" fill="#000000" fill-rule="nonzero" fill-opacity="1" /><polyline clip-path="url(#clip000)" style="stroke:#3da44d; stroke-linecap:round; stroke-linejoin:round; stroke-width:8; stroke-opacity:1; fill:none" points="1694.24,250.738 1841.26,250.738 "/>
<path clip-path="url(#clip000)" d="M1870.44 237.3 L1870.44 250.286 L1876.32 250.286 Q1879.58 250.286 1881.37 248.596 Q1883.15 246.907 1883.15 243.782 Q1883.15 240.68 1881.37 238.99 Q1879.58 237.3 1876.32 237.3 L1870.44 237.3 M1865.76 233.458 L1876.32 233.458 Q1882.13 233.458 1885.09 236.096 Q1888.08 238.712 1888.08 243.782 Q1888.08 248.897 1885.09 251.513 Q1882.13 254.129 1876.32 254.129 L1870.44 254.129 L1870.44 268.018 L1865.76 268.018 L1865.76 233.458 Z" fill="#000000" fill-rule="nonzero" fill-opacity="1" /><path clip-path="url(#clip000)" d="M1893.13 242.092 L1897.38 242.092 L1897.38 268.018 L1893.13 268.018 L1893.13 242.092 M1893.13 231.999 L1897.38 231.999 L1897.38 237.393 L1893.13 237.393 L1893.13 231.999 Z" fill="#000000" fill-rule="nonzero" fill-opacity="1" /><path clip-path="url(#clip000)" d="M1924.95 243.087 L1924.95 247.069 Q1923.15 246.073 1921.32 245.587 Q1919.51 245.078 1917.66 245.078 Q1913.52 245.078 1911.23 247.717 Q1908.94 250.332 1908.94 255.078 Q1908.94 259.823 1911.23 262.462 Q1913.52 265.078 1917.66 265.078 Q1919.51 265.078 1921.32 264.592 Q1923.15 264.082 1924.95 263.087 L1924.95 267.022 Q1923.17 267.856 1921.25 268.272 Q1919.35 268.689 1917.2 268.689 Q1911.34 268.689 1907.89 265.008 Q1904.44 261.328 1904.44 255.078 Q1904.44 248.735 1907.92 245.101 Q1911.41 241.467 1917.48 241.467 Q1919.44 241.467 1921.32 241.883 Q1923.19 242.277 1924.95 243.087 Z" fill="#000000" fill-rule="nonzero" fill-opacity="1" /><path clip-path="url(#clip000)" d="M1944.14 254.985 Q1938.98 254.985 1936.99 256.166 Q1935 257.346 1935 260.194 Q1935 262.462 1936.48 263.805 Q1937.99 265.124 1940.56 265.124 Q1944.1 265.124 1946.23 262.624 Q1948.38 260.101 1948.38 255.934 L1948.38 254.985 L1944.14 254.985 M1952.64 253.226 L1952.64 268.018 L1948.38 268.018 L1948.38 264.082 Q1946.92 266.443 1944.75 267.578 Q1942.57 268.689 1939.42 268.689 Q1935.44 268.689 1933.08 266.467 Q1930.74 264.221 1930.74 260.471 Q1930.74 256.096 1933.66 253.874 Q1936.6 251.652 1942.41 251.652 L1948.38 251.652 L1948.38 251.235 Q1948.38 248.295 1946.44 246.698 Q1944.51 245.078 1941.02 245.078 Q1938.8 245.078 1936.69 245.61 Q1934.58 246.143 1932.64 247.207 L1932.64 243.272 Q1934.98 242.37 1937.18 241.93 Q1939.37 241.467 1941.46 241.467 Q1947.08 241.467 1949.86 244.383 Q1952.64 247.3 1952.64 253.226 Z" fill="#000000" fill-rule="nonzero" fill-opacity="1" /><path clip-path="url(#clip000)" d="M1976.43 246.073 Q1975.72 245.657 1974.86 245.471 Q1974.03 245.263 1973.01 245.263 Q1969.4 245.263 1967.45 247.624 Q1965.53 249.962 1965.53 254.36 L1965.53 268.018 L1961.25 268.018 L1961.25 242.092 L1965.53 242.092 L1965.53 246.12 Q1966.87 243.758 1969.03 242.624 Q1971.18 241.467 1974.26 241.467 Q1974.7 241.467 1975.23 241.536 Q1975.76 241.583 1976.41 241.698 L1976.43 246.073 Z" fill="#000000" fill-rule="nonzero" fill-opacity="1" /><path clip-path="url(#clip000)" d="M2000.6 275.888 L2000.6 279.198 L1975.97 279.198 L1975.97 275.888 L2000.6 275.888 Z" fill="#000000" fill-rule="nonzero" fill-opacity="1" /><path clip-path="url(#clip000)" d="M2009.24 264.082 L2025.55 264.082 L2025.55 268.018 L2003.61 268.018 L2003.61 264.082 Q2006.27 261.328 2010.86 256.698 Q2015.46 252.045 2016.64 250.703 Q2018.89 248.18 2019.77 246.444 Q2020.67 244.684 2020.67 242.995 Q2020.67 240.24 2018.73 238.504 Q2016.81 236.768 2013.7 236.768 Q2011.5 236.768 2009.05 237.532 Q2006.62 238.295 2003.84 239.846 L2003.84 235.124 Q2006.67 233.99 2009.12 233.411 Q2011.57 232.833 2013.61 232.833 Q2018.98 232.833 2022.18 235.518 Q2025.37 238.203 2025.37 242.694 Q2025.37 244.823 2024.56 246.745 Q2023.77 248.643 2021.67 251.235 Q2021.09 251.907 2017.99 255.124 Q2014.88 258.319 2009.24 264.082 Z" fill="#000000" fill-rule="nonzero" fill-opacity="1" /><polyline clip-path="url(#clip000)" style="stroke:#c271d2; stroke-linecap:round; stroke-linejoin:round; stroke-width:8; stroke-opacity:1; fill:none" points="1694.24,302.578 1841.26,302.578 "/>
<path clip-path="url(#clip000)" d="M1870.44 289.14 L1870.44 302.126 L1876.32 302.126 Q1879.58 302.126 1881.37 300.436 Q1883.15 298.747 1883.15 295.622 Q1883.15 292.52 1881.37 290.83 Q1879.58 289.14 1876.32 289.14 L1870.44 289.14 M1865.76 285.298 L1876.32 285.298 Q1882.13 285.298 1885.09 287.936 Q1888.08 290.552 1888.08 295.622 Q1888.08 300.737 1885.09 303.353 Q1882.13 305.969 1876.32 305.969 L1870.44 305.969 L1870.44 319.858 L1865.76 319.858 L1865.76 285.298 Z" fill="#000000" fill-rule="nonzero" fill-opacity="1" /><path clip-path="url(#clip000)" d="M1893.13 293.932 L1897.38 293.932 L1897.38 319.858 L1893.13 319.858 L1893.13 293.932 M1893.13 283.839 L1897.38 283.839 L1897.38 289.233 L1893.13 289.233 L1893.13 283.839 Z" fill="#000000" fill-rule="nonzero" fill-opacity="1" /><path clip-path="url(#clip000)" d="M1924.95 294.927 L1924.95 298.909 Q1923.15 297.913 1921.32 297.427 Q1919.51 296.918 1917.66 296.918 Q1913.52 296.918 1911.23 299.557 Q1908.94 302.172 1908.94 306.918 Q1908.94 311.663 1911.23 314.302 Q1913.52 316.918 1917.66 316.918 Q1919.51 316.918 1921.32 316.432 Q1923.15 315.922 1924.95 314.927 L1924.95 318.862 Q1923.17 319.696 1921.25 320.112 Q1919.35 320.529 1917.2 320.529 Q1911.34 320.529 1907.89 316.848 Q1904.44 313.168 1904.44 306.918 Q1904.44 300.575 1907.92 296.941 Q1911.41 293.307 1917.48 293.307 Q1919.44 293.307 1921.32 293.723 Q1923.19 294.117 1924.95 294.927 Z" fill="#000000" fill-rule="nonzero" fill-opacity="1" /><path clip-path="url(#clip000)" d="M1944.14 306.825 Q1938.98 306.825 1936.99 308.006 Q1935 309.186 1935 312.034 Q1935 314.302 1936.48 315.645 Q1937.99 316.964 1940.56 316.964 Q1944.1 316.964 1946.23 314.464 Q1948.38 311.941 1948.38 307.774 L1948.38 306.825 L1944.14 306.825 M1952.64 305.066 L1952.64 319.858 L1948.38 319.858 L1948.38 315.922 Q1946.92 318.283 1944.75 319.418 Q1942.57 320.529 1939.42 320.529 Q1935.44 320.529 1933.08 318.307 Q1930.74 316.061 1930.74 312.311 Q1930.74 307.936 1933.66 305.714 Q1936.6 303.492 1942.41 303.492 L1948.38 303.492 L1948.38 303.075 Q1948.38 300.135 1946.44 298.538 Q1944.51 296.918 1941.02 296.918 Q1938.8 296.918 1936.69 297.45 Q1934.58 297.983 1932.64 299.047 L1932.64 295.112 Q1934.98 294.21 1937.18 293.77 Q1939.37 293.307 1941.46 293.307 Q1947.08 293.307 1949.86 296.223 Q1952.64 299.14 1952.64 305.066 Z" fill="#000000" fill-rule="nonzero" fill-opacity="1" /><path clip-path="url(#clip000)" d="M1976.43 297.913 Q1975.72 297.497 1974.86 297.311 Q1974.03 297.103 1973.01 297.103 Q1969.4 297.103 1967.45 299.464 Q1965.53 301.802 1965.53 306.2 L1965.53 319.858 L1961.25 319.858 L1961.25 293.932 L1965.53 293.932 L1965.53 297.96 Q1966.87 295.598 1969.03 294.464 Q1971.18 293.307 1974.26 293.307 Q1974.7 293.307 1975.23 293.376 Q1975.76 293.423 1976.41 293.538 L1976.43 297.913 Z" fill="#000000" fill-rule="nonzero" fill-opacity="1" /><path clip-path="url(#clip000)" d="M2000.6 327.728 L2000.6 331.038 L1975.97 331.038 L1975.97 327.728 L2000.6 327.728 Z" fill="#000000" fill-rule="nonzero" fill-opacity="1" /><path clip-path="url(#clip000)" d="M2019.37 301.223 Q2022.73 301.941 2024.61 304.209 Q2026.5 306.478 2026.5 309.811 Q2026.5 314.927 2022.99 317.728 Q2019.47 320.529 2012.99 320.529 Q2010.81 320.529 2008.49 320.089 Q2006.2 319.672 2003.75 318.816 L2003.75 314.302 Q2005.69 315.436 2008.01 316.015 Q2010.32 316.594 2012.85 316.594 Q2017.24 316.594 2019.54 314.858 Q2021.85 313.121 2021.85 309.811 Q2021.85 306.756 2019.7 305.043 Q2017.57 303.307 2013.75 303.307 L2009.72 303.307 L2009.72 299.464 L2013.93 299.464 Q2017.38 299.464 2019.21 298.098 Q2021.04 296.71 2021.04 294.117 Q2021.04 291.455 2019.14 290.043 Q2017.27 288.608 2013.75 288.608 Q2011.83 288.608 2009.63 289.024 Q2007.43 289.441 2004.79 290.321 L2004.79 286.154 Q2007.45 285.413 2009.77 285.043 Q2012.11 284.673 2014.17 284.673 Q2019.49 284.673 2022.59 287.103 Q2025.69 289.51 2025.69 293.631 Q2025.69 296.501 2024.05 298.492 Q2022.41 300.46 2019.37 301.223 Z" fill="#000000" fill-rule="nonzero" fill-opacity="1" /><polyline clip-path="url(#clip000)" style="stroke:#ac8d18; stroke-linecap:round; stroke-linejoin:round; stroke-width:8; stroke-opacity:1; fill:none" points="1694.24,354.418 1841.26,354.418 "/>
<path clip-path="url(#clip000)" d="M1870.44 340.98 L1870.44 353.966 L1876.32 353.966 Q1879.58 353.966 1881.37 352.276 Q1883.15 350.587 1883.15 347.462 Q1883.15 344.36 1881.37 342.67 Q1879.58 340.98 1876.32 340.98 L1870.44 340.98 M1865.76 337.138 L1876.32 337.138 Q1882.13 337.138 1885.09 339.776 Q1888.08 342.392 1888.08 347.462 Q1888.08 352.577 1885.09 355.193 Q1882.13 357.809 1876.32 357.809 L1870.44 357.809 L1870.44 371.698 L1865.76 371.698 L1865.76 337.138 Z" fill="#000000" fill-rule="nonzero" fill-opacity="1" /><path clip-path="url(#clip000)" d="M1893.13 345.772 L1897.38 345.772 L1897.38 371.698 L1893.13 371.698 L1893.13 345.772 M1893.13 335.679 L1897.38 335.679 L1897.38 341.073 L1893.13 341.073 L1893.13 335.679 Z" fill="#000000" fill-rule="nonzero" fill-opacity="1" /><path clip-path="url(#clip000)" d="M1924.95 346.767 L1924.95 350.749 Q1923.15 349.753 1921.32 349.267 Q1919.51 348.758 1917.66 348.758 Q1913.52 348.758 1911.23 351.397 Q1908.94 354.012 1908.94 358.758 Q1908.94 363.503 1911.23 366.142 Q1913.52 368.758 1917.66 368.758 Q1919.51 368.758 1921.32 368.272 Q1923.15 367.762 1924.95 366.767 L1924.95 370.702 Q1923.17 371.536 1921.25 371.952 Q1919.35 372.369 1917.2 372.369 Q1911.34 372.369 1907.89 368.688 Q1904.44 365.008 1904.44 358.758 Q1904.44 352.415 1907.92 348.781 Q1911.41 345.147 1917.48 345.147 Q1919.44 345.147 1921.32 345.563 Q1923.19 345.957 1924.95 346.767 Z" fill="#000000" fill-rule="nonzero" fill-opacity="1" /><path clip-path="url(#clip000)" d="M1944.14 358.665 Q1938.98 358.665 1936.99 359.846 Q1935 361.026 1935 363.874 Q1935 366.142 1936.48 367.485 Q1937.99 368.804 1940.56 368.804 Q1944.1 368.804 1946.23 366.304 Q1948.38 363.781 1948.38 359.614 L1948.38 358.665 L1944.14 358.665 M1952.64 356.906 L1952.64 371.698 L1948.38 371.698 L1948.38 367.762 Q1946.92 370.123 1944.75 371.258 Q1942.57 372.369 1939.42 372.369 Q1935.44 372.369 1933.08 370.147 Q1930.74 367.901 1930.74 364.151 Q1930.74 359.776 1933.66 357.554 Q1936.6 355.332 1942.41 355.332 L1948.38 355.332 L1948.38 354.915 Q1948.38 351.975 1946.44 350.378 Q1944.51 348.758 1941.02 348.758 Q1938.8 348.758 1936.69 349.29 Q1934.58 349.823 1932.64 350.887 L1932.64 346.952 Q1934.98 346.05 1937.18 345.61 Q1939.37 345.147 1941.46 345.147 Q1947.08 345.147 1949.86 348.063 Q1952.64 350.98 1952.64 356.906 Z" fill="#000000" fill-rule="nonzero" fill-opacity="1" /><path clip-path="url(#clip000)" d="M1976.43 349.753 Q1975.72 349.337 1974.86 349.151 Q1974.03 348.943 1973.01 348.943 Q1969.4 348.943 1967.45 351.304 Q1965.53 353.642 1965.53 358.04 L1965.53 371.698 L1961.25 371.698 L1961.25 345.772 L1965.53 345.772 L1965.53 349.8 Q1966.87 347.438 1969.03 346.304 Q1971.18 345.147 1974.26 345.147 Q1974.7 345.147 1975.23 345.216 Q1975.76 345.263 1976.41 345.378 L1976.43 349.753 Z" fill="#000000" fill-rule="nonzero" fill-opacity="1" /><path clip-path="url(#clip000)" d="M2000.6 379.568 L2000.6 382.878 L1975.97 382.878 L1975.97 379.568 L2000.6 379.568 Z" fill="#000000" fill-rule="nonzero" fill-opacity="1" /><path clip-path="url(#clip000)" d="M2018.06 341.212 L2006.25 359.661 L2018.06 359.661 L2018.06 341.212 M2016.83 337.138 L2022.71 337.138 L2022.71 359.661 L2027.64 359.661 L2027.64 363.549 L2022.71 363.549 L2022.71 371.698 L2018.06 371.698 L2018.06 363.549 L2002.45 363.549 L2002.45 359.036 L2016.83 337.138 Z" fill="#000000" fill-rule="nonzero" fill-opacity="1" /></svg>
