<?xml version="1.0" encoding="utf-8"?>
<svg xmlns="http://www.w3.org/2000/svg" xmlns:xlink="http://www.w3.org/1999/xlink" width="600" height="400" viewBox="0 0 2400 1600">
<defs>
  <clipPath id="clip780">
    <rect x="0" y="0" width="2400" height="1600"/>
  </clipPath>
</defs>
<path clip-path="url(#clip780)" d="M0 1600 L2400 1600 L2400 0 L0 0  Z" fill="#ffffff" fill-rule="evenodd" fill-opacity="1"/>
<defs>
  <clipPath id="clip781">
    <rect x="480" y="0" width="1681" height="1600"/>
  </clipPath>
</defs>
<path clip-path="url(#clip780)" d="M193.936 1486.45 L2352.76 1486.45 L2352.76 47.2441 L193.936 47.2441  Z" fill="#ffffff" fill-rule="evenodd" fill-opacity="1"/>
<defs>
  <clipPath id="clip782">
    <rect x="193" y="47" width="2160" height="1440"/>
  </clipPath>
</defs>
<polyline clip-path="url(#clip782)" style="stroke:#000000; stroke-linecap:round; stroke-linejoin:round; stroke-width:2; stroke-opacity:0.1; fill:none" points="255.035,1486.45 255.035,47.2441 "/>
<polyline clip-path="url(#clip782)" style="stroke:#000000; stroke-linecap:round; stroke-linejoin:round; stroke-width:2; stroke-opacity:0.1; fill:none" points="766.749,1486.45 766.749,47.2441 "/>
<polyline clip-path="url(#clip782)" style="stroke:#000000; stroke-linecap:round; stroke-linejoin:round; stroke-width:2; stroke-opacity:0.1; fill:none" points="1278.46,1486.45 1278.46,47.2441 "/>
<polyline clip-path="url(#clip782)" style="stroke:#000000; stroke-linecap:round; stroke-linejoin:round; stroke-width:2; stroke-opacity:0.1; fill:none" points="1790.18,1486.45 1790.18,47.2441 "/>
<polyline clip-path="url(#clip782)" style="stroke:#000000; stroke-linecap:round; stroke-linejoin:round; stroke-width:2; stroke-opacity:0.1; fill:none" points="2301.89,1486.45 2301.89,47.2441 "/>
<polyline clip-path="url(#clip782)" style="stroke:#000000; stroke-linecap:round; stroke-linejoin:round; stroke-width:2; stroke-opacity:0.1; fill:none" points="193.936,1445.72 2352.76,1445.72 "/>
<polyline clip-path="url(#clip782)" style="stroke:#000000; stroke-linecap:round; stroke-linejoin:round; stroke-width:2; stroke-opacity:0.1; fill:none" points="193.936,1106.28 2352.76,1106.28 "/>
<polyline clip-path="url(#clip782)" style="stroke:#000000; stroke-linecap:round; stroke-linejoin:round; stroke-width:2; stroke-opacity:0.1; fill:none" points="193.936,766.848 2352.76,766.848 "/>
<polyline clip-path="url(#clip782)" style="stroke:#000000; stroke-linecap:round; stroke-linejoin:round; stroke-width:2; stroke-opacity:0.1; fill:none" points="193.936,427.412 2352.76,427.412 "/>
<polyline clip-path="url(#clip782)" style="stroke:#000000; stroke-linecap:round; stroke-linejoin:round; stroke-width:2; stroke-opacity:0.1; fill:none" points="193.936,87.9763 2352.76,87.9763 "/>
<polyline clip-path="url(#clip780)" style="stroke:#000000; stroke-linecap:round; stroke-linejoin:round; stroke-width:4; stroke-opacity:1; fill:none" points="193.936,1486.45 2352.76,1486.45 "/>
<polyline clip-path="url(#clip780)" style="stroke:#000000; stroke-linecap:round; stroke-linejoin:round; stroke-width:4; stroke-opacity:1; fill:none" points="255.035,1486.45 255.035,1467.55 "/>
<polyline clip-path="url(#clip780)" style="stroke:#000000; stroke-linecap:round; stroke-linejoin:round; stroke-width:4; stroke-opacity:1; fill:none" points="766.749,1486.45 766.749,1467.55 "/>
<polyline clip-path="url(#clip780)" style="stroke:#000000; stroke-linecap:round; stroke-linejoin:round; stroke-width:4; stroke-opacity:1; fill:none" points="1278.46,1486.45 1278.46,1467.55 "/>
<polyline clip-path="url(#clip780)" style="stroke:#000000; stroke-linecap:round; stroke-linejoin:round; stroke-width:4; stroke-opacity:1; fill:none" points="1790.18,1486.45 1790.18,1467.55 "/>
<polyline clip-path="url(#clip780)" style="stroke:#000000; stroke-linecap:round; stroke-linejoin:round; stroke-width:4; stroke-opacity:1; fill:none" points="2301.89,1486.45 2301.89,1467.55 "/>
<path clip-path="url(#clip780)" d="M232.419 1517.37 Q228.808 1517.37 226.979 1520.93 Q225.174 1524.47 225.174 1531.6 Q225.174 1538.71 226.979 1542.27 Q228.808 1545.82 232.419 1545.82 Q236.053 1545.82 237.859 1542.27 Q239.688 1538.71 239.688 1531.6 Q239.688 1524.47 237.859 1520.93 Q236.053 1517.37 232.419 1517.37 M232.419 1513.66 Q238.229 1513.66 241.285 1518.27 Q244.363 1522.85 244.363 1531.6 Q244.363 1540.33 241.285 1544.94 Q238.229 1549.52 232.419 1549.52 Q226.609 1549.52 223.53 1544.94 Q220.475 1540.33 220.475 1531.6 Q220.475 1522.85 223.53 1518.27 Q226.609 1513.66 232.419 1513.66 Z" fill="#000000" fill-rule="nonzero" fill-opacity="1" /><path clip-path="url(#clip780)" d="M252.581 1542.97 L257.465 1542.97 L257.465 1548.85 L252.581 1548.85 L252.581 1542.97 Z" fill="#000000" fill-rule="nonzero" fill-opacity="1" /><path clip-path="url(#clip780)" d="M277.65 1517.37 Q274.039 1517.37 272.211 1520.93 Q270.405 1524.47 270.405 1531.6 Q270.405 1538.71 272.211 1542.27 Q274.039 1545.82 277.65 1545.82 Q281.285 1545.82 283.09 1542.27 Q284.919 1538.71 284.919 1531.6 Q284.919 1524.47 283.09 1520.93 Q281.285 1517.37 277.65 1517.37 M277.65 1513.66 Q283.46 1513.66 286.516 1518.27 Q289.595 1522.85 289.595 1531.6 Q289.595 1540.33 286.516 1544.94 Q283.46 1549.52 277.65 1549.52 Q271.84 1549.52 268.761 1544.94 Q265.706 1540.33 265.706 1531.6 Q265.706 1522.85 268.761 1518.27 Q271.84 1513.66 277.65 1513.66 Z" fill="#000000" fill-rule="nonzero" fill-opacity="1" /><path clip-path="url(#clip780)" d="M738.485 1544.91 L754.805 1544.91 L754.805 1548.85 L732.86 1548.85 L732.86 1544.91 Q735.522 1542.16 740.106 1537.53 Q744.712 1532.88 745.893 1531.53 Q748.138 1529.01 749.017 1527.27 Q749.92 1525.51 749.92 1523.82 Q749.92 1521.07 747.976 1519.33 Q746.055 1517.6 742.953 1517.6 Q740.754 1517.6 738.3 1518.36 Q735.869 1519.13 733.092 1520.68 L733.092 1515.95 Q735.916 1514.82 738.369 1514.24 Q740.823 1513.66 742.86 1513.66 Q748.23 1513.66 751.425 1516.35 Q754.619 1519.03 754.619 1523.52 Q754.619 1525.65 753.809 1527.57 Q753.022 1529.47 750.916 1532.07 Q750.337 1532.74 747.235 1535.95 Q744.133 1539.15 738.485 1544.91 Z" fill="#000000" fill-rule="nonzero" fill-opacity="1" /><path clip-path="url(#clip780)" d="M764.619 1542.97 L769.503 1542.97 L769.503 1548.85 L764.619 1548.85 L764.619 1542.97 Z" fill="#000000" fill-rule="nonzero" fill-opacity="1" /><path clip-path="url(#clip780)" d="M779.735 1514.29 L798.091 1514.29 L798.091 1518.22 L784.017 1518.22 L784.017 1526.7 Q785.036 1526.35 786.054 1526.19 Q787.073 1526 788.091 1526 Q793.878 1526 797.258 1529.17 Q800.638 1532.34 800.638 1537.76 Q800.638 1543.34 797.165 1546.44 Q793.693 1549.52 787.374 1549.52 Q785.198 1549.52 782.929 1549.15 Q780.684 1548.78 778.277 1548.04 L778.277 1543.34 Q780.36 1544.47 782.582 1545.03 Q784.804 1545.58 787.281 1545.58 Q791.286 1545.58 793.624 1543.48 Q795.962 1541.37 795.962 1537.76 Q795.962 1534.15 793.624 1532.04 Q791.286 1529.94 787.281 1529.94 Q785.406 1529.94 783.531 1530.35 Q781.679 1530.77 779.735 1531.65 L779.735 1514.29 Z" fill="#000000" fill-rule="nonzero" fill-opacity="1" /><path clip-path="url(#clip780)" d="M1245.63 1514.29 L1263.98 1514.29 L1263.98 1518.22 L1249.91 1518.22 L1249.91 1526.7 Q1250.93 1526.35 1251.95 1526.19 Q1252.97 1526 1253.98 1526 Q1259.77 1526 1263.15 1529.17 Q1266.53 1532.34 1266.53 1537.76 Q1266.53 1543.34 1263.06 1546.44 Q1259.59 1549.52 1253.27 1549.52 Q1251.09 1549.52 1248.82 1549.15 Q1246.58 1548.78 1244.17 1548.04 L1244.17 1543.34 Q1246.25 1544.47 1248.47 1545.03 Q1250.7 1545.58 1253.17 1545.58 Q1257.18 1545.58 1259.52 1543.48 Q1261.85 1541.37 1261.85 1537.76 Q1261.85 1534.15 1259.52 1532.04 Q1257.18 1529.94 1253.17 1529.94 Q1251.3 1529.94 1249.42 1530.35 Q1247.57 1530.77 1245.63 1531.65 L1245.63 1514.29 Z" fill="#000000" fill-rule="nonzero" fill-opacity="1" /><path clip-path="url(#clip780)" d="M1275.74 1542.97 L1280.63 1542.97 L1280.63 1548.85 L1275.74 1548.85 L1275.74 1542.97 Z" fill="#000000" fill-rule="nonzero" fill-opacity="1" /><path clip-path="url(#clip780)" d="M1300.81 1517.37 Q1297.2 1517.37 1295.37 1520.93 Q1293.57 1524.47 1293.57 1531.6 Q1293.57 1538.71 1295.37 1542.27 Q1297.2 1545.82 1300.81 1545.82 Q1304.45 1545.82 1306.25 1542.27 Q1308.08 1538.71 1308.08 1531.6 Q1308.08 1524.47 1306.25 1520.93 Q1304.45 1517.37 1300.81 1517.37 M1300.81 1513.66 Q1306.62 1513.66 1309.68 1518.27 Q1312.76 1522.85 1312.76 1531.6 Q1312.76 1540.33 1309.68 1544.94 Q1306.62 1549.52 1300.81 1549.52 Q1295 1549.52 1291.92 1544.94 Q1288.87 1540.33 1288.87 1531.6 Q1288.87 1522.85 1291.92 1518.27 Q1295 1513.66 1300.81 1513.66 Z" fill="#000000" fill-rule="nonzero" fill-opacity="1" /><path clip-path="url(#clip780)" d="M1756.5 1514.29 L1778.72 1514.29 L1778.72 1516.28 L1766.17 1548.85 L1761.29 1548.85 L1773.09 1518.22 L1756.5 1518.22 L1756.5 1514.29 Z" fill="#000000" fill-rule="nonzero" fill-opacity="1" /><path clip-path="url(#clip780)" d="M1787.84 1542.97 L1792.72 1542.97 L1792.72 1548.85 L1787.84 1548.85 L1787.84 1542.97 Z" fill="#000000" fill-rule="nonzero" fill-opacity="1" /><path clip-path="url(#clip780)" d="M1802.96 1514.29 L1821.31 1514.29 L1821.31 1518.22 L1807.24 1518.22 L1807.24 1526.7 Q1808.26 1526.35 1809.27 1526.19 Q1810.29 1526 1811.31 1526 Q1817.1 1526 1820.48 1529.17 Q1823.86 1532.34 1823.86 1537.76 Q1823.86 1543.34 1820.39 1546.44 Q1816.91 1549.52 1810.59 1549.52 Q1808.42 1549.52 1806.15 1549.15 Q1803.9 1548.78 1801.5 1548.04 L1801.5 1543.34 Q1803.58 1544.47 1805.8 1545.03 Q1808.02 1545.58 1810.5 1545.58 Q1814.51 1545.58 1816.84 1543.48 Q1819.18 1541.37 1819.18 1537.76 Q1819.18 1534.15 1816.84 1532.04 Q1814.51 1529.94 1810.5 1529.94 Q1808.63 1529.94 1806.75 1530.35 Q1804.9 1530.77 1802.96 1531.65 L1802.96 1514.29 Z" fill="#000000" fill-rule="nonzero" fill-opacity="1" /><path clip-path="url(#clip780)" d="M2253.96 1544.91 L2261.6 1544.91 L2261.6 1518.55 L2253.29 1520.21 L2253.29 1515.95 L2261.56 1514.29 L2266.23 1514.29 L2266.23 1544.91 L2273.87 1544.91 L2273.87 1548.85 L2253.96 1548.85 L2253.96 1544.91 Z" fill="#000000" fill-rule="nonzero" fill-opacity="1" /><path clip-path="url(#clip780)" d="M2293.32 1517.37 Q2289.7 1517.37 2287.88 1520.93 Q2286.07 1524.47 2286.07 1531.6 Q2286.07 1538.71 2287.88 1542.27 Q2289.7 1545.82 2293.32 1545.82 Q2296.95 1545.82 2298.75 1542.27 Q2300.58 1538.71 2300.58 1531.6 Q2300.58 1524.47 2298.75 1520.93 Q2296.95 1517.37 2293.32 1517.37 M2293.32 1513.66 Q2299.13 1513.66 2302.18 1518.27 Q2305.26 1522.85 2305.26 1531.6 Q2305.26 1540.33 2302.18 1544.94 Q2299.13 1549.52 2293.32 1549.52 Q2287.51 1549.52 2284.43 1544.94 Q2281.37 1540.33 2281.37 1531.6 Q2281.37 1522.85 2284.43 1518.27 Q2287.51 1513.66 2293.32 1513.66 Z" fill="#000000" fill-rule="nonzero" fill-opacity="1" /><path clip-path="url(#clip780)" d="M2313.48 1542.97 L2318.36 1542.97 L2318.36 1548.85 L2313.48 1548.85 L2313.48 1542.97 Z" fill="#000000" fill-rule="nonzero" fill-opacity="1" /><path clip-path="url(#clip780)" d="M2338.55 1517.37 Q2334.94 1517.37 2333.11 1520.93 Q2331.3 1524.47 2331.3 1531.6 Q2331.3 1538.71 2333.11 1542.27 Q2334.94 1545.82 2338.55 1545.82 Q2342.18 1545.82 2343.99 1542.27 Q2345.81 1538.71 2345.81 1531.6 Q2345.81 1524.47 2343.99 1520.93 Q2342.18 1517.37 2338.55 1517.37 M2338.55 1513.66 Q2344.36 1513.66 2347.41 1518.27 Q2350.49 1522.85 2350.49 1531.6 Q2350.49 1540.33 2347.41 1544.94 Q2344.36 1549.52 2338.55 1549.52 Q2332.74 1549.52 2329.66 1544.94 Q2326.6 1540.33 2326.6 1531.6 Q2326.6 1522.85 2329.66 1518.27 Q2332.74 1513.66 2338.55 1513.66 Z" fill="#000000" fill-rule="nonzero" fill-opacity="1" /><polyline clip-path="url(#clip780)" style="stroke:#000000; stroke-linecap:round; stroke-linejoin:round; stroke-width:4; stroke-opacity:1; fill:none" points="193.936,1486.45 193.936,47.2441 "/>
<polyline clip-path="url(#clip780)" style="stroke:#000000; stroke-linecap:round; stroke-linejoin:round; stroke-width:4; stroke-opacity:1; fill:none" points="193.936,1445.72 212.834,1445.72 "/>
<polyline clip-path="url(#clip780)" style="stroke:#000000; stroke-linecap:round; stroke-linejoin:round; stroke-width:4; stroke-opacity:1; fill:none" points="193.936,1106.28 212.834,1106.28 "/>
<polyline clip-path="url(#clip780)" style="stroke:#000000; stroke-linecap:round; stroke-linejoin:round; stroke-width:4; stroke-opacity:1; fill:none" points="193.936,766.848 212.834,766.848 "/>
<polyline clip-path="url(#clip780)" style="stroke:#000000; stroke-linecap:round; stroke-linejoin:round; stroke-width:4; stroke-opacity:1; fill:none" points="193.936,427.412 212.834,427.412 "/>
<polyline clip-path="url(#clip780)" style="stroke:#000000; stroke-linecap:round; stroke-linejoin:round; stroke-width:4; stroke-opacity:1; fill:none" points="193.936,87.9763 212.834,87.9763 "/>
<path clip-path="url(#clip780)" d="M50.9921 1446.17 L80.6679 1446.17 L80.6679 1450.11 L50.9921 1450.11 L50.9921 1446.17 Z" fill="#000000" fill-rule="nonzero" fill-opacity="1" /><path clip-path="url(#clip780)" d="M91.5706 1459.06 L99.2095 1459.06 L99.2095 1432.7 L90.8993 1434.36 L90.8993 1430.11 L99.1632 1428.44 L103.839 1428.44 L103.839 1459.06 L111.478 1459.06 L111.478 1463 L91.5706 1463 L91.5706 1459.06 Z" fill="#000000" fill-rule="nonzero" fill-opacity="1" /><path clip-path="url(#clip780)" d="M120.922 1457.12 L125.807 1457.12 L125.807 1463 L120.922 1463 L120.922 1457.12 Z" fill="#000000" fill-rule="nonzero" fill-opacity="1" /><path clip-path="url(#clip780)" d="M145.992 1431.52 Q142.381 1431.52 140.552 1435.08 Q138.746 1438.62 138.746 1445.75 Q138.746 1452.86 140.552 1456.42 Q142.381 1459.97 145.992 1459.97 Q149.626 1459.97 151.431 1456.42 Q153.26 1452.86 153.26 1445.75 Q153.26 1438.62 151.431 1435.08 Q149.626 1431.52 145.992 1431.52 M145.992 1427.81 Q151.802 1427.81 154.857 1432.42 Q157.936 1437 157.936 1445.75 Q157.936 1454.48 154.857 1459.09 Q151.802 1463.67 145.992 1463.67 Q140.181 1463.67 137.103 1459.09 Q134.047 1454.48 134.047 1445.75 Q134.047 1437 137.103 1432.42 Q140.181 1427.81 145.992 1427.81 Z" fill="#000000" fill-rule="nonzero" fill-opacity="1" /><path clip-path="url(#clip780)" d="M51.9875 1106.73 L81.6633 1106.73 L81.6633 1110.67 L51.9875 1110.67 L51.9875 1106.73 Z" fill="#000000" fill-rule="nonzero" fill-opacity="1" /><path clip-path="url(#clip780)" d="M101.756 1092.08 Q98.1447 1092.08 96.316 1095.65 Q94.5104 1099.19 94.5104 1106.32 Q94.5104 1113.42 96.316 1116.99 Q98.1447 1120.53 101.756 1120.53 Q105.39 1120.53 107.196 1116.99 Q109.024 1113.42 109.024 1106.32 Q109.024 1099.19 107.196 1095.65 Q105.39 1092.08 101.756 1092.08 M101.756 1088.38 Q107.566 1088.38 110.621 1092.98 Q113.7 1097.57 113.7 1106.32 Q113.7 1115.04 110.621 1119.65 Q107.566 1124.23 101.756 1124.23 Q95.9456 1124.23 92.8669 1119.65 Q89.8114 1115.04 89.8114 1106.32 Q89.8114 1097.57 92.8669 1092.98 Q95.9456 1088.38 101.756 1088.38 Z" fill="#000000" fill-rule="nonzero" fill-opacity="1" /><path clip-path="url(#clip780)" d="M121.918 1117.68 L126.802 1117.68 L126.802 1123.56 L121.918 1123.56 L121.918 1117.68 Z" fill="#000000" fill-rule="nonzero" fill-opacity="1" /><path clip-path="url(#clip780)" d="M137.033 1089 L155.39 1089 L155.39 1092.94 L141.316 1092.94 L141.316 1101.41 Q142.334 1101.06 143.353 1100.9 Q144.371 1100.72 145.39 1100.72 Q151.177 1100.72 154.556 1103.89 Q157.936 1107.06 157.936 1112.48 Q157.936 1118.05 154.464 1121.16 Q150.992 1124.23 144.672 1124.23 Q142.496 1124.23 140.228 1123.86 Q137.982 1123.49 135.575 1122.75 L135.575 1118.05 Q137.658 1119.19 139.881 1119.74 Q142.103 1120.3 144.58 1120.3 Q148.584 1120.3 150.922 1118.19 Q153.26 1116.09 153.26 1112.48 Q153.26 1108.86 150.922 1106.76 Q148.584 1104.65 144.58 1104.65 Q142.705 1104.65 140.83 1105.07 Q138.978 1105.48 137.033 1106.36 L137.033 1089 Z" fill="#000000" fill-rule="nonzero" fill-opacity="1" /><path clip-path="url(#clip780)" d="M100.76 752.646 Q97.1493 752.646 95.3206 756.211 Q93.515 759.753 93.515 766.882 Q93.515 773.989 95.3206 777.554 Q97.1493 781.095 100.76 781.095 Q104.395 781.095 106.2 777.554 Q108.029 773.989 108.029 766.882 Q108.029 759.753 106.2 756.211 Q104.395 752.646 100.76 752.646 M100.76 748.943 Q106.571 748.943 109.626 753.549 Q112.705 758.132 112.705 766.882 Q112.705 775.609 109.626 780.216 Q106.571 784.799 100.76 784.799 Q94.9502 784.799 91.8715 780.216 Q88.816 775.609 88.816 766.882 Q88.816 758.132 91.8715 753.549 Q94.9502 748.943 100.76 748.943 Z" fill="#000000" fill-rule="nonzero" fill-opacity="1" /><path clip-path="url(#clip780)" d="M120.922 778.248 L125.807 778.248 L125.807 784.128 L120.922 784.128 L120.922 778.248 Z" fill="#000000" fill-rule="nonzero" fill-opacity="1" /><path clip-path="url(#clip780)" d="M145.992 752.646 Q142.381 752.646 140.552 756.211 Q138.746 759.753 138.746 766.882 Q138.746 773.989 140.552 777.554 Q142.381 781.095 145.992 781.095 Q149.626 781.095 151.431 777.554 Q153.26 773.989 153.26 766.882 Q153.26 759.753 151.431 756.211 Q149.626 752.646 145.992 752.646 M145.992 748.943 Q151.802 748.943 154.857 753.549 Q157.936 758.132 157.936 766.882 Q157.936 775.609 154.857 780.216 Q151.802 784.799 145.992 784.799 Q140.181 784.799 137.103 780.216 Q134.047 775.609 134.047 766.882 Q134.047 758.132 137.103 753.549 Q140.181 748.943 145.992 748.943 Z" fill="#000000" fill-rule="nonzero" fill-opacity="1" /><path clip-path="url(#clip780)" d="M101.756 413.211 Q98.1447 413.211 96.316 416.775 Q94.5104 420.317 94.5104 427.447 Q94.5104 434.553 96.316 438.118 Q98.1447 441.66 101.756 441.66 Q105.39 441.66 107.196 438.118 Q109.024 434.553 109.024 427.447 Q109.024 420.317 107.196 416.775 Q105.39 413.211 101.756 413.211 M101.756 409.507 Q107.566 409.507 110.621 414.113 Q113.7 418.697 113.7 427.447 Q113.7 436.173 110.621 440.78 Q107.566 445.363 101.756 445.363 Q95.9456 445.363 92.8669 440.78 Q89.8114 436.173 89.8114 427.447 Q89.8114 418.697 92.8669 414.113 Q95.9456 409.507 101.756 409.507 Z" fill="#000000" fill-rule="nonzero" fill-opacity="1" /><path clip-path="url(#clip780)" d="M121.918 438.812 L126.802 438.812 L126.802 444.692 L121.918 444.692 L121.918 438.812 Z" fill="#000000" fill-rule="nonzero" fill-opacity="1" /><path clip-path="url(#clip780)" d="M137.033 410.132 L155.39 410.132 L155.39 414.067 L141.316 414.067 L141.316 422.539 Q142.334 422.192 143.353 422.03 Q144.371 421.845 145.39 421.845 Q151.177 421.845 154.556 425.016 Q157.936 428.187 157.936 433.604 Q157.936 439.183 154.464 442.285 Q150.992 445.363 144.672 445.363 Q142.496 445.363 140.228 444.993 Q137.982 444.623 135.575 443.882 L135.575 439.183 Q137.658 440.317 139.881 440.873 Q142.103 441.428 144.58 441.428 Q148.584 441.428 150.922 439.322 Q153.26 437.215 153.26 433.604 Q153.26 429.993 150.922 427.886 Q148.584 425.78 144.58 425.78 Q142.705 425.78 140.83 426.197 Q138.978 426.613 137.033 427.493 L137.033 410.132 Z" fill="#000000" fill-rule="nonzero" fill-opacity="1" /><path clip-path="url(#clip780)" d="M91.5706 101.321 L99.2095 101.321 L99.2095 74.9555 L90.8993 76.6222 L90.8993 72.3629 L99.1632 70.6963 L103.839 70.6963 L103.839 101.321 L111.478 101.321 L111.478 105.256 L91.5706 105.256 L91.5706 101.321 Z" fill="#000000" fill-rule="nonzero" fill-opacity="1" /><path clip-path="url(#clip780)" d="M120.922 99.3767 L125.807 99.3767 L125.807 105.256 L120.922 105.256 L120.922 99.3767 Z" fill="#000000" fill-rule="nonzero" fill-opacity="1" /><path clip-path="url(#clip780)" d="M145.992 73.775 Q142.381 73.775 140.552 77.3398 Q138.746 80.8814 138.746 88.011 Q138.746 95.1174 140.552 98.6822 Q142.381 102.224 145.992 102.224 Q149.626 102.224 151.431 98.6822 Q153.26 95.1174 153.26 88.011 Q153.26 80.8814 151.431 77.3398 Q149.626 73.775 145.992 73.775 M145.992 70.0713 Q151.802 70.0713 154.857 74.6777 Q157.936 79.261 157.936 88.011 Q157.936 96.7378 154.857 101.344 Q151.802 105.928 145.992 105.928 Q140.181 105.928 137.103 101.344 Q134.047 96.7378 134.047 88.011 Q134.047 79.261 137.103 74.6777 Q140.181 70.0713 145.992 70.0713 Z" fill="#000000" fill-rule="nonzero" fill-opacity="1" /><polyline clip-path="url(#clip782)" style="stroke:#009af9; stroke-linecap:round; stroke-linejoin:round; stroke-width:4; stroke-opacity:1; fill:none" points="255.035,87.9763 265.269,104.877 275.503,121.638 285.738,138.258 295.972,154.739 306.206,171.082 316.44,187.287 326.675,203.354 336.909,219.285 347.143,235.08 357.378,250.739 367.612,266.265 377.846,281.656 388.08,296.914 398.315,312.04 408.549,327.034 418.783,341.898 429.018,356.63 439.252,371.233 449.486,385.707 459.72,400.052 469.955,414.269 480.189,428.36 490.423,442.324 500.657,456.162 510.892,469.875 521.126,483.463 531.36,496.927 541.595,510.269 551.829,523.487 562.063,536.584 572.297,549.559 582.532,562.414 592.766,575.149 603,587.764 613.235,600.26 623.469,612.638 633.703,624.899 643.937,637.043 654.172,649.07 664.406,660.982 674.64,672.779 684.875,684.461 695.109,696.029 705.343,707.484 715.577,718.826 725.812,730.056 736.046,741.175 746.28,752.183 756.515,763.081 766.749,773.869 776.983,784.548 787.217,795.118 797.452,805.58 807.686,815.936 817.92,826.184 828.155,836.326 838.389,846.363 848.623,856.294 858.857,866.122 869.092,875.845 879.326,885.465 889.56,894.982 899.795,904.397 910.029,913.711 920.263,922.923 930.497,932.035 940.732,941.047 950.966,949.96 961.2,958.773 971.435,967.489 981.669,976.107 991.903,984.627 1002.14,993.051 1012.37,1001.38 1022.61,1009.61 1032.84,1017.75 1043.07,1025.79 1053.31,1033.74 1063.54,1041.6 1073.78,1049.36 1084.01,1057.03 1094.25,1064.61 1104.48,1072.09 1114.71,1079.49 1124.95,1086.8 1135.18,1094.01 1145.42,1101.14 1155.65,1108.18 1165.89,1115.13 1176.12,1121.99 1186.35,1128.76 1196.59,1135.45 1206.82,1142.05 1217.06,1148.57 1227.29,1155 1237.53,1161.35 1247.76,1167.61 1257.99,1173.79 1268.23,1179.88 1278.46,1185.9 1288.7,1191.83 1298.93,1197.68 1309.17,1203.44 1319.4,1209.13 1329.63,1214.74 1339.87,1220.26 1350.1,1225.71 1360.34,1231.08 1370.57,1236.37 1380.81,1241.58 1391.04,1246.71 1401.27,1251.77 1411.51,1256.75 1421.74,1261.66 1431.98,1266.49 1442.21,1271.24 1452.45,1275.92 1462.68,1280.53 1472.91,1285.06 1483.15,1289.51 1493.38,1293.9 1503.62,1298.21 1513.85,1302.45 1524.09,1306.62 1534.32,1310.72 1544.55,1314.75 1554.79,1318.71 1565.02,1322.59 1575.26,1326.41 1585.49,1330.16 1595.73,1333.84 1605.96,1337.46 1616.19,1341 1626.43,1344.48 1636.66,1347.89 1646.9,1351.24 1657.13,1354.51 1667.37,1357.73 1677.6,1360.88 1687.83,1363.96 1698.07,1366.98 1708.3,1369.94 1718.54,1372.83 1728.77,1375.66 1739.01,1378.43 1749.24,1381.13 1759.47,1383.78 1769.71,1386.36 1779.94,1388.88 1790.18,1391.34 1800.41,1393.74 1810.65,1396.08 1820.88,1398.36 1831.11,1400.58 1841.35,1402.75 1851.58,1404.85 1861.82,1406.9 1872.05,1408.89 1882.29,1410.82 1892.52,1412.7 1902.75,1414.52 1912.99,1416.29 1923.22,1418 1933.46,1419.65 1943.69,1421.25 1953.93,1422.79 1964.16,1424.28 1974.39,1425.72 1984.63,1427.11 1994.86,1428.44 2005.1,1429.72 2015.33,1430.94 2025.57,1432.12 2035.8,1433.24 2046.03,1434.31 2056.27,1435.34 2066.5,1436.31 2076.74,1437.23 2086.97,1438.1 2097.21,1438.93 2107.44,1439.7 2117.67,1440.42 2127.91,1441.1 2138.14,1441.73 2148.38,1442.31 2158.61,1442.85 2168.85,1443.34 2179.08,1443.78 2189.31,1444.17 2199.55,1444.52 2209.78,1444.83 2220.02,1445.09 2230.25,1445.3 2240.49,1445.47 2250.72,1445.6 2260.95,1445.68 2271.19,1445.72 2281.42,1445.71 2291.66,1445.66 "/>
<polyline clip-path="url(#clip782)" style="stroke:#e26f46; stroke-linecap:round; stroke-linejoin:round; stroke-width:4; stroke-opacity:1; fill:none" points="255.035,87.9763 265.269,104.948 275.503,121.655 285.738,138.228 295.972,154.669 306.206,170.975 316.44,187.147 326.675,203.185 336.909,219.089 347.143,234.858 357.378,250.494 367.612,265.997 377.846,281.367 388.08,296.606 398.315,311.713 408.549,326.689 418.783,341.535 429.018,356.251 439.252,370.838 449.486,385.297 459.72,399.628 469.955,413.832 480.189,427.909 490.423,441.86 500.657,455.686 510.892,469.388 521.126,482.965 531.36,496.419 541.595,509.75 551.829,522.958 562.063,536.046 572.297,549.012 582.532,561.858 592.766,574.584 603,587.191 613.235,599.68 623.469,612.051 633.703,624.304 643.937,636.441 654.172,648.462 664.406,660.367 674.64,672.158 684.875,683.834 695.109,695.397 705.343,706.847 715.577,718.184 725.812,729.41 736.046,740.524 746.28,751.527 756.515,762.421 766.749,773.205 776.983,783.88 787.217,794.447 797.452,804.906 807.686,815.258 817.92,825.503 828.155,835.643 838.389,845.677 848.623,855.606 858.857,865.431 869.092,875.152 879.326,884.77 889.56,894.285 899.795,903.699 910.029,913.011 920.263,922.222 930.497,931.332 940.732,940.343 950.966,949.255 961.2,958.068 971.435,966.783 981.669,975.4 991.903,983.92 1002.14,992.344 1012.37,1000.67 1022.61,1008.9 1032.84,1017.04 1043.07,1025.08 1053.31,1033.03 1063.54,1040.89 1073.78,1048.65 1084.01,1056.32 1094.25,1063.9 1104.48,1071.39 1114.71,1078.79 1124.95,1086.09 1135.18,1093.31 1145.42,1100.44 1155.65,1107.48 1165.89,1114.43 1176.12,1121.29 1186.35,1128.07 1196.59,1134.76 1206.82,1141.36 1217.06,1147.88 1227.29,1154.31 1237.53,1160.66 1247.76,1166.93 1257.99,1173.11 1268.23,1179.2 1278.46,1185.22 1288.7,1191.15 1298.93,1197 1309.17,1202.77 1319.4,1208.46 1329.63,1214.07 1339.87,1219.6 1350.1,1225.05 1360.34,1230.42 1370.57,1235.71 1380.81,1240.93 1391.04,1246.07 1401.27,1251.13 1411.51,1256.11 1421.74,1261.02 1431.98,1265.85 1442.21,1270.61 1452.45,1275.29 1462.68,1279.9 1472.91,1284.43 1483.15,1288.9 1493.38,1293.29 1503.62,1297.6 1513.85,1301.85 1524.09,1306.02 1534.32,1310.12 1544.55,1314.15 1554.79,1318.11 1565.02,1322 1575.26,1325.83 1585.49,1329.58 1595.73,1333.27 1605.96,1336.88 1616.19,1340.43 1626.43,1343.91 1636.66,1347.33 1646.9,1350.68 1657.13,1353.96 1667.37,1357.18 1677.6,1360.33 1687.83,1363.42 1698.07,1366.45 1708.3,1369.41 1718.54,1372.3 1728.77,1375.14 1739.01,1377.91 1749.24,1380.62 1759.47,1383.27 1769.71,1385.85 1779.94,1388.38 1790.18,1390.84 1800.41,1393.25 1810.65,1395.59 1820.88,1397.88 1831.11,1400.11 1841.35,1402.28 1851.58,1404.39 1861.82,1406.44 1872.05,1408.43 1882.29,1410.37 1892.52,1412.25 1902.75,1414.08 1912.99,1415.85 1923.22,1417.56 1933.46,1419.22 1943.69,1420.82 1953.93,1422.37 1964.16,1423.87 1974.39,1425.31 1984.63,1426.7 1994.86,1428.04 2005.1,1429.32 2015.33,1430.55 2025.57,1431.73 2035.8,1432.86 2046.03,1433.94 2056.27,1434.97 2066.5,1435.94 2076.74,1436.87 2086.97,1437.75 2097.21,1438.58 2107.44,1439.36 2117.67,1440.09 2127.91,1440.77 2138.14,1441.4 2148.38,1441.99 2158.61,1442.53 2168.85,1443.02 2179.08,1443.47 2189.31,1443.87 2199.55,1444.23 2209.78,1444.53 2220.02,1444.8 2230.25,1445.02 2240.49,1445.19 2250.72,1445.32 2260.95,1445.41 2271.19,1445.46 2281.42,1445.46 2291.66,1445.41 "/>
<polyline clip-path="url(#clip782)" style="stroke:#3da44d; stroke-linecap:round; stroke-linejoin:round; stroke-width:4; stroke-opacity:1; fill:none" points="255.035,87.9763 265.269,104.948 275.503,121.734 285.738,138.375 295.972,154.872 306.206,171.229 316.44,187.445 326.675,203.524 336.909,219.464 347.143,235.268 357.378,250.936 367.612,266.469 377.846,281.867 388.08,297.132 398.315,312.263 408.549,327.263 418.783,342.131 429.018,356.868 439.252,371.475 449.486,385.953 459.72,400.302 469.955,414.523 480.189,428.617 490.423,442.584 500.657,456.424 510.892,470.14 521.126,483.731 531.36,497.197 541.595,510.541 551.829,523.761 562.063,536.86 572.297,549.836 582.532,562.693 592.766,575.428 603,588.045 613.235,600.542 623.469,612.921 633.703,625.183 643.937,637.327 654.172,649.355 664.406,661.267 674.64,673.064 684.875,684.746 695.109,696.315 705.343,707.77 715.577,719.112 725.812,730.342 736.046,741.46 746.28,752.468 756.515,763.365 766.749,774.153 776.983,784.831 787.217,795.401 797.452,805.863 807.686,816.217 817.92,826.465 828.155,836.606 838.389,846.642 848.623,856.572 858.857,866.399 869.092,876.121 879.326,885.74 889.56,895.256 899.795,904.67 910.029,913.982 920.263,923.193 930.497,932.303 940.732,941.314 950.966,950.225 961.2,959.037 971.435,967.751 981.669,976.367 991.903,984.886 1002.14,993.309 1012.37,1001.63 1022.61,1009.87 1032.84,1018 1043.07,1026.04 1053.31,1033.99 1063.54,1041.84 1073.78,1049.6 1084.01,1057.27 1094.25,1064.85 1104.48,1072.33 1114.71,1079.73 1124.95,1087.03 1135.18,1094.24 1145.42,1101.37 1155.65,1108.4 1165.89,1115.35 1176.12,1122.21 1186.35,1128.99 1196.59,1135.67 1206.82,1142.27 1217.06,1148.79 1227.29,1155.21 1237.53,1161.56 1247.76,1167.82 1257.99,1173.99 1268.23,1180.09 1278.46,1186.1 1288.7,1192.03 1298.93,1197.87 1309.17,1203.64 1319.4,1209.32 1329.63,1214.93 1339.87,1220.45 1350.1,1225.89 1360.34,1231.26 1370.57,1236.55 1380.81,1241.76 1391.04,1246.89 1401.27,1251.94 1411.51,1256.92 1421.74,1261.82 1431.98,1266.65 1442.21,1271.4 1452.45,1276.08 1462.68,1280.68 1472.91,1285.21 1483.15,1289.67 1493.38,1294.05 1503.62,1298.36 1513.85,1302.6 1524.09,1306.76 1534.32,1310.86 1544.55,1314.89 1554.79,1318.84 1565.02,1322.73 1575.26,1326.54 1585.49,1330.29 1595.73,1333.97 1605.96,1337.58 1616.19,1341.12 1626.43,1344.59 1636.66,1348 1646.9,1351.35 1657.13,1354.62 1667.37,1357.83 1677.6,1360.98 1687.83,1364.06 1698.07,1367.08 1708.3,1370.03 1718.54,1372.92 1728.77,1375.75 1739.01,1378.51 1749.24,1381.22 1759.47,1383.86 1769.71,1386.44 1779.94,1388.95 1790.18,1391.41 1800.41,1393.81 1810.65,1396.15 1820.88,1398.43 1831.11,1400.65 1841.35,1402.81 1851.58,1404.91 1861.82,1406.96 1872.05,1408.94 1882.29,1410.87 1892.52,1412.75 1902.75,1414.57 1912.99,1416.33 1923.22,1418.03 1933.46,1419.69 1943.69,1421.28 1953.93,1422.83 1964.16,1424.31 1974.39,1425.75 1984.63,1427.13 1994.86,1428.46 2005.1,1429.74 2015.33,1430.96 2025.57,1432.13 2035.8,1433.25 2046.03,1434.32 2056.27,1435.34 2066.5,1436.31 2076.74,1437.23 2086.97,1438.1 2097.21,1438.92 2107.44,1439.69 2117.67,1440.42 2127.91,1441.09 2138.14,1441.72 2148.38,1442.3 2158.61,1442.83 2168.85,1443.31 2179.08,1443.75 2189.31,1444.15 2199.55,1444.49 2209.78,1444.8 2220.02,1445.05 2230.25,1445.26 2240.49,1445.43 2250.72,1445.55 2260.95,1445.63 2271.19,1445.67 2281.42,1445.66 2291.66,1445.61 "/>
<path clip-path="url(#clip780)" d="M1825.38 302.578 L2280.8 302.578 L2280.8 95.2176 L1825.38 95.2176  Z" fill="#ffffff" fill-rule="evenodd" fill-opacity="1"/>
<polyline clip-path="url(#clip780)" style="stroke:#000000; stroke-linecap:round; stroke-linejoin:round; stroke-width:4; stroke-opacity:1; fill:none" points="1825.38,302.578 2280.8,302.578 2280.8,95.2176 1825.38,95.2176 1825.38,302.578 "/>
<polyline clip-path="url(#clip780)" style="stroke:#009af9; stroke-linecap:round; stroke-linejoin:round; stroke-width:4; stroke-opacity:1; fill:none" points="1849.36,147.058 1993.29,147.058 "/>
<path clip-path="url(#clip780)" d="M2033.11 134.384 L2026.76 151.583 L2039.47 151.583 L2033.11 134.384 M2030.47 129.778 L2035.77 129.778 L2048.94 164.338 L2044.08 164.338 L2040.93 155.472 L2025.35 155.472 L2022.2 164.338 L2017.27 164.338 L2030.47 129.778 Z" fill="#000000" fill-rule="nonzero" fill-opacity="1" /><path clip-path="url(#clip780)" d="M2075.35 148.689 L2075.35 164.338 L2071.09 164.338 L2071.09 148.828 Q2071.09 145.148 2069.66 143.319 Q2068.22 141.49 2065.35 141.49 Q2061.9 141.49 2059.91 143.69 Q2057.92 145.889 2057.92 149.685 L2057.92 164.338 L2053.64 164.338 L2053.64 138.412 L2057.92 138.412 L2057.92 142.44 Q2059.45 140.102 2061.51 138.944 Q2063.59 137.787 2066.3 137.787 Q2070.77 137.787 2073.06 140.565 Q2075.35 143.319 2075.35 148.689 Z" fill="#000000" fill-rule="nonzero" fill-opacity="1" /><path clip-path="url(#clip780)" d="M2095.63 151.305 Q2090.47 151.305 2088.48 152.486 Q2086.49 153.666 2086.49 156.514 Q2086.49 158.782 2087.97 160.125 Q2089.47 161.444 2092.04 161.444 Q2095.58 161.444 2097.71 158.944 Q2099.86 156.421 2099.86 152.254 L2099.86 151.305 L2095.63 151.305 M2104.12 149.546 L2104.12 164.338 L2099.86 164.338 L2099.86 160.402 Q2098.41 162.763 2096.23 163.898 Q2094.05 165.009 2090.91 165.009 Q2086.93 165.009 2084.56 162.787 Q2082.23 160.541 2082.23 156.791 Q2082.23 152.416 2085.14 150.194 Q2088.08 147.972 2093.89 147.972 L2099.86 147.972 L2099.86 147.555 Q2099.86 144.615 2097.92 143.018 Q2096 141.398 2092.5 141.398 Q2090.28 141.398 2088.17 141.93 Q2086.07 142.463 2084.12 143.527 L2084.12 139.592 Q2086.46 138.69 2088.66 138.25 Q2090.86 137.787 2092.94 137.787 Q2098.57 137.787 2101.35 140.703 Q2104.12 143.62 2104.12 149.546 Z" fill="#000000" fill-rule="nonzero" fill-opacity="1" /><path clip-path="url(#clip780)" d="M2112.9 128.319 L2117.16 128.319 L2117.16 164.338 L2112.9 164.338 L2112.9 128.319 Z" fill="#000000" fill-rule="nonzero" fill-opacity="1" /><path clip-path="url(#clip780)" d="M2126.07 138.412 L2130.33 138.412 L2130.33 164.338 L2126.07 164.338 L2126.07 138.412 M2126.07 128.319 L2130.33 128.319 L2130.33 133.713 L2126.07 133.713 L2126.07 128.319 Z" fill="#000000" fill-rule="nonzero" fill-opacity="1" /><path clip-path="url(#clip780)" d="M2143.45 131.051 L2143.45 138.412 L2152.23 138.412 L2152.23 141.722 L2143.45 141.722 L2143.45 155.796 Q2143.45 158.967 2144.31 159.87 Q2145.19 160.773 2147.85 160.773 L2152.23 160.773 L2152.23 164.338 L2147.85 164.338 Q2142.92 164.338 2141.05 162.509 Q2139.17 160.657 2139.17 155.796 L2139.17 141.722 L2136.05 141.722 L2136.05 138.412 L2139.17 138.412 L2139.17 131.051 L2143.45 131.051 Z" fill="#000000" fill-rule="nonzero" fill-opacity="1" /><path clip-path="url(#clip780)" d="M2168.61 166.745 Q2166.81 171.375 2165.1 172.787 Q2163.38 174.199 2160.51 174.199 L2157.11 174.199 L2157.11 170.634 L2159.61 170.634 Q2161.37 170.634 2162.34 169.8 Q2163.31 168.967 2164.49 165.865 L2165.26 163.921 L2154.77 138.412 L2159.29 138.412 L2167.39 158.689 L2175.49 138.412 L2180 138.412 L2168.61 166.745 Z" fill="#000000" fill-rule="nonzero" fill-opacity="1" /><path clip-path="url(#clip780)" d="M2204.54 139.407 L2204.54 143.389 Q2202.73 142.393 2200.91 141.907 Q2199.1 141.398 2197.25 141.398 Q2193.1 141.398 2190.81 144.037 Q2188.52 146.652 2188.52 151.398 Q2188.52 156.143 2190.81 158.782 Q2193.1 161.398 2197.25 161.398 Q2199.1 161.398 2200.91 160.912 Q2202.73 160.402 2204.54 159.407 L2204.54 163.342 Q2202.76 164.176 2200.84 164.592 Q2198.94 165.009 2196.79 165.009 Q2190.93 165.009 2187.48 161.328 Q2184.03 157.648 2184.03 151.398 Q2184.03 145.055 2187.5 141.421 Q2191 137.787 2197.06 137.787 Q2199.03 137.787 2200.91 138.203 Q2202.78 138.597 2204.54 139.407 Z" fill="#000000" fill-rule="nonzero" fill-opacity="1" /><polyline clip-path="url(#clip780)" style="stroke:#e26f46; stroke-linecap:round; stroke-linejoin:round; stroke-width:4; stroke-opacity:1; fill:none" points="1849.36,198.898 1993.29,198.898 "/>
<path clip-path="url(#clip780)" d="M2030.68 203.145 Q2025.51 203.145 2023.52 204.326 Q2021.53 205.506 2021.53 208.354 Q2021.53 210.622 2023.01 211.965 Q2024.52 213.284 2027.09 213.284 Q2030.63 213.284 2032.76 210.784 Q2034.91 208.261 2034.91 204.094 L2034.91 203.145 L2030.68 203.145 M2039.17 201.386 L2039.17 216.178 L2034.91 216.178 L2034.91 212.242 Q2033.45 214.603 2031.28 215.738 Q2029.1 216.849 2025.95 216.849 Q2021.97 216.849 2019.61 214.627 Q2017.27 212.381 2017.27 208.631 Q2017.27 204.256 2020.19 202.034 Q2023.13 199.812 2028.94 199.812 L2034.91 199.812 L2034.91 199.395 Q2034.91 196.455 2032.97 194.858 Q2031.05 193.238 2027.55 193.238 Q2025.33 193.238 2023.22 193.77 Q2021.12 194.303 2019.17 195.367 L2019.17 191.432 Q2021.51 190.53 2023.71 190.09 Q2025.91 189.627 2027.99 189.627 Q2033.62 189.627 2036.39 192.543 Q2039.17 195.46 2039.17 201.386 Z" fill="#000000" fill-rule="nonzero" fill-opacity="1" /><path clip-path="url(#clip780)" d="M2047.94 180.159 L2052.2 180.159 L2052.2 216.178 L2047.94 216.178 L2047.94 180.159 Z" fill="#000000" fill-rule="nonzero" fill-opacity="1" /><path clip-path="url(#clip780)" d="M2065.24 212.289 L2065.24 226.039 L2060.95 226.039 L2060.95 190.252 L2065.24 190.252 L2065.24 194.187 Q2066.58 191.872 2068.61 190.761 Q2070.68 189.627 2073.52 189.627 Q2078.24 189.627 2081.18 193.377 Q2084.15 197.127 2084.15 203.238 Q2084.15 209.349 2081.18 213.099 Q2078.24 216.849 2073.52 216.849 Q2070.68 216.849 2068.61 215.738 Q2066.58 214.603 2065.24 212.289 M2079.73 203.238 Q2079.73 198.539 2077.78 195.877 Q2075.86 193.192 2072.48 193.192 Q2069.1 193.192 2067.16 195.877 Q2065.24 198.539 2065.24 203.238 Q2065.24 207.937 2067.16 210.622 Q2069.1 213.284 2072.48 213.284 Q2075.86 213.284 2077.78 210.622 Q2079.73 207.937 2079.73 203.238 Z" fill="#000000" fill-rule="nonzero" fill-opacity="1" /><path clip-path="url(#clip780)" d="M2112.76 200.529 L2112.76 216.178 L2108.5 216.178 L2108.5 200.668 Q2108.5 196.988 2107.06 195.159 Q2105.63 193.33 2102.76 193.33 Q2099.31 193.33 2097.32 195.53 Q2095.33 197.729 2095.33 201.525 L2095.33 216.178 L2091.05 216.178 L2091.05 180.159 L2095.33 180.159 L2095.33 194.28 Q2096.86 191.942 2098.92 190.784 Q2101 189.627 2103.71 189.627 Q2108.17 189.627 2110.47 192.405 Q2112.76 195.159 2112.76 200.529 Z" fill="#000000" fill-rule="nonzero" fill-opacity="1" /><path clip-path="url(#clip780)" d="M2133.04 203.145 Q2127.87 203.145 2125.88 204.326 Q2123.89 205.506 2123.89 208.354 Q2123.89 210.622 2125.37 211.965 Q2126.88 213.284 2129.45 213.284 Q2132.99 213.284 2135.12 210.784 Q2137.27 208.261 2137.27 204.094 L2137.27 203.145 L2133.04 203.145 M2141.53 201.386 L2141.53 216.178 L2137.27 216.178 L2137.27 212.242 Q2135.81 214.603 2133.64 215.738 Q2131.46 216.849 2128.31 216.849 Q2124.33 216.849 2121.97 214.627 Q2119.63 212.381 2119.63 208.631 Q2119.63 204.256 2122.55 202.034 Q2125.49 199.812 2131.3 199.812 L2137.27 199.812 L2137.27 199.395 Q2137.27 196.455 2135.33 194.858 Q2133.41 193.238 2129.91 193.238 Q2127.69 193.238 2125.58 193.77 Q2123.48 194.303 2121.53 195.367 L2121.53 191.432 Q2123.87 190.53 2126.07 190.09 Q2128.27 189.627 2130.35 189.627 Q2135.98 189.627 2138.75 192.543 Q2141.53 195.46 2141.53 201.386 Z" fill="#000000" fill-rule="nonzero" fill-opacity="1" /><path clip-path="url(#clip780)" d="M2165.93 194.65 L2195.6 194.65 L2195.6 198.539 L2165.93 198.539 L2165.93 194.65 M2165.93 204.094 L2195.6 204.094 L2195.6 208.029 L2165.93 208.029 L2165.93 204.094 Z" fill="#000000" fill-rule="nonzero" fill-opacity="1" /><path clip-path="url(#clip780)" d="M2221.58 212.242 L2229.22 212.242 L2229.22 185.877 L2220.91 187.543 L2220.91 183.284 L2229.17 181.618 L2233.85 181.618 L2233.85 212.242 L2241.48 212.242 L2241.48 216.178 L2221.58 216.178 L2221.58 212.242 Z" fill="#000000" fill-rule="nonzero" fill-opacity="1" /><polyline clip-path="url(#clip780)" style="stroke:#3da44d; stroke-linecap:round; stroke-linejoin:round; stroke-width:4; stroke-opacity:1; fill:none" points="1849.36,250.738 1993.29,250.738 "/>
<path clip-path="url(#clip780)" d="M2030.68 254.985 Q2025.51 254.985 2023.52 256.166 Q2021.53 257.346 2021.53 260.194 Q2021.53 262.462 2023.01 263.805 Q2024.52 265.124 2027.09 265.124 Q2030.63 265.124 2032.76 262.624 Q2034.91 260.101 2034.91 255.934 L2034.91 254.985 L2030.68 254.985 M2039.17 253.226 L2039.17 268.018 L2034.91 268.018 L2034.91 264.082 Q2033.45 266.443 2031.28 267.578 Q2029.1 268.689 2025.95 268.689 Q2021.97 268.689 2019.61 266.467 Q2017.27 264.221 2017.27 260.471 Q2017.27 256.096 2020.19 253.874 Q2023.13 251.652 2028.94 251.652 L2034.91 251.652 L2034.91 251.235 Q2034.91 248.295 2032.97 246.698 Q2031.05 245.078 2027.55 245.078 Q2025.33 245.078 2023.22 245.61 Q2021.12 246.143 2019.17 247.207 L2019.17 243.272 Q2021.51 242.37 2023.71 241.93 Q2025.91 241.467 2027.99 241.467 Q2033.62 241.467 2036.39 244.383 Q2039.17 247.3 2039.17 253.226 Z" fill="#000000" fill-rule="nonzero" fill-opacity="1" /><path clip-path="url(#clip780)" d="M2047.94 231.999 L2052.2 231.999 L2052.2 268.018 L2047.94 268.018 L2047.94 231.999 Z" fill="#000000" fill-rule="nonzero" fill-opacity="1" /><path clip-path="url(#clip780)" d="M2065.24 264.129 L2065.24 277.879 L2060.95 277.879 L2060.95 242.092 L2065.24 242.092 L2065.24 246.027 Q2066.58 243.712 2068.61 242.601 Q2070.68 241.467 2073.52 241.467 Q2078.24 241.467 2081.18 245.217 Q2084.15 248.967 2084.15 255.078 Q2084.15 261.189 2081.18 264.939 Q2078.24 268.689 2073.52 268.689 Q2070.68 268.689 2068.61 267.578 Q2066.58 266.443 2065.24 264.129 M2079.73 255.078 Q2079.73 250.379 2077.78 247.717 Q2075.86 245.032 2072.48 245.032 Q2069.1 245.032 2067.16 247.717 Q2065.24 250.379 2065.24 255.078 Q2065.24 259.777 2067.16 262.462 Q2069.1 265.124 2072.48 265.124 Q2075.86 265.124 2077.78 262.462 Q2079.73 259.777 2079.73 255.078 Z" fill="#000000" fill-rule="nonzero" fill-opacity="1" /><path clip-path="url(#clip780)" d="M2112.76 252.369 L2112.76 268.018 L2108.5 268.018 L2108.5 252.508 Q2108.5 248.828 2107.06 246.999 Q2105.63 245.17 2102.76 245.17 Q2099.31 245.17 2097.32 247.37 Q2095.33 249.569 2095.33 253.365 L2095.33 268.018 L2091.05 268.018 L2091.05 231.999 L2095.33 231.999 L2095.33 246.12 Q2096.86 243.782 2098.92 242.624 Q2101 241.467 2103.71 241.467 Q2108.17 241.467 2110.47 244.245 Q2112.76 246.999 2112.76 252.369 Z" fill="#000000" fill-rule="nonzero" fill-opacity="1" /><path clip-path="url(#clip780)" d="M2133.04 254.985 Q2127.87 254.985 2125.88 256.166 Q2123.89 257.346 2123.89 260.194 Q2123.89 262.462 2125.37 263.805 Q2126.88 265.124 2129.45 265.124 Q2132.99 265.124 2135.12 262.624 Q2137.27 260.101 2137.27 255.934 L2137.27 254.985 L2133.04 254.985 M2141.53 253.226 L2141.53 268.018 L2137.27 268.018 L2137.27 264.082 Q2135.81 266.443 2133.64 267.578 Q2131.46 268.689 2128.31 268.689 Q2124.33 268.689 2121.97 266.467 Q2119.63 264.221 2119.63 260.471 Q2119.63 256.096 2122.55 253.874 Q2125.49 251.652 2131.3 251.652 L2137.27 251.652 L2137.27 251.235 Q2137.27 248.295 2135.33 246.698 Q2133.41 245.078 2129.91 245.078 Q2127.69 245.078 2125.58 245.61 Q2123.48 246.143 2121.53 247.207 L2121.53 243.272 Q2123.87 242.37 2126.07 241.93 Q2128.27 241.467 2130.35 241.467 Q2135.98 241.467 2138.75 244.383 Q2141.53 247.3 2141.53 253.226 Z" fill="#000000" fill-rule="nonzero" fill-opacity="1" /><path clip-path="url(#clip780)" d="M2150.86 246.49 L2180.54 246.49 L2180.54 250.379 L2150.86 250.379 L2150.86 246.49 M2150.86 255.934 L2180.54 255.934 L2180.54 259.869 L2150.86 259.869 L2150.86 255.934 Z" fill="#000000" fill-rule="nonzero" fill-opacity="1" /><path clip-path="url(#clip780)" d="M2200.63 236.536 Q2197.02 236.536 2195.19 240.101 Q2193.38 243.643 2193.38 250.772 Q2193.38 257.879 2195.19 261.444 Q2197.02 264.985 2200.63 264.985 Q2204.26 264.985 2206.07 261.444 Q2207.9 257.879 2207.9 250.772 Q2207.9 243.643 2206.07 240.101 Q2204.26 236.536 2200.63 236.536 M2200.63 232.833 Q2206.44 232.833 2209.49 237.439 Q2212.57 242.022 2212.57 250.772 Q2212.57 259.499 2209.49 264.106 Q2206.44 268.689 2200.63 268.689 Q2194.82 268.689 2191.74 264.106 Q2188.68 259.499 2188.68 250.772 Q2188.68 242.022 2191.74 237.439 Q2194.82 232.833 2200.63 232.833 Z" fill="#000000" fill-rule="nonzero" fill-opacity="1" /><path clip-path="url(#clip780)" d="M2220.79 262.138 L2225.67 262.138 L2225.67 268.018 L2220.79 268.018 L2220.79 262.138 Z" fill="#000000" fill-rule="nonzero" fill-opacity="1" /><path clip-path="url(#clip780)" d="M2235.91 233.458 L2254.26 233.458 L2254.26 237.393 L2240.19 237.393 L2240.19 245.865 Q2241.21 245.518 2242.23 245.356 Q2243.24 245.17 2244.26 245.17 Q2250.05 245.17 2253.43 248.342 Q2256.81 251.513 2256.81 256.93 Q2256.81 262.508 2253.34 265.61 Q2249.86 268.689 2243.54 268.689 Q2241.37 268.689 2239.1 268.318 Q2236.85 267.948 2234.45 267.207 L2234.45 262.508 Q2236.53 263.643 2238.75 264.198 Q2240.98 264.754 2243.45 264.754 Q2247.46 264.754 2249.79 262.647 Q2252.13 260.541 2252.13 256.93 Q2252.13 253.319 2249.79 251.212 Q2247.46 249.106 2243.45 249.106 Q2241.58 249.106 2239.7 249.522 Q2237.85 249.939 2235.91 250.819 L2235.91 233.458 Z" fill="#000000" fill-rule="nonzero" fill-opacity="1" /></svg>
