<?xml version="1.0" encoding="utf-8"?>
<svg xmlns="http://www.w3.org/2000/svg" xmlns:xlink="http://www.w3.org/1999/xlink" width="600" height="400" viewBox="0 0 2400 1600">
<defs>
  <clipPath id="clip650">
    <rect x="0" y="0" width="2400" height="1600"/>
  </clipPath>
</defs>
<path clip-path="url(#clip650)" d="M0 1600 L2400 1600 L2400 0 L0 0  Z" fill="#ffffff" fill-rule="evenodd" fill-opacity="1"/>
<defs>
  <clipPath id="clip651">
    <rect x="480" y="0" width="1681" height="1600"/>
  </clipPath>
</defs>
<path clip-path="url(#clip650)" d="M193.936 1486.45 L2352.76 1486.45 L2352.76 47.2441 L193.936 47.2441  Z" fill="#ffffff" fill-rule="evenodd" fill-opacity="1"/>
<defs>
  <clipPath id="clip652">
    <rect x="193" y="47" width="2160" height="1440"/>
  </clipPath>
</defs>
<polyline clip-path="url(#clip652)" style="stroke:#000000; stroke-linecap:round; stroke-linejoin:round; stroke-width:2; stroke-opacity:0.1; fill:none" points="255.035,1486.45 255.035,47.2441 "/>
<polyline clip-path="url(#clip652)" style="stroke:#000000; stroke-linecap:round; stroke-linejoin:round; stroke-width:2; stroke-opacity:0.1; fill:none" points="766.749,1486.45 766.749,47.2441 "/>
<polyline clip-path="url(#clip652)" style="stroke:#000000; stroke-linecap:round; stroke-linejoin:round; stroke-width:2; stroke-opacity:0.1; fill:none" points="1278.46,1486.45 1278.46,47.2441 "/>
<polyline clip-path="url(#clip652)" style="stroke:#000000; stroke-linecap:round; stroke-linejoin:round; stroke-width:2; stroke-opacity:0.1; fill:none" points="1790.18,1486.45 1790.18,47.2441 "/>
<polyline clip-path="url(#clip652)" style="stroke:#000000; stroke-linecap:round; stroke-linejoin:round; stroke-width:2; stroke-opacity:0.1; fill:none" points="2301.89,1486.45 2301.89,47.2441 "/>
<polyline clip-path="url(#clip652)" style="stroke:#000000; stroke-linecap:round; stroke-linejoin:round; stroke-width:2; stroke-opacity:0.1; fill:none" points="193.936,1445.76 2352.76,1445.76 "/>
<polyline clip-path="url(#clip652)" style="stroke:#000000; stroke-linecap:round; stroke-linejoin:round; stroke-width:2; stroke-opacity:0.1; fill:none" points="193.936,1106.32 2352.76,1106.32 "/>
<polyline clip-path="url(#clip652)" style="stroke:#000000; stroke-linecap:round; stroke-linejoin:round; stroke-width:2; stroke-opacity:0.1; fill:none" points="193.936,766.871 2352.76,766.871 "/>
<polyline clip-path="url(#clip652)" style="stroke:#000000; stroke-linecap:round; stroke-linejoin:round; stroke-width:2; stroke-opacity:0.1; fill:none" points="193.936,427.423 2352.76,427.423 "/>
<polyline clip-path="url(#clip652)" style="stroke:#000000; stroke-linecap:round; stroke-linejoin:round; stroke-width:2; stroke-opacity:0.1; fill:none" points="193.936,87.9763 2352.76,87.9763 "/>
<polyline clip-path="url(#clip650)" style="stroke:#000000; stroke-linecap:round; stroke-linejoin:round; stroke-width:4; stroke-opacity:1; fill:none" points="193.936,1486.45 2352.76,1486.45 "/>
<polyline clip-path="url(#clip650)" style="stroke:#000000; stroke-linecap:round; stroke-linejoin:round; stroke-width:4; stroke-opacity:1; fill:none" points="255.035,1486.45 255.035,1467.55 "/>
<polyline clip-path="url(#clip650)" style="stroke:#000000; stroke-linecap:round; stroke-linejoin:round; stroke-width:4; stroke-opacity:1; fill:none" points="766.749,1486.45 766.749,1467.55 "/>
<polyline clip-path="url(#clip650)" style="stroke:#000000; stroke-linecap:round; stroke-linejoin:round; stroke-width:4; stroke-opacity:1; fill:none" points="1278.46,1486.45 1278.46,1467.55 "/>
<polyline clip-path="url(#clip650)" style="stroke:#000000; stroke-linecap:round; stroke-linejoin:round; stroke-width:4; stroke-opacity:1; fill:none" points="1790.18,1486.45 1790.18,1467.55 "/>
<polyline clip-path="url(#clip650)" style="stroke:#000000; stroke-linecap:round; stroke-linejoin:round; stroke-width:4; stroke-opacity:1; fill:none" points="2301.89,1486.45 2301.89,1467.55 "/>
<path clip-path="url(#clip650)" d="M232.419 1517.37 Q228.808 1517.37 226.979 1520.93 Q225.174 1524.47 225.174 1531.6 Q225.174 1538.71 226.979 1542.27 Q228.808 1545.82 232.419 1545.82 Q236.053 1545.82 237.859 1542.27 Q239.688 1538.71 239.688 1531.6 Q239.688 1524.47 237.859 1520.93 Q236.053 1517.37 232.419 1517.37 M232.419 1513.66 Q238.229 1513.66 241.285 1518.27 Q244.363 1522.85 244.363 1531.6 Q244.363 1540.33 241.285 1544.94 Q238.229 1549.52 232.419 1549.52 Q226.609 1549.52 223.53 1544.94 Q220.475 1540.33 220.475 1531.6 Q220.475 1522.85 223.53 1518.27 Q226.609 1513.66 232.419 1513.66 Z" fill="#000000" fill-rule="nonzero" fill-opacity="1" /><path clip-path="url(#clip650)" d="M252.581 1542.97 L257.465 1542.97 L257.465 1548.85 L252.581 1548.85 L252.581 1542.97 Z" fill="#000000" fill-rule="nonzero" fill-opacity="1" /><path clip-path="url(#clip650)" d="M277.65 1517.37 Q274.039 1517.37 272.211 1520.93 Q270.405 1524.47 270.405 1531.6 Q270.405 1538.71 272.211 1542.27 Q274.039 1545.82 277.65 1545.82 Q281.285 1545.82 283.09 1542.27 Q284.919 1538.71 284.919 1531.6 Q284.919 1524.47 283.09 1520.93 Q281.285 1517.37 277.65 1517.37 M277.65 1513.66 Q283.46 1513.66 286.516 1518.27 Q289.595 1522.85 289.595 1531.6 Q289.595 1540.33 286.516 1544.94 Q283.46 1549.52 277.65 1549.52 Q271.84 1549.52 268.761 1544.94 Q265.706 1540.33 265.706 1531.6 Q265.706 1522.85 268.761 1518.27 Q271.84 1513.66 277.65 1513.66 Z" fill="#000000" fill-rule="nonzero" fill-opacity="1" /><path clip-path="url(#clip650)" d="M738.485 1544.91 L754.805 1544.91 L754.805 1548.85 L732.86 1548.85 L732.86 1544.91 Q735.522 1542.16 740.106 1537.53 Q744.712 1532.88 745.893 1531.53 Q748.138 1529.01 749.017 1527.27 Q749.92 1525.51 749.92 1523.82 Q749.92 1521.07 747.976 1519.33 Q746.055 1517.6 742.953 1517.6 Q740.754 1517.6 738.3 1518.36 Q735.869 1519.13 733.092 1520.68 L733.092 1515.95 Q735.916 1514.82 738.369 1514.24 Q740.823 1513.66 742.86 1513.66 Q748.23 1513.66 751.425 1516.35 Q754.619 1519.03 754.619 1523.52 Q754.619 1525.65 753.809 1527.57 Q753.022 1529.47 750.916 1532.07 Q750.337 1532.74 747.235 1535.95 Q744.133 1539.15 738.485 1544.91 Z" fill="#000000" fill-rule="nonzero" fill-opacity="1" /><path clip-path="url(#clip650)" d="M764.619 1542.97 L769.503 1542.97 L769.503 1548.85 L764.619 1548.85 L764.619 1542.97 Z" fill="#000000" fill-rule="nonzero" fill-opacity="1" /><path clip-path="url(#clip650)" d="M779.735 1514.29 L798.091 1514.29 L798.091 1518.22 L784.017 1518.22 L784.017 1526.7 Q785.036 1526.35 786.054 1526.19 Q787.073 1526 788.091 1526 Q793.878 1526 797.258 1529.17 Q800.638 1532.34 800.638 1537.76 Q800.638 1543.34 797.165 1546.44 Q793.693 1549.52 787.374 1549.52 Q785.198 1549.52 782.929 1549.15 Q780.684 1548.78 778.277 1548.04 L778.277 1543.34 Q780.36 1544.47 782.582 1545.03 Q784.804 1545.58 787.281 1545.58 Q791.286 1545.58 793.624 1543.48 Q795.962 1541.37 795.962 1537.76 Q795.962 1534.15 793.624 1532.04 Q791.286 1529.94 787.281 1529.94 Q785.406 1529.94 783.531 1530.35 Q781.679 1530.77 779.735 1531.65 L779.735 1514.29 Z" fill="#000000" fill-rule="nonzero" fill-opacity="1" /><path clip-path="url(#clip650)" d="M1245.63 1514.29 L1263.98 1514.29 L1263.98 1518.22 L1249.91 1518.22 L1249.91 1526.7 Q1250.93 1526.35 1251.95 1526.19 Q1252.97 1526 1253.98 1526 Q1259.77 1526 1263.15 1529.17 Q1266.53 1532.34 1266.53 1537.76 Q1266.53 1543.34 1263.06 1546.44 Q1259.59 1549.52 1253.27 1549.52 Q1251.09 1549.52 1248.82 1549.15 Q1246.58 1548.78 1244.17 1548.04 L1244.17 1543.34 Q1246.25 1544.47 1248.47 1545.03 Q1250.7 1545.58 1253.17 1545.58 Q1257.18 1545.58 1259.52 1543.48 Q1261.85 1541.37 1261.85 1537.76 Q1261.85 1534.15 1259.52 1532.04 Q1257.18 1529.94 1253.17 1529.94 Q1251.3 1529.94 1249.42 1530.35 Q1247.57 1530.77 1245.63 1531.65 L1245.63 1514.29 Z" fill="#000000" fill-rule="nonzero" fill-opacity="1" /><path clip-path="url(#clip650)" d="M1275.74 1542.97 L1280.63 1542.97 L1280.63 1548.85 L1275.74 1548.85 L1275.74 1542.97 Z" fill="#000000" fill-rule="nonzero" fill-opacity="1" /><path clip-path="url(#clip650)" d="M1300.81 1517.37 Q1297.2 1517.37 1295.37 1520.93 Q1293.57 1524.47 1293.57 1531.6 Q1293.57 1538.71 1295.37 1542.27 Q1297.2 1545.82 1300.81 1545.82 Q1304.45 1545.82 1306.25 1542.27 Q1308.08 1538.71 1308.08 1531.6 Q1308.08 1524.47 1306.25 1520.93 Q1304.45 1517.37 1300.81 1517.37 M1300.81 1513.66 Q1306.62 1513.66 1309.68 1518.27 Q1312.76 1522.85 1312.76 1531.6 Q1312.76 1540.33 1309.68 1544.94 Q1306.62 1549.52 1300.81 1549.52 Q1295 1549.52 1291.92 1544.94 Q1288.87 1540.33 1288.87 1531.6 Q1288.87 1522.85 1291.92 1518.27 Q1295 1513.66 1300.81 1513.66 Z" fill="#000000" fill-rule="nonzero" fill-opacity="1" /><path clip-path="url(#clip650)" d="M1756.5 1514.29 L1778.72 1514.29 L1778.72 1516.28 L1766.17 1548.85 L1761.29 1548.85 L1773.09 1518.22 L1756.5 1518.22 L1756.5 1514.29 Z" fill="#000000" fill-rule="nonzero" fill-opacity="1" /><path clip-path="url(#clip650)" d="M1787.84 1542.97 L1792.72 1542.97 L1792.72 1548.85 L1787.84 1548.85 L1787.84 1542.97 Z" fill="#000000" fill-rule="nonzero" fill-opacity="1" /><path clip-path="url(#clip650)" d="M1802.96 1514.29 L1821.31 1514.29 L1821.31 1518.22 L1807.24 1518.22 L1807.24 1526.7 Q1808.26 1526.35 1809.27 1526.19 Q1810.29 1526 1811.31 1526 Q1817.1 1526 1820.48 1529.17 Q1823.86 1532.34 1823.86 1537.76 Q1823.86 1543.34 1820.39 1546.44 Q1816.91 1549.52 1810.59 1549.52 Q1808.42 1549.52 1806.15 1549.15 Q1803.9 1548.78 1801.5 1548.04 L1801.5 1543.34 Q1803.58 1544.47 1805.8 1545.03 Q1808.02 1545.58 1810.5 1545.58 Q1814.51 1545.58 1816.84 1543.48 Q1819.18 1541.37 1819.18 1537.76 Q1819.18 1534.15 1816.84 1532.04 Q1814.51 1529.94 1810.5 1529.94 Q1808.63 1529.94 1806.75 1530.35 Q1804.9 1530.77 1802.96 1531.65 L1802.96 1514.29 Z" fill="#000000" fill-rule="nonzero" fill-opacity="1" /><path clip-path="url(#clip650)" d="M2253.96 1544.91 L2261.6 1544.91 L2261.6 1518.55 L2253.29 1520.21 L2253.29 1515.95 L2261.56 1514.29 L2266.23 1514.29 L2266.23 1544.91 L2273.87 1544.91 L2273.87 1548.85 L2253.96 1548.85 L2253.96 1544.91 Z" fill="#000000" fill-rule="nonzero" fill-opacity="1" /><path clip-path="url(#clip650)" d="M2293.32 1517.37 Q2289.7 1517.37 2287.88 1520.93 Q2286.07 1524.47 2286.07 1531.6 Q2286.07 1538.71 2287.88 1542.27 Q2289.7 1545.82 2293.32 1545.82 Q2296.95 1545.82 2298.75 1542.27 Q2300.58 1538.71 2300.58 1531.6 Q2300.58 1524.47 2298.75 1520.93 Q2296.95 1517.37 2293.32 1517.37 M2293.32 1513.66 Q2299.13 1513.66 2302.18 1518.27 Q2305.26 1522.85 2305.26 1531.6 Q2305.26 1540.33 2302.18 1544.94 Q2299.13 1549.52 2293.32 1549.52 Q2287.51 1549.52 2284.43 1544.94 Q2281.37 1540.33 2281.37 1531.6 Q2281.37 1522.85 2284.43 1518.27 Q2287.51 1513.66 2293.32 1513.66 Z" fill="#000000" fill-rule="nonzero" fill-opacity="1" /><path clip-path="url(#clip650)" d="M2313.48 1542.97 L2318.36 1542.97 L2318.36 1548.85 L2313.48 1548.85 L2313.48 1542.97 Z" fill="#000000" fill-rule="nonzero" fill-opacity="1" /><path clip-path="url(#clip650)" d="M2338.55 1517.37 Q2334.94 1517.37 2333.11 1520.93 Q2331.3 1524.47 2331.3 1531.6 Q2331.3 1538.71 2333.11 1542.27 Q2334.94 1545.82 2338.55 1545.82 Q2342.18 1545.82 2343.99 1542.27 Q2345.81 1538.71 2345.81 1531.6 Q2345.81 1524.47 2343.99 1520.93 Q2342.18 1517.37 2338.55 1517.37 M2338.55 1513.66 Q2344.36 1513.66 2347.41 1518.27 Q2350.49 1522.85 2350.49 1531.6 Q2350.49 1540.33 2347.41 1544.94 Q2344.36 1549.52 2338.55 1549.52 Q2332.74 1549.52 2329.66 1544.94 Q2326.6 1540.33 2326.6 1531.6 Q2326.6 1522.85 2329.66 1518.27 Q2332.74 1513.66 2338.55 1513.66 Z" fill="#000000" fill-rule="nonzero" fill-opacity="1" /><polyline clip-path="url(#clip650)" style="stroke:#000000; stroke-linecap:round; stroke-linejoin:round; stroke-width:4; stroke-opacity:1; fill:none" points="193.936,1486.45 193.936,47.2441 "/>
<polyline clip-path="url(#clip650)" style="stroke:#000000; stroke-linecap:round; stroke-linejoin:round; stroke-width:4; stroke-opacity:1; fill:none" points="193.936,1445.76 212.834,1445.76 "/>
<polyline clip-path="url(#clip650)" style="stroke:#000000; stroke-linecap:round; stroke-linejoin:round; stroke-width:4; stroke-opacity:1; fill:none" points="193.936,1106.32 212.834,1106.32 "/>
<polyline clip-path="url(#clip650)" style="stroke:#000000; stroke-linecap:round; stroke-linejoin:round; stroke-width:4; stroke-opacity:1; fill:none" points="193.936,766.871 212.834,766.871 "/>
<polyline clip-path="url(#clip650)" style="stroke:#000000; stroke-linecap:round; stroke-linejoin:round; stroke-width:4; stroke-opacity:1; fill:none" points="193.936,427.423 212.834,427.423 "/>
<polyline clip-path="url(#clip650)" style="stroke:#000000; stroke-linecap:round; stroke-linejoin:round; stroke-width:4; stroke-opacity:1; fill:none" points="193.936,87.9763 212.834,87.9763 "/>
<path clip-path="url(#clip650)" d="M50.9921 1446.22 L80.6679 1446.22 L80.6679 1450.15 L50.9921 1450.15 L50.9921 1446.22 Z" fill="#000000" fill-rule="nonzero" fill-opacity="1" /><path clip-path="url(#clip650)" d="M91.5706 1459.11 L99.2095 1459.11 L99.2095 1432.74 L90.8993 1434.41 L90.8993 1430.15 L99.1632 1428.48 L103.839 1428.48 L103.839 1459.11 L111.478 1459.11 L111.478 1463.04 L91.5706 1463.04 L91.5706 1459.11 Z" fill="#000000" fill-rule="nonzero" fill-opacity="1" /><path clip-path="url(#clip650)" d="M120.922 1457.17 L125.807 1457.17 L125.807 1463.04 L120.922 1463.04 L120.922 1457.17 Z" fill="#000000" fill-rule="nonzero" fill-opacity="1" /><path clip-path="url(#clip650)" d="M145.992 1431.56 Q142.381 1431.56 140.552 1435.13 Q138.746 1438.67 138.746 1445.8 Q138.746 1452.91 140.552 1456.47 Q142.381 1460.01 145.992 1460.01 Q149.626 1460.01 151.431 1456.47 Q153.26 1452.91 153.26 1445.8 Q153.26 1438.67 151.431 1435.13 Q149.626 1431.56 145.992 1431.56 M145.992 1427.86 Q151.802 1427.86 154.857 1432.47 Q157.936 1437.05 157.936 1445.8 Q157.936 1454.53 154.857 1459.13 Q151.802 1463.72 145.992 1463.72 Q140.181 1463.72 137.103 1459.13 Q134.047 1454.53 134.047 1445.8 Q134.047 1437.05 137.103 1432.47 Q140.181 1427.86 145.992 1427.86 Z" fill="#000000" fill-rule="nonzero" fill-opacity="1" /><path clip-path="url(#clip650)" d="M51.9875 1106.77 L81.6633 1106.77 L81.6633 1110.7 L51.9875 1110.7 L51.9875 1106.77 Z" fill="#000000" fill-rule="nonzero" fill-opacity="1" /><path clip-path="url(#clip650)" d="M101.756 1092.12 Q98.1447 1092.12 96.316 1095.68 Q94.5104 1099.22 94.5104 1106.35 Q94.5104 1113.46 96.316 1117.02 Q98.1447 1120.57 101.756 1120.57 Q105.39 1120.57 107.196 1117.02 Q109.024 1113.46 109.024 1106.35 Q109.024 1099.22 107.196 1095.68 Q105.39 1092.12 101.756 1092.12 M101.756 1088.41 Q107.566 1088.41 110.621 1093.02 Q113.7 1097.6 113.7 1106.35 Q113.7 1115.08 110.621 1119.69 Q107.566 1124.27 101.756 1124.27 Q95.9456 1124.27 92.8669 1119.69 Q89.8114 1115.08 89.8114 1106.35 Q89.8114 1097.6 92.8669 1093.02 Q95.9456 1088.41 101.756 1088.41 Z" fill="#000000" fill-rule="nonzero" fill-opacity="1" /><path clip-path="url(#clip650)" d="M121.918 1117.72 L126.802 1117.72 L126.802 1123.6 L121.918 1123.6 L121.918 1117.72 Z" fill="#000000" fill-rule="nonzero" fill-opacity="1" /><path clip-path="url(#clip650)" d="M137.033 1089.04 L155.39 1089.04 L155.39 1092.97 L141.316 1092.97 L141.316 1101.45 Q142.334 1101.1 143.353 1100.94 Q144.371 1100.75 145.39 1100.75 Q151.177 1100.75 154.556 1103.92 Q157.936 1107.09 157.936 1112.51 Q157.936 1118.09 154.464 1121.19 Q150.992 1124.27 144.672 1124.27 Q142.496 1124.27 140.228 1123.9 Q137.982 1123.53 135.575 1122.79 L135.575 1118.09 Q137.658 1119.22 139.881 1119.78 Q142.103 1120.33 144.58 1120.33 Q148.584 1120.33 150.922 1118.23 Q153.26 1116.12 153.26 1112.51 Q153.26 1108.9 150.922 1106.79 Q148.584 1104.69 144.58 1104.69 Q142.705 1104.69 140.83 1105.1 Q138.978 1105.52 137.033 1106.4 L137.033 1089.04 Z" fill="#000000" fill-rule="nonzero" fill-opacity="1" /><path clip-path="url(#clip650)" d="M100.76 752.669 Q97.1493 752.669 95.3206 756.234 Q93.515 759.776 93.515 766.905 Q93.515 774.012 95.3206 777.577 Q97.1493 781.118 100.76 781.118 Q104.395 781.118 106.2 777.577 Q108.029 774.012 108.029 766.905 Q108.029 759.776 106.2 756.234 Q104.395 752.669 100.76 752.669 M100.76 748.966 Q106.571 748.966 109.626 753.572 Q112.705 758.155 112.705 766.905 Q112.705 775.632 109.626 780.239 Q106.571 784.822 100.76 784.822 Q94.9502 784.822 91.8715 780.239 Q88.816 775.632 88.816 766.905 Q88.816 758.155 91.8715 753.572 Q94.9502 748.966 100.76 748.966 Z" fill="#000000" fill-rule="nonzero" fill-opacity="1" /><path clip-path="url(#clip650)" d="M120.922 778.271 L125.807 778.271 L125.807 784.151 L120.922 784.151 L120.922 778.271 Z" fill="#000000" fill-rule="nonzero" fill-opacity="1" /><path clip-path="url(#clip650)" d="M145.992 752.669 Q142.381 752.669 140.552 756.234 Q138.746 759.776 138.746 766.905 Q138.746 774.012 140.552 777.577 Q142.381 781.118 145.992 781.118 Q149.626 781.118 151.431 777.577 Q153.26 774.012 153.26 766.905 Q153.26 759.776 151.431 756.234 Q149.626 752.669 145.992 752.669 M145.992 748.966 Q151.802 748.966 154.857 753.572 Q157.936 758.155 157.936 766.905 Q157.936 775.632 154.857 780.239 Q151.802 784.822 145.992 784.822 Q140.181 784.822 137.103 780.239 Q134.047 775.632 134.047 766.905 Q134.047 758.155 137.103 753.572 Q140.181 748.966 145.992 748.966 Z" fill="#000000" fill-rule="nonzero" fill-opacity="1" /><path clip-path="url(#clip650)" d="M101.756 413.222 Q98.1447 413.222 96.316 416.787 Q94.5104 420.329 94.5104 427.458 Q94.5104 434.565 96.316 438.129 Q98.1447 441.671 101.756 441.671 Q105.39 441.671 107.196 438.129 Q109.024 434.565 109.024 427.458 Q109.024 420.329 107.196 416.787 Q105.39 413.222 101.756 413.222 M101.756 409.518 Q107.566 409.518 110.621 414.125 Q113.7 418.708 113.7 427.458 Q113.7 436.185 110.621 440.791 Q107.566 445.375 101.756 445.375 Q95.9456 445.375 92.8669 440.791 Q89.8114 436.185 89.8114 427.458 Q89.8114 418.708 92.8669 414.125 Q95.9456 409.518 101.756 409.518 Z" fill="#000000" fill-rule="nonzero" fill-opacity="1" /><path clip-path="url(#clip650)" d="M121.918 438.824 L126.802 438.824 L126.802 444.703 L121.918 444.703 L121.918 438.824 Z" fill="#000000" fill-rule="nonzero" fill-opacity="1" /><path clip-path="url(#clip650)" d="M137.033 410.143 L155.39 410.143 L155.39 414.079 L141.316 414.079 L141.316 422.551 Q142.334 422.204 143.353 422.042 Q144.371 421.856 145.39 421.856 Q151.177 421.856 154.556 425.028 Q157.936 428.199 157.936 433.616 Q157.936 439.194 154.464 442.296 Q150.992 445.375 144.672 445.375 Q142.496 445.375 140.228 445.004 Q137.982 444.634 135.575 443.893 L135.575 439.194 Q137.658 440.328 139.881 440.884 Q142.103 441.44 144.58 441.44 Q148.584 441.44 150.922 439.333 Q153.26 437.227 153.26 433.616 Q153.26 430.004 150.922 427.898 Q148.584 425.791 144.58 425.791 Q142.705 425.791 140.83 426.208 Q138.978 426.625 137.033 427.504 L137.033 410.143 Z" fill="#000000" fill-rule="nonzero" fill-opacity="1" /><path clip-path="url(#clip650)" d="M91.5706 101.321 L99.2095 101.321 L99.2095 74.9555 L90.8993 76.6222 L90.8993 72.3629 L99.1632 70.6963 L103.839 70.6963 L103.839 101.321 L111.478 101.321 L111.478 105.256 L91.5706 105.256 L91.5706 101.321 Z" fill="#000000" fill-rule="nonzero" fill-opacity="1" /><path clip-path="url(#clip650)" d="M120.922 99.3767 L125.807 99.3767 L125.807 105.256 L120.922 105.256 L120.922 99.3767 Z" fill="#000000" fill-rule="nonzero" fill-opacity="1" /><path clip-path="url(#clip650)" d="M145.992 73.775 Q142.381 73.775 140.552 77.3398 Q138.746 80.8814 138.746 88.011 Q138.746 95.1174 140.552 98.6822 Q142.381 102.224 145.992 102.224 Q149.626 102.224 151.431 98.6822 Q153.26 95.1174 153.26 88.011 Q153.26 80.8814 151.431 77.3398 Q149.626 73.775 145.992 73.775 M145.992 70.0713 Q151.802 70.0713 154.857 74.6777 Q157.936 79.261 157.936 88.011 Q157.936 96.7378 154.857 101.344 Q151.802 105.928 145.992 105.928 Q140.181 105.928 137.103 101.344 Q134.047 96.7378 134.047 88.011 Q134.047 79.261 137.103 74.6777 Q140.181 70.0713 145.992 70.0713 Z" fill="#000000" fill-rule="nonzero" fill-opacity="1" /><polyline clip-path="url(#clip652)" style="stroke:#009af9; stroke-linecap:round; stroke-linejoin:round; stroke-width:4; stroke-opacity:1; fill:none" points="255.035,87.9763 265.269,104.949 275.503,121.656 285.738,138.23 295.972,154.671 306.206,170.978 316.44,187.151 326.675,203.189 336.909,219.093 347.143,234.863 357.378,250.5 367.612,266.003 377.846,281.374 388.08,296.613 398.315,311.72 408.549,326.697 418.783,341.543 429.018,356.26 439.252,370.848 449.486,385.307 459.72,399.639 469.955,413.843 480.189,427.921 490.423,441.872 500.657,455.699 510.892,469.401 521.126,482.978 531.36,496.432 541.595,509.764 551.829,522.973 562.063,536.061 572.297,549.028 582.532,561.874 592.766,574.601 603,587.208 613.235,599.697 623.469,612.068 633.703,624.322 643.937,636.46 654.172,648.481 664.406,660.387 674.64,672.178 684.875,683.855 695.109,695.418 705.343,706.868 715.577,718.205 725.812,729.431 736.046,740.546 746.28,751.55 756.515,762.444 766.749,773.228 776.983,783.903 787.217,794.471 797.452,804.93 807.686,815.282 817.92,825.528 828.155,835.668 838.389,845.702 848.623,855.632 858.857,865.457 869.092,875.178 879.326,884.797 889.56,894.313 899.795,903.726 910.029,913.038 920.263,922.25 930.497,931.361 940.732,940.372 950.966,949.284 961.2,958.097 971.435,966.812 981.669,975.43 991.903,983.95 1002.14,992.374 1012.37,1000.7 1022.61,1008.93 1032.84,1017.07 1043.07,1025.12 1053.31,1033.06 1063.54,1040.92 1073.78,1048.68 1084.01,1056.35 1094.25,1063.93 1104.48,1071.42 1114.71,1078.82 1124.95,1086.13 1135.18,1093.34 1145.42,1100.47 1155.65,1107.51 1165.89,1114.46 1176.12,1121.33 1186.35,1128.1 1196.59,1134.79 1206.82,1141.4 1217.06,1147.92 1227.29,1154.35 1237.53,1160.7 1247.76,1166.96 1257.99,1173.14 1268.23,1179.24 1278.46,1185.26 1288.7,1191.19 1298.93,1197.04 1309.17,1202.81 1319.4,1208.5 1329.63,1214.11 1339.87,1219.64 1350.1,1225.09 1360.34,1230.46 1370.57,1235.75 1380.81,1240.97 1391.04,1246.11 1401.27,1251.17 1411.51,1256.15 1421.74,1261.06 1431.98,1265.89 1442.21,1270.65 1452.45,1275.33 1462.68,1279.94 1472.91,1284.48 1483.15,1288.94 1493.38,1293.33 1503.62,1297.64 1513.85,1301.89 1524.09,1306.06 1534.32,1310.16 1544.55,1314.19 1554.79,1318.15 1565.02,1322.05 1575.26,1325.87 1585.49,1329.62 1595.73,1333.31 1605.96,1336.92 1616.19,1340.47 1626.43,1343.96 1636.66,1347.37 1646.9,1350.72 1657.13,1354.01 1667.37,1357.22 1677.6,1360.38 1687.83,1363.46 1698.07,1366.49 1708.3,1369.45 1718.54,1372.35 1728.77,1375.18 1739.01,1377.95 1749.24,1380.66 1759.47,1383.31 1769.71,1385.9 1779.94,1388.42 1790.18,1390.89 1800.41,1393.29 1810.65,1395.64 1820.88,1397.92 1831.11,1400.15 1841.35,1402.32 1851.58,1404.43 1861.82,1406.48 1872.05,1408.48 1882.29,1410.42 1892.52,1412.3 1902.75,1414.12 1912.99,1415.89 1923.22,1417.61 1933.46,1419.27 1943.69,1420.87 1953.93,1422.42 1964.16,1423.92 1974.39,1425.36 1984.63,1426.75 1994.86,1428.08 2005.1,1429.37 2015.33,1430.6 2025.57,1431.78 2035.8,1432.91 2046.03,1433.99 2056.27,1435.01 2066.5,1435.99 2076.74,1436.92 2086.97,1437.79 2097.21,1438.62 2107.44,1439.4 2117.67,1440.13 2127.91,1440.81 2138.14,1441.45 2148.38,1442.04 2158.61,1442.58 2168.85,1443.07 2179.08,1443.52 2189.31,1443.92 2199.55,1444.27 2209.78,1444.58 2220.02,1444.84 2230.25,1445.06 2240.49,1445.24 2250.72,1445.37 2260.95,1445.46 2271.19,1445.5 2281.42,1445.5 2291.66,1445.46 "/>
<polyline clip-path="url(#clip652)" style="stroke:#e26f46; stroke-linecap:round; stroke-linejoin:round; stroke-width:4; stroke-opacity:1; fill:none" points="255.035,87.9763 265.269,104.949 275.503,121.735 285.738,138.376 295.972,154.874 306.206,171.231 316.44,187.449 326.675,203.527 336.909,219.469 347.143,235.273 357.378,250.941 367.612,266.475 377.846,281.873 388.08,297.139 398.315,312.271 408.549,327.271 418.783,342.14 429.018,356.877 439.252,371.485 449.486,385.963 459.72,400.313 469.955,414.534 480.189,428.628 490.423,442.596 500.657,456.437 510.892,470.153 521.126,483.744 531.36,497.211 541.595,510.555 551.829,523.776 562.063,536.875 572.297,549.852 582.532,562.709 592.766,575.445 603,588.062 613.235,600.559 623.469,612.939 633.703,625.201 643.937,637.345 654.172,649.374 664.406,661.286 674.64,673.084 684.875,684.766 695.109,696.335 705.343,707.79 715.577,719.133 725.812,730.364 736.046,741.483 746.28,752.491 756.515,763.388 766.749,774.176 776.983,784.855 787.217,795.425 797.452,805.887 807.686,816.242 817.92,826.49 828.155,836.631 838.389,846.667 848.623,856.598 858.857,866.425 869.092,876.147 879.326,885.767 889.56,895.283 899.795,904.697 910.029,914.01 920.263,923.221 930.497,932.332 940.732,941.343 950.966,950.254 961.2,959.067 971.435,967.781 981.669,976.397 991.903,984.917 1002.14,993.339 1012.37,1001.67 1022.61,1009.9 1032.84,1018.03 1043.07,1026.07 1053.31,1034.02 1063.54,1041.87 1073.78,1049.64 1084.01,1057.3 1094.25,1064.88 1104.48,1072.37 1114.71,1079.76 1124.95,1087.06 1135.18,1094.28 1145.42,1101.4 1155.65,1108.44 1165.89,1115.39 1176.12,1122.25 1186.35,1129.02 1196.59,1135.71 1206.82,1142.31 1217.06,1148.82 1227.29,1155.25 1237.53,1161.59 1247.76,1167.86 1257.99,1174.03 1268.23,1180.12 1278.46,1186.14 1288.7,1192.06 1298.93,1197.91 1309.17,1203.68 1319.4,1209.36 1329.63,1214.96 1339.87,1220.49 1350.1,1225.93 1360.34,1231.3 1370.57,1236.59 1380.81,1241.8 1391.04,1246.93 1401.27,1251.98 1411.51,1256.96 1421.74,1261.86 1431.98,1266.69 1442.21,1271.44 1452.45,1276.12 1462.68,1280.72 1472.91,1285.25 1483.15,1289.71 1493.38,1294.09 1503.62,1298.4 1513.85,1302.64 1524.09,1306.81 1534.32,1310.9 1544.55,1314.93 1554.79,1318.88 1565.02,1322.77 1575.26,1326.58 1585.49,1330.33 1595.73,1334.01 1605.96,1337.62 1616.19,1341.16 1626.43,1344.64 1636.66,1348.05 1646.9,1351.39 1657.13,1354.67 1667.37,1357.88 1677.6,1361.02 1687.83,1364.1 1698.07,1367.12 1708.3,1370.08 1718.54,1372.97 1728.77,1375.79 1739.01,1378.56 1749.24,1381.26 1759.47,1383.9 1769.71,1386.48 1779.94,1389 1790.18,1391.46 1800.41,1393.85 1810.65,1396.19 1820.88,1398.47 1831.11,1400.69 1841.35,1402.85 1851.58,1404.95 1861.82,1407 1872.05,1408.99 1882.29,1410.92 1892.52,1412.79 1902.75,1414.61 1912.99,1416.37 1923.22,1418.08 1933.46,1419.73 1943.69,1421.33 1953.93,1422.87 1964.16,1424.36 1974.39,1425.79 1984.63,1427.18 1994.86,1428.5 2005.1,1429.78 2015.33,1431 2025.57,1432.18 2035.8,1433.3 2046.03,1434.37 2056.27,1435.39 2066.5,1436.36 2076.74,1437.28 2086.97,1438.15 2097.21,1438.97 2107.44,1439.74 2117.67,1440.46 2127.91,1441.14 2138.14,1441.76 2148.38,1442.34 2158.61,1442.87 2168.85,1443.36 2179.08,1443.8 2189.31,1444.19 2199.55,1444.54 2209.78,1444.84 2220.02,1445.1 2230.25,1445.31 2240.49,1445.48 2250.72,1445.6 2260.95,1445.68 2271.19,1445.72 2281.42,1445.71 2291.66,1445.66 "/>
<path clip-path="url(#clip650)" d="M1795.24 250.738 L2280.8 250.738 L2280.8 95.2176 L1795.24 95.2176  Z" fill="#ffffff" fill-rule="evenodd" fill-opacity="1"/>
<polyline clip-path="url(#clip650)" style="stroke:#000000; stroke-linecap:round; stroke-linejoin:round; stroke-width:4; stroke-opacity:1; fill:none" points="1795.24,250.738 2280.8,250.738 2280.8,95.2176 1795.24,95.2176 1795.24,250.738 "/>
<polyline clip-path="url(#clip650)" style="stroke:#009af9; stroke-linecap:round; stroke-linejoin:round; stroke-width:4; stroke-opacity:1; fill:none" points="1819.23,147.058 1963.15,147.058 "/>
<path clip-path="url(#clip650)" d="M2000.54 151.305 Q1995.37 151.305 1993.38 152.486 Q1991.39 153.666 1991.39 156.514 Q1991.39 158.782 1992.87 160.125 Q1994.38 161.444 1996.95 161.444 Q2000.49 161.444 2002.62 158.944 Q2004.77 156.421 2004.77 152.254 L2004.77 151.305 L2000.54 151.305 M2009.03 149.546 L2009.03 164.338 L2004.77 164.338 L2004.77 160.402 Q2003.31 162.763 2001.14 163.898 Q1998.96 165.009 1995.81 165.009 Q1991.83 165.009 1989.47 162.787 Q1987.13 160.541 1987.13 156.791 Q1987.13 152.416 1990.05 150.194 Q1992.99 147.972 1998.8 147.972 L2004.77 147.972 L2004.77 147.555 Q2004.77 144.615 2002.83 143.018 Q2000.91 141.398 1997.41 141.398 Q1995.19 141.398 1993.08 141.93 Q1990.98 142.463 1989.03 143.527 L1989.03 139.592 Q1991.37 138.69 1993.57 138.25 Q1995.77 137.787 1997.85 137.787 Q2003.48 137.787 2006.25 140.703 Q2009.03 143.62 2009.03 149.546 Z" fill="#000000" fill-rule="nonzero" fill-opacity="1" /><path clip-path="url(#clip650)" d="M2017.81 128.319 L2022.06 128.319 L2022.06 164.338 L2017.81 164.338 L2017.81 128.319 Z" fill="#000000" fill-rule="nonzero" fill-opacity="1" /><path clip-path="url(#clip650)" d="M2035.1 160.449 L2035.1 174.199 L2030.81 174.199 L2030.81 138.412 L2035.1 138.412 L2035.1 142.347 Q2036.44 140.032 2038.48 138.921 Q2040.54 137.787 2043.38 137.787 Q2048.11 137.787 2051.05 141.537 Q2054.01 145.287 2054.01 151.398 Q2054.01 157.509 2051.05 161.259 Q2048.11 165.009 2043.38 165.009 Q2040.54 165.009 2038.48 163.898 Q2036.44 162.763 2035.1 160.449 M2049.59 151.398 Q2049.59 146.699 2047.64 144.037 Q2045.72 141.352 2042.34 141.352 Q2038.96 141.352 2037.02 144.037 Q2035.1 146.699 2035.1 151.398 Q2035.1 156.097 2037.02 158.782 Q2038.96 161.444 2042.34 161.444 Q2045.72 161.444 2047.64 158.782 Q2049.59 156.097 2049.59 151.398 Z" fill="#000000" fill-rule="nonzero" fill-opacity="1" /><path clip-path="url(#clip650)" d="M2082.62 148.689 L2082.62 164.338 L2078.36 164.338 L2078.36 148.828 Q2078.36 145.148 2076.93 143.319 Q2075.49 141.49 2072.62 141.49 Q2069.17 141.49 2067.18 143.69 Q2065.19 145.889 2065.19 149.685 L2065.19 164.338 L2060.91 164.338 L2060.91 128.319 L2065.19 128.319 L2065.19 142.44 Q2066.72 140.102 2068.78 138.944 Q2070.86 137.787 2073.57 137.787 Q2078.04 137.787 2080.33 140.565 Q2082.62 143.319 2082.62 148.689 Z" fill="#000000" fill-rule="nonzero" fill-opacity="1" /><path clip-path="url(#clip650)" d="M2102.9 151.305 Q2097.74 151.305 2095.74 152.486 Q2093.75 153.666 2093.75 156.514 Q2093.75 158.782 2095.24 160.125 Q2096.74 161.444 2099.31 161.444 Q2102.85 161.444 2104.98 158.944 Q2107.13 156.421 2107.13 152.254 L2107.13 151.305 L2102.9 151.305 M2111.39 149.546 L2111.39 164.338 L2107.13 164.338 L2107.13 160.402 Q2105.67 162.763 2103.5 163.898 Q2101.32 165.009 2098.17 165.009 Q2094.19 165.009 2091.83 162.787 Q2089.49 160.541 2089.49 156.791 Q2089.49 152.416 2092.41 150.194 Q2095.35 147.972 2101.16 147.972 L2107.13 147.972 L2107.13 147.555 Q2107.13 144.615 2105.19 143.018 Q2103.27 141.398 2099.77 141.398 Q2097.55 141.398 2095.44 141.93 Q2093.34 142.463 2091.39 143.527 L2091.39 139.592 Q2093.73 138.69 2095.93 138.25 Q2098.13 137.787 2100.21 137.787 Q2105.84 137.787 2108.61 140.703 Q2111.39 143.62 2111.39 149.546 Z" fill="#000000" fill-rule="nonzero" fill-opacity="1" /><path clip-path="url(#clip650)" d="M2120.72 142.81 L2150.4 142.81 L2150.4 146.699 L2120.72 146.699 L2120.72 142.81 M2120.72 152.254 L2150.4 152.254 L2150.4 156.189 L2120.72 156.189 L2120.72 152.254 Z" fill="#000000" fill-rule="nonzero" fill-opacity="1" /><path clip-path="url(#clip650)" d="M2161.3 160.402 L2168.94 160.402 L2168.94 134.037 L2160.63 135.703 L2160.63 131.444 L2168.89 129.778 L2173.57 129.778 L2173.57 160.402 L2181.21 160.402 L2181.21 164.338 L2161.3 164.338 L2161.3 160.402 Z" fill="#000000" fill-rule="nonzero" fill-opacity="1" /><polyline clip-path="url(#clip650)" style="stroke:#e26f46; stroke-linecap:round; stroke-linejoin:round; stroke-width:4; stroke-opacity:1; fill:none" points="1819.23,198.898 1963.15,198.898 "/>
<path clip-path="url(#clip650)" d="M2000.54 203.145 Q1995.37 203.145 1993.38 204.326 Q1991.39 205.506 1991.39 208.354 Q1991.39 210.622 1992.87 211.965 Q1994.38 213.284 1996.95 213.284 Q2000.49 213.284 2002.62 210.784 Q2004.77 208.261 2004.77 204.094 L2004.77 203.145 L2000.54 203.145 M2009.03 201.386 L2009.03 216.178 L2004.77 216.178 L2004.77 212.242 Q2003.31 214.603 2001.14 215.738 Q1998.96 216.849 1995.81 216.849 Q1991.83 216.849 1989.47 214.627 Q1987.13 212.381 1987.13 208.631 Q1987.13 204.256 1990.05 202.034 Q1992.99 199.812 1998.8 199.812 L2004.77 199.812 L2004.77 199.395 Q2004.77 196.455 2002.83 194.858 Q2000.91 193.238 1997.41 193.238 Q1995.19 193.238 1993.08 193.77 Q1990.98 194.303 1989.03 195.367 L1989.03 191.432 Q1991.37 190.53 1993.57 190.09 Q1995.77 189.627 1997.85 189.627 Q2003.48 189.627 2006.25 192.543 Q2009.03 195.46 2009.03 201.386 Z" fill="#000000" fill-rule="nonzero" fill-opacity="1" /><path clip-path="url(#clip650)" d="M2017.81 180.159 L2022.06 180.159 L2022.06 216.178 L2017.81 216.178 L2017.81 180.159 Z" fill="#000000" fill-rule="nonzero" fill-opacity="1" /><path clip-path="url(#clip650)" d="M2035.1 212.289 L2035.1 226.039 L2030.81 226.039 L2030.81 190.252 L2035.1 190.252 L2035.1 194.187 Q2036.44 191.872 2038.48 190.761 Q2040.54 189.627 2043.38 189.627 Q2048.11 189.627 2051.05 193.377 Q2054.01 197.127 2054.01 203.238 Q2054.01 209.349 2051.05 213.099 Q2048.11 216.849 2043.38 216.849 Q2040.54 216.849 2038.48 215.738 Q2036.44 214.603 2035.1 212.289 M2049.59 203.238 Q2049.59 198.539 2047.64 195.877 Q2045.72 193.192 2042.34 193.192 Q2038.96 193.192 2037.02 195.877 Q2035.1 198.539 2035.1 203.238 Q2035.1 207.937 2037.02 210.622 Q2038.96 213.284 2042.34 213.284 Q2045.72 213.284 2047.64 210.622 Q2049.59 207.937 2049.59 203.238 Z" fill="#000000" fill-rule="nonzero" fill-opacity="1" /><path clip-path="url(#clip650)" d="M2082.62 200.529 L2082.62 216.178 L2078.36 216.178 L2078.36 200.668 Q2078.36 196.988 2076.93 195.159 Q2075.49 193.33 2072.62 193.33 Q2069.17 193.33 2067.18 195.53 Q2065.19 197.729 2065.19 201.525 L2065.19 216.178 L2060.91 216.178 L2060.91 180.159 L2065.19 180.159 L2065.19 194.28 Q2066.72 191.942 2068.78 190.784 Q2070.86 189.627 2073.57 189.627 Q2078.04 189.627 2080.33 192.405 Q2082.62 195.159 2082.62 200.529 Z" fill="#000000" fill-rule="nonzero" fill-opacity="1" /><path clip-path="url(#clip650)" d="M2102.9 203.145 Q2097.74 203.145 2095.74 204.326 Q2093.75 205.506 2093.75 208.354 Q2093.75 210.622 2095.24 211.965 Q2096.74 213.284 2099.31 213.284 Q2102.85 213.284 2104.98 210.784 Q2107.13 208.261 2107.13 204.094 L2107.13 203.145 L2102.9 203.145 M2111.39 201.386 L2111.39 216.178 L2107.13 216.178 L2107.13 212.242 Q2105.67 214.603 2103.5 215.738 Q2101.32 216.849 2098.17 216.849 Q2094.19 216.849 2091.83 214.627 Q2089.49 212.381 2089.49 208.631 Q2089.49 204.256 2092.41 202.034 Q2095.35 199.812 2101.16 199.812 L2107.13 199.812 L2107.13 199.395 Q2107.13 196.455 2105.19 194.858 Q2103.27 193.238 2099.77 193.238 Q2097.55 193.238 2095.44 193.77 Q2093.34 194.303 2091.39 195.367 L2091.39 191.432 Q2093.73 190.53 2095.93 190.09 Q2098.13 189.627 2100.21 189.627 Q2105.84 189.627 2108.61 192.543 Q2111.39 195.46 2111.39 201.386 Z" fill="#000000" fill-rule="nonzero" fill-opacity="1" /><path clip-path="url(#clip650)" d="M2135.79 194.65 L2165.47 194.65 L2165.47 198.539 L2135.79 198.539 L2135.79 194.65 M2135.79 204.094 L2165.47 204.094 L2165.47 208.029 L2135.79 208.029 L2135.79 204.094 Z" fill="#000000" fill-rule="nonzero" fill-opacity="1" /><path clip-path="url(#clip650)" d="M2200.63 184.696 Q2197.02 184.696 2195.19 188.261 Q2193.38 191.803 2193.38 198.932 Q2193.38 206.039 2195.19 209.604 Q2197.02 213.145 2200.63 213.145 Q2204.26 213.145 2206.07 209.604 Q2207.9 206.039 2207.9 198.932 Q2207.9 191.803 2206.07 188.261 Q2204.26 184.696 2200.63 184.696 M2200.63 180.993 Q2206.44 180.993 2209.49 185.599 Q2212.57 190.182 2212.57 198.932 Q2212.57 207.659 2209.49 212.266 Q2206.44 216.849 2200.63 216.849 Q2194.82 216.849 2191.74 212.266 Q2188.68 207.659 2188.68 198.932 Q2188.68 190.182 2191.74 185.599 Q2194.82 180.993 2200.63 180.993 Z" fill="#000000" fill-rule="nonzero" fill-opacity="1" /><path clip-path="url(#clip650)" d="M2220.79 210.298 L2225.67 210.298 L2225.67 216.178 L2220.79 216.178 L2220.79 210.298 Z" fill="#000000" fill-rule="nonzero" fill-opacity="1" /><path clip-path="url(#clip650)" d="M2235.91 181.618 L2254.26 181.618 L2254.26 185.553 L2240.19 185.553 L2240.19 194.025 Q2241.21 193.678 2242.23 193.516 Q2243.24 193.33 2244.26 193.33 Q2250.05 193.33 2253.43 196.502 Q2256.81 199.673 2256.81 205.09 Q2256.81 210.668 2253.34 213.77 Q2249.86 216.849 2243.54 216.849 Q2241.37 216.849 2239.1 216.478 Q2236.85 216.108 2234.45 215.367 L2234.45 210.668 Q2236.53 211.803 2238.75 212.358 Q2240.98 212.914 2243.45 212.914 Q2247.46 212.914 2249.79 210.807 Q2252.13 208.701 2252.13 205.09 Q2252.13 201.479 2249.79 199.372 Q2247.46 197.266 2243.45 197.266 Q2241.58 197.266 2239.7 197.682 Q2237.85 198.099 2235.91 198.979 L2235.91 181.618 Z" fill="#000000" fill-rule="nonzero" fill-opacity="1" /></svg>
